<svg width="51" height="51" viewBox="0 0 51 51" fill="none" xmlns="http://www.w3.org/2000/svg">
<g clip-path="url(#clip0_2_422)">
<g clip-path="url(#clip1_2_422)">
<path d="M18.2168 48.5461C26.8069 48.5461 33.7705 41.5825 33.7705 32.9924C33.7705 24.4024 26.8069 17.4387 18.2168 17.4387C9.62671 17.4387 2.66309 24.4024 2.66309 32.9924C2.66309 41.5825 9.62671 48.5461 18.2168 48.5461Z" fill="#27E2A0" stroke="black" stroke-width="4"/>
<path d="M33.0605 33.8611C41.6506 33.8611 48.6142 26.8974 48.6142 18.3074C48.6142 9.71729 41.6506 2.75366 33.0605 2.75366C24.4705 2.75366 17.5068 9.71729 17.5068 18.3074C17.5068 26.8974 24.4705 33.8611 33.0605 33.8611Z" fill="#F2BBFB" stroke="black" stroke-width="4"/>
<path fill-rule="evenodd" clip-rule="evenodd" d="M17.5298 17.4539C17.7576 17.444 17.9866 17.439 18.2167 17.439C26.8068 17.439 33.7705 24.4026 33.7705 32.9927C33.7705 33.2791 33.7627 33.5637 33.7474 33.8463C33.5197 33.8562 33.2907 33.8612 33.0605 33.8612C24.4704 33.8612 17.5068 26.8975 17.5068 18.3075C17.5068 18.0211 17.5145 17.7365 17.5298 17.4539Z" fill="white"/>
<path d="M17.5298 17.4539L17.443 15.4558L15.6307 15.5345L15.5327 17.3459L17.5298 17.4539ZM33.7474 33.8463L33.8343 35.8444L35.6466 35.7656L35.7445 33.9543L33.7474 33.8463ZM17.6166 19.452C17.8155 19.4434 18.0155 19.439 18.2167 19.439V15.439C17.9576 15.439 17.6996 15.4446 17.443 15.4558L17.6166 19.452ZM18.2167 19.439C25.7023 19.439 31.7705 25.5072 31.7705 32.9927H35.7705C35.7705 23.298 27.9114 15.439 18.2167 15.439V19.439ZM31.7705 32.9927C31.7705 33.243 31.7637 33.4916 31.7504 33.7383L35.7445 33.9543C35.7617 33.6358 35.7705 33.3151 35.7705 32.9927H31.7705ZM33.6606 31.8482C33.4618 31.8568 33.2617 31.8612 33.0605 31.8612V35.8612C33.3197 35.8612 33.5776 35.8555 33.8343 35.8444L33.6606 31.8482ZM33.0605 31.8612C25.575 31.8612 19.5068 25.793 19.5068 18.3075H15.5068C15.5068 28.0021 23.3659 35.8612 33.0605 35.8612V31.8612ZM19.5068 18.3075C19.5068 18.0571 19.5136 17.8085 19.5269 17.5619L15.5327 17.3459C15.5155 17.6644 15.5068 17.985 15.5068 18.3075H19.5068Z" fill="black"/>
</g>
</g>
<defs>
<clipPath id="clip0_2_422">
<rect width="50" height="50" fill="white" transform="translate(0.639648 0.72998)"/>
</clipPath>
<clipPath id="clip1_2_422">
<rect width="50" height="50" fill="white" transform="translate(0.639648 0.72998)"/>
</clipPath>
</defs>
</svg>
