<svg width="121" height="23" viewBox="0 0 121 23" fill="none" xmlns="http://www.w3.org/2000/svg">
<g clip-path="url(#clip0_2_340)">
<g clip-path="url(#clip1_2_340)">
<mask id="mask0_2_340" style="mask-type:luminance" maskUnits="userSpaceOnUse" x="0" y="0" width="121" height="22">
<path d="M120.16 0.689941H0.160156V21.9137H120.16V0.689941Z" fill="white"/>
</mask>
<g mask="url(#mask0_2_340)">
<path d="M8.70361 21.9137C6.2657 21.9137 4.22692 21.0898 2.58727 19.4421C0.969192 17.7944 0.160155 15.7564 0.160156 13.3282C0.160158 10.8999 0.969197 8.86199 2.58728 7.21426C4.22693 5.56654 6.26571 4.74268 8.70362 4.74268C10.2786 4.74269 11.7133 5.1221 13.0077 5.88092C14.3022 6.63974 15.2838 7.65872 15.9526 8.93788L12.3605 11.0517C12.0369 10.3796 11.5407 9.84846 10.8719 9.45821C10.2246 9.06796 9.49108 8.87283 8.67125 8.87283C7.41994 8.87283 6.38437 9.2956 5.56454 10.1411C4.74472 10.965 4.33481 12.0273 4.3348 13.3282C4.3348 14.6073 4.74471 15.6697 5.56454 16.5152C6.38436 17.3391 7.41993 17.751 8.67124 17.751C9.51264 17.751 10.257 17.5667 10.9042 17.1982C11.573 16.8079 12.0692 16.2767 12.3929 15.6046L16.0173 17.686C15.3054 18.9651 14.3022 19.9949 13.0077 20.7754C11.7133 21.5343 10.2786 21.9137 8.70361 21.9137Z" fill="black"/>
<path d="M45.0732 4.77112C46.8532 4.77112 48.3184 5.36494 49.4689 6.55258C50.641 7.74021 51.2271 9.38131 51.2271 11.4758V21.4196H47.0268V11.9941C47.0268 10.9144 46.7338 10.0939 46.1477 9.53247C45.5616 8.94944 44.7802 8.65793 43.8034 8.65793C42.718 8.65793 41.8497 8.99263 41.1985 9.66202C40.5473 10.3314 40.2217 11.3355 40.2217 12.6743V21.4196H36.0215V5.22458H40.2217V7.03842C41.242 5.52689 42.8591 4.77112 45.0732 4.77112Z" fill="black"/>
<path d="M63.1616 9.24093H59.4823V15.978C59.4823 16.5395 59.6234 16.9497 59.9055 17.2089C60.1877 17.468 60.6002 17.6191 61.1428 17.6623C61.6855 17.6839 62.3584 17.6731 63.1616 17.6299V21.4196C60.2746 21.7435 58.2341 21.4735 57.0402 20.6098C55.8681 19.7461 55.282 18.2021 55.282 15.978V9.24093L52.4492 9.24092V5.22455H55.282V1.95315L59.4823 0.689941V5.22456H63.1616V9.24093Z" fill="black"/>
<path d="M70.5777 8.01007C70.9684 6.97359 71.6087 6.19623 72.4987 5.67799C73.4104 5.15975 74.4198 4.90062 75.5268 4.90063V9.56481C74.2461 9.41365 73.0957 9.67277 72.0754 10.3422C71.0769 11.0116 70.5777 12.1237 70.5777 13.6784V21.4196H66.3774V5.22452H70.5777V8.01007Z" fill="black"/>
<path fill-rule="evenodd" clip-rule="evenodd" d="M93.4171 5.22458H89.3239V7.1356C88.065 5.55928 86.2958 4.77112 84.0166 4.77112C81.8459 4.77112 79.9791 5.60246 78.4163 7.26515C76.8751 8.90625 76.1045 10.9252 76.1045 13.3221C76.1045 15.7189 76.8751 17.7487 78.4162 19.4114C79.9791 21.0525 81.8459 21.873 84.0166 21.873C86.2958 21.873 88.0649 21.0849 89.3239 19.5086V21.4196H93.4171V5.22458ZM81.264 16.6843C82.1188 17.5398 83.2038 17.9676 84.5189 17.9676C85.834 17.9676 86.919 17.5398 87.7738 16.6843C88.6506 15.8069 89.0889 14.6882 89.0889 13.3282C89.0889 11.9682 88.6506 10.8605 87.7738 10.005C86.919 9.1276 85.834 8.68888 84.5189 8.68888C83.2038 8.68888 82.1188 9.12759 81.264 10.005C80.4092 10.8605 79.9818 11.9682 79.9818 13.3282C79.9818 14.6882 80.4092 15.8069 81.264 16.6843Z" fill="black"/>
<path d="M100.223 9.82397C100.223 10.2558 100.505 10.6121 101.069 10.8928C101.656 11.1519 102.361 11.3894 103.186 11.6054C104.011 11.7997 104.836 12.0588 105.66 12.3827C106.485 12.6851 107.18 13.2033 107.744 13.9375C108.33 14.6716 108.623 15.5894 108.623 16.6906C108.623 18.3533 107.994 19.6381 106.735 20.5451C105.498 21.4304 103.946 21.873 102.079 21.873C98.736 21.873 96.4568 20.5882 95.2412 18.0186L98.8879 15.978C99.3655 17.3816 100.429 18.0834 102.079 18.0834C103.577 18.0834 104.325 17.6191 104.325 16.6906C104.325 16.2588 104.032 15.9133 103.446 15.6541C102.882 15.3734 102.187 15.1251 101.363 14.9092C100.538 14.6932 99.7128 14.4233 98.8879 14.0994C98.0631 13.7755 97.3576 13.2681 96.7715 12.5771C96.2071 11.8645 95.925 10.9792 95.925 9.92114C95.925 8.32323 96.511 7.07081 97.6832 6.16389C98.8771 5.23537 100.353 4.77112 102.111 4.77112C103.436 4.77112 104.64 5.07343 105.726 5.67804C106.811 6.26106 107.668 7.10321 108.298 8.20447L104.716 10.1479C104.195 9.04661 103.327 8.49598 102.111 8.49598C101.569 8.49598 101.113 8.61474 100.744 8.85227C100.397 9.0898 100.223 9.4137 100.223 9.82397Z" fill="black"/>
<path d="M120.16 9.24093H116.481V15.978C116.481 16.5395 116.622 16.9497 116.904 17.2089C117.186 17.468 117.599 17.6191 118.141 17.6623C118.684 17.6839 119.357 17.6731 120.16 17.6299V21.4196C117.273 21.7435 115.233 21.4735 114.039 20.6098C112.867 19.7461 112.28 18.2021 112.28 15.978V9.24093L109.448 9.24092V5.22455H112.28V1.95315L116.481 0.689941V5.22456H120.16V9.24093Z" fill="black"/>
<path fill-rule="evenodd" clip-rule="evenodd" d="M34.1246 13.3282C34.1246 8.58654 30.263 4.74268 25.4996 4.74268C20.7361 4.74268 16.8745 8.58654 16.8745 13.3282C16.8745 18.0698 20.7361 21.9137 25.4996 21.9137C30.263 21.9137 34.1246 18.0698 34.1246 13.3282ZM30.6113 13.3282C30.6113 16.1383 28.3227 18.4165 25.4996 18.4165C23.9081 18.4165 22.4866 17.6925 21.5491 16.5575L28.7438 9.39582C29.884 10.329 30.6113 11.744 30.6113 13.3282Z" fill="black"/>
</g>
</g>
</g>
<defs>
<clipPath id="clip0_2_340">
<rect width="120" height="22" fill="white" transform="translate(0.160156 0.689941)"/>
</clipPath>
<clipPath id="clip1_2_340">
<rect width="120" height="22" fill="white" transform="translate(0.160156 0.689941)"/>
</clipPath>
</defs>
</svg>
