<svg width="342" height="158" viewBox="0 0 342 158" fill="none" xmlns="http://www.w3.org/2000/svg">
<rect x="31.1636" y="19.31" width="70.2574" height="70.2591" rx="35.1287" transform="rotate(9.99999 31.1636 19.31)" fill="#F1F4FF"/>
<rect x="135.954" y="53.56" width="132.26" height="12.3996" rx="6.19979" transform="rotate(9.99999 135.954 53.56)" fill="#F1F4FF"/>
<rect x="131.647" y="77.9807" width="99.2044" height="12.3978" rx="6.19892" transform="rotate(9.99999 131.647 77.9807)" fill="#F1F4FF"/>
<g clip-path="url(#clip0_2_27)">
<rect x="283.613" y="99.57" width="33.0638" height="33.0621" rx="16.53" transform="rotate(9.99999 283.613 99.57)" fill="#F1F4FF"/>
<g clip-path="url(#clip1_2_27)">
<g clip-path="url(#clip2_2_27)">
<path d="M316.169 105.31L283.611 99.5697L277.871 132.127L310.428 137.868L316.169 105.31Z" fill="#FF7A59"/>
<path fill-rule="evenodd" clip-rule="evenodd" d="M299.197 123.467C297.936 123.245 297.092 122.053 297.312 120.806C297.532 119.558 298.733 118.726 299.994 118.949C301.255 119.171 302.098 120.363 301.878 121.611C301.658 122.858 300.458 123.69 299.197 123.467ZM301.046 116.979L301.4 114.969C301.974 114.815 302.439 114.349 302.547 113.734L302.556 113.687C302.706 112.837 302.125 112.018 301.266 111.866L301.22 111.858C300.361 111.707 299.535 112.278 299.385 113.128L299.377 113.175C299.269 113.79 299.546 114.387 300.033 114.728L299.679 116.738C298.868 116.719 298.09 116.914 297.412 117.284L292.592 112.008C292.653 111.874 292.705 111.735 292.732 111.584C292.902 110.621 292.253 109.701 291.28 109.528C290.307 109.355 289.38 109.995 289.209 110.958C289.038 111.921 289.688 112.841 290.661 113.014C290.978 113.07 291.287 113.033 291.57 112.933L296.31 118.123C295.721 118.738 295.3 119.524 295.142 120.423C294.976 121.364 295.123 122.287 295.504 123.092L293.545 124.449C293.42 124.386 293.288 124.335 293.143 124.309C292.344 124.168 291.583 124.695 291.443 125.486C291.304 126.278 291.839 127.033 292.638 127.174C293.438 127.315 294.199 126.788 294.338 125.997C294.364 125.854 294.36 125.713 294.343 125.576L296.281 124.234C296.93 124.932 297.803 125.436 298.818 125.615C301.278 126.049 303.619 124.427 304.048 121.993C304.437 119.79 303.122 117.681 301.046 116.979Z" fill="white"/>
</g>
</g>
</g>
<defs>
<clipPath id="clip0_2_27">
<rect x="283.613" y="99.57" width="33.0638" height="33.0621" rx="16.53" transform="rotate(9.99999 283.613 99.57)" fill="white"/>
</clipPath>
<clipPath id="clip1_2_27">
<rect width="33.06" height="33.0621" fill="white" transform="translate(283.613 99.57) rotate(9.99999)"/>
</clipPath>
<clipPath id="clip2_2_27">
<rect width="33.06" height="33.06" fill="white" transform="translate(283.611 99.5697) rotate(9.99999)"/>
</clipPath>
</defs>
</svg>
