<svg width="349" height="349" viewBox="0 0 349 349" fill="none" xmlns="http://www.w3.org/2000/svg">
<g clip-path="url(#clip0_2_89)">
<rect x="20.25" y="81.7666" width="33.0625" height="33.0625" rx="16.53" transform="rotate(-14 20.25 81.7666)" fill="#F1F4FF"/>
<g clip-path="url(#clip1_2_89)">
<g clip-path="url(#clip2_2_89)">
<path d="M52.327 73.769L20.249 81.7669L28.247 113.845L60.3249 105.847L52.327 73.769Z" fill="#F0F0F0"/>
<path d="M41.5368 98.8187C44.3051 98.1285 45.9896 95.3248 45.2994 92.5565C44.6092 89.7881 41.8056 88.1034 39.0373 88.7937C36.269 89.4839 34.5844 92.2876 35.2747 95.0559C35.9649 97.8242 38.7685 99.5089 41.5368 98.8187Z" fill="white"/>
<path d="M36.5711 97.396L30.3566 90.9606C29.8565 92.7038 29.8241 94.548 30.2629 96.3077C30.7016 98.0675 31.5958 99.6806 32.8557 100.985C34.1155 102.289 35.6967 103.239 37.44 103.739C39.1833 104.238 41.0275 104.27 42.7871 103.831L45.2529 95.2314L45.2526 95.2302C45.0031 96.1022 44.5284 96.893 43.8762 97.5232C43.224 98.1534 42.4173 98.6008 41.5374 98.8203C40.6575 99.0398 39.7352 99.0238 38.8634 98.7738C37.9917 98.5238 37.201 98.0485 36.5711 97.396Z" fill="#229342"/>
<path d="M45.2527 95.2312L42.7869 103.831C44.5466 103.392 46.1599 102.498 47.4644 101.238C48.769 99.9789 49.7189 98.3978 50.2186 96.6544C50.7184 94.9111 50.7503 93.067 50.3113 91.3074C49.8722 89.5478 48.9776 87.9347 47.7175 86.6305L39.0372 88.7948L39.0363 88.7958C39.9162 88.5759 40.8384 88.5917 41.7103 88.8413C42.5822 89.0911 43.3729 89.5659 44.003 90.2182C44.6331 90.8706 45.0803 91.6773 45.2997 92.5572C45.5191 93.4373 45.5028 94.3594 45.2527 95.2312Z" fill="#FBC116"/>
<path d="M41.2765 97.7757C43.4681 97.2292 44.8018 95.0097 44.2553 92.818C43.7089 90.6263 41.4893 89.2928 39.2977 89.8392C37.1062 90.3856 35.7726 92.6052 36.319 94.7968C36.8654 96.9883 39.0849 98.3221 41.2765 97.7757Z" fill="#1A73E8"/>
<path d="M39.0377 88.795L47.718 86.6307C46.4585 85.326 44.8776 84.3759 43.1342 83.8759C41.391 83.376 39.5469 83.3438 37.7872 83.7827C36.0276 84.2215 34.4146 85.1159 33.1103 86.3759C31.806 87.636 30.8563 89.2172 30.357 90.9606L36.5715 97.396L36.5729 97.3963C35.9425 96.7442 35.495 95.9376 35.2753 95.0577C35.0556 94.1778 35.0715 93.2555 35.3214 92.3837C35.5712 91.5118 36.0463 90.7211 36.6987 90.0911C37.351 89.4613 38.1576 89.0142 39.0377 88.795Z" fill="#E33B2E"/>
</g>
</g>
</g>
<rect x="166.71" y="45.2466" width="103.34" height="33.0625" rx="16.5312" transform="rotate(-14 166.71 45.2466)" fill="#95C7F3"/>
<rect x="34.2397" y="137.907" width="132.269" height="12.3984" rx="6.19921" transform="rotate(-14 34.2397 137.907)" fill="#F1F4FF"/>
<rect x="40.2388" y="161.967" width="99.2044" height="12.3984" rx="6.19921" transform="rotate(-14 40.2388 161.967)" fill="#F1F4FF"/>
<rect x="49.2397" y="198.057" width="120.943" height="62.0018" rx="12.4" transform="rotate(-14 49.2397 198.057)" fill="#F1F4FF"/>
<rect x="178.62" y="165.797" width="120.94" height="62.0018" rx="12.4" transform="rotate(-14 178.62 165.797)" fill="#F1F4FF"/>
<rect x="67.2397" y="270.247" width="120.943" height="62.0018" rx="12.4" transform="rotate(-14 67.2397 270.247)" fill="#F1F4FF"/>
<rect x="196.62" y="237.987" width="120.943" height="61.9994" rx="12.4" transform="rotate(-14 196.62 237.987)" fill="#F1F4FF"/>
<defs>
<clipPath id="clip0_2_89">
<rect x="20.25" y="81.7666" width="33.0625" height="33.0625" rx="16.53" transform="rotate(-14 20.25 81.7666)" fill="white"/>
</clipPath>
<clipPath id="clip1_2_89">
<rect width="33.06" height="33.0625" fill="white" transform="translate(20.25 81.7666) rotate(-14)"/>
</clipPath>
<clipPath id="clip2_2_89">
<rect width="33.06" height="33.06" fill="white" transform="translate(20.249 81.7669) rotate(-14)"/>
</clipPath>
</defs>
</svg>
