<svg width="219" height="219" viewBox="0 0 219 219" fill="none" xmlns="http://www.w3.org/2000/svg">
<g clip-path="url(#clip0_2_127)">
<rect x="29.687" y="17.71" width="171.606" height="33.0608" rx="16.53" transform="rotate(4 29.687 17.71)" fill="#F1F4FF"/>
<g clip-path="url(#clip1_2_127)">
<g clip-path="url(#clip2_2_127)">
<path d="M131.77 24.8483L98.7905 22.5422L96.4844 55.5216L129.464 57.8278L131.77 24.8483Z" fill="#FF4A00"/>
<path d="M116.704 40.3696C116.652 41.1129 116.466 41.8407 116.156 42.5179C115.442 42.7312 114.695 42.8139 113.951 42.7621L113.943 42.7614C113.177 42.7069 112.454 42.5157 111.795 42.2132C111.581 41.4993 111.498 40.7527 111.551 40.0093L111.551 40.0003C111.603 39.2572 111.788 38.5296 112.099 37.8524C112.813 37.6386 113.56 37.5558 114.303 37.6082L114.312 37.6088C115.055 37.6604 115.783 37.8462 116.461 38.1573C116.674 38.8711 116.757 39.6175 116.704 40.3606L116.704 40.3696ZM124.41 39.178L118.395 38.7573L122.946 34.8009C122.645 34.3085 122.303 33.8422 121.924 33.4066C121.546 32.9715 121.131 32.5684 120.686 32.2019L116.135 36.1583L116.555 30.1424C115.996 30.0077 115.427 29.9197 114.853 29.8793L114.843 29.8785C114.259 29.838 113.684 29.8477 113.12 29.9022L112.7 35.9181L108.743 31.3668C108.251 31.6676 107.785 32.0092 107.35 32.3879L107.348 32.3893C106.913 32.7675 106.51 33.1811 106.144 33.626L110.101 38.1773L104.085 37.7567C104.085 37.7567 103.862 38.8766 103.822 39.4608L103.821 39.4679C103.78 40.0521 103.79 40.6281 103.845 41.192L109.861 41.6127L105.309 45.5691C105.912 46.555 106.676 47.4335 107.568 48.1684L112.12 44.2116L111.699 50.2278C112.258 50.362 112.826 50.4499 113.399 50.4905L113.414 50.4916C113.987 50.5311 114.562 50.5232 115.134 50.468L115.555 44.4518L119.512 49.0036C120.004 48.7025 120.47 48.3611 120.905 47.9828L120.906 47.9819C121.341 47.6033 121.744 47.1892 122.11 46.744L118.154 42.1926L124.17 42.6133C124.303 42.0635 124.392 41.496 124.433 40.9131L124.434 40.8982C124.474 40.3152 124.465 39.7409 124.41 39.178Z" fill="white"/>
</g>
</g>
</g>
<rect x="24.9995" y="84.7455" width="132.26" height="12.4006" rx="6.20028" transform="rotate(4 24.9995 84.7455)" fill="#F1F4FF"/>
<rect x="23.2695" y="109.486" width="99.2044" height="12.3999" rx="6.19993" transform="rotate(4 23.2695 109.486)" fill="#F1F4FF"/>
<rect x="20.0234" y="155.91" width="171.606" height="33.0701" rx="16.535" transform="rotate(4 20.0234 155.91)" fill="#95C7F3"/>
<defs>
<clipPath id="clip0_2_127">
<rect x="29.687" y="17.71" width="171.606" height="33.0608" rx="16.53" transform="rotate(4 29.687 17.71)" fill="white"/>
</clipPath>
<clipPath id="clip1_2_127">
<rect width="33.06" height="33.0608" fill="white" transform="translate(98.791 22.5422) rotate(4)"/>
</clipPath>
<clipPath id="clip2_2_127">
<rect width="33.06" height="33.06" fill="white" transform="translate(98.7905 22.5422) rotate(4)"/>
</clipPath>
</defs>
</svg>
