<svg width="375" height="290" viewBox="0 0 375 290" fill="none" xmlns="http://www.w3.org/2000/svg">
<g filter="url(#filter0_dd_2_109)">
<g clip-path="url(#clip0_2_109)">
<rect x="68.248" y="1" width="330.679" height="165.335" rx="12.4" transform="rotate(24 68.248 1)" fill="white"/>
<g clip-path="url(#clip1_2_109)">
<rect x="141.357" y="-8.3376" width="67.2871" height="12.3913" rx="6.19564" transform="rotate(24 141.357 -8.3376)" fill="#F1F4FF"/>
<g clip-path="url(#clip2_2_109)">
<g clip-path="url(#clip3_2_109)">
<path d="M262.611 34.336L232.409 20.8893L218.962 51.0911L249.164 64.5378L262.611 34.336Z" fill="#2A2A2A"/>
<path d="M249.248 44.6386C250.201 43.584 250.676 42.1551 250.525 40.7431C250.307 38.5752 248.699 36.8106 246.567 36.3453C246.143 35.0005 245.126 33.9023 243.825 33.3227C241.827 32.4334 239.507 32.9332 238.039 34.5387C236.64 34.2384 235.191 34.5343 234.03 35.3892C232.273 36.6777 231.538 38.9322 232.203 41.003C231.24 42.0799 230.797 43.4965 230.948 44.9085C231.166 47.0763 232.764 48.8633 234.907 49.3062C235.352 50.6611 236.337 51.7717 237.639 52.3513C239.636 53.2406 241.956 52.7407 243.424 51.1353C244.823 51.4356 246.273 51.1397 247.433 50.2848C249.19 48.9963 249.935 46.7194 249.248 44.6386ZM238.168 51.1618C237.36 50.802 236.717 50.193 236.341 49.407C236.373 49.3945 236.451 49.402 236.483 49.3896L241.026 48.9112C241.255 48.8789 241.447 48.7493 241.547 48.5248L243.816 43.4302L244.952 44.985C244.975 44.995 244.965 45.0174 244.955 45.0399L243.076 49.2592C242.259 51.1545 240.053 52.0011 238.168 51.1618ZM232.241 44.7846C232.146 43.909 232.371 43.0411 232.856 42.3155C232.868 42.3479 232.903 42.3903 232.938 42.4328L235.622 46.1288C235.752 46.321 235.976 46.4209 236.206 46.3886L241.766 45.7986L240.977 47.5716C240.967 47.5941 240.957 47.6165 240.934 47.6065L236.337 48.0874C234.301 48.3106 232.464 46.8202 232.241 44.7846ZM234.815 36.4648C235.529 35.9489 236.387 35.7125 237.258 35.7505L235.339 40.0596C235.249 40.2616 235.272 40.5136 235.401 40.7057L238.683 45.2328L236.768 45.4286C236.745 45.4186 236.713 45.4311 236.723 45.4086L234.004 41.6702C232.763 39.9881 233.153 37.661 234.815 36.4648ZM246.085 44.9782L242.802 40.4512L244.718 40.2553C244.741 40.2653 244.773 40.2529 244.763 40.2753L247.482 44.0138C248.701 45.6859 248.31 48.013 246.648 49.2092C245.934 49.7251 245.076 49.9615 244.215 49.9011L246.124 45.6143C246.236 45.4224 246.214 45.1704 246.085 44.9782ZM248.608 43.3585C248.595 43.326 248.56 43.2837 248.525 43.2412L245.841 39.5452C245.712 39.353 245.487 39.2531 245.258 39.2854L239.697 39.8754L240.487 38.1024C240.497 38.0799 240.507 38.0575 240.529 38.0675L245.127 37.5865C247.185 37.3734 249 38.8538 249.213 40.9119C249.317 41.765 249.092 42.6329 248.608 43.3585ZM237.648 42.2438L236.511 40.689C236.489 40.679 236.499 40.6565 236.509 40.6341L238.387 36.4147C239.227 34.5295 241.432 33.6829 243.318 34.5222C244.126 34.8819 244.769 35.491 245.145 36.277C245.112 36.2894 245.058 36.2919 245.003 36.2944L240.46 36.7728C240.23 36.8051 240.038 36.9347 239.938 37.1591L237.67 42.2538L237.648 42.2438ZM239.277 40.818L241.762 40.5527L243.228 42.5767L242.218 44.8435L239.734 45.1088L238.268 43.0848L239.277 40.818Z" fill="white"/>
</g>
</g>
<rect x="269.735" y="48.8154" width="67.2878" height="12.4004" rx="6.20021" transform="rotate(24 269.735 48.8154)" fill="#F1F4FF"/>
<g clip-path="url(#clip4_2_109)">
<rect x="343.887" y="70.5217" width="33.0597" height="33.06" rx="16.5298" transform="rotate(24 343.887 70.5217)" fill="#F1F4FF"/>
<g clip-path="url(#clip5_2_109)">
<path d="M374.089 83.9685L343.887 70.5217L330.44 100.724L360.642 114.17L374.089 83.9685Z" fill="#2B44E7"/>
<path fill-rule="evenodd" clip-rule="evenodd" d="M361.899 96.1064C361.833 96.2529 361.76 96.3877 361.579 96.5731C361.356 96.8081 361.09 96.9958 360.796 97.1262C360.503 97.2567 360.188 97.3268 359.87 97.3314C359.551 97.3368 359.236 97.2781 358.943 97.1575C358.65 97.0369 358.384 96.8586 358.161 96.6315C357.938 96.4043 357.764 96.1336 357.646 95.8351C357.529 95.5365 357.472 95.2163 357.479 94.8932C357.483 94.7261 357.516 94.5487 357.565 94.3745C358.637 91.5803 357.343 88.4038 354.575 87.1714C351.807 85.9391 348.363 87.1833 347.09 90.0419C345.818 92.9004 347.105 96.2501 349.965 97.5235C352.468 98.6381 355.347 97.7933 356.879 95.6492C356.955 96.0091 357.078 96.3579 357.272 96.6704C357.387 96.8557 357.518 97.0452 357.634 97.1641C357.925 97.461 358.273 97.6947 358.656 97.8521C359.039 98.0096 359.452 98.0868 359.868 98.0798C359.945 98.0783 360.037 98.0672 360.138 98.049C360.462 97.9917 360.78 97.8957 361.078 97.7589C358.411 102.113 352.861 103.921 348.067 101.786C342.852 99.4635 340.506 93.3555 342.827 88.1436C345.147 82.9316 351.256 80.5881 356.472 82.9103C361.688 85.2324 363.898 90.9965 361.899 96.1064Z" fill="white"/>
</g>
</g>
</g>
<rect x="77.1279" y="24.14" width="297.61" height="130.283" rx="16.53" transform="rotate(24 77.1279 24.14)" fill="#F1F4FF"/>
</g>
<rect x="68.5015" y="1.66014" width="329.679" height="164.335" rx="11.9" transform="rotate(24 68.5015 1.66014)" stroke="#F1F4FF"/>
</g>
<defs>
<filter id="filter0_dd_2_109" x="-3" y="0" width="377.338" height="293.54" filterUnits="userSpaceOnUse" color-interpolation-filters="sRGB">
<feFlood flood-opacity="0" result="BackgroundImageFix"/>
<feColorMatrix in="SourceAlpha" type="matrix" values="0 0 0 0 0 0 0 0 0 0 0 0 0 0 0 0 0 0 127 0" result="hardAlpha"/>
<feOffset dy="1"/>
<feGaussianBlur stdDeviation="1"/>
<feComposite in2="hardAlpha" operator="out"/>
<feColorMatrix type="matrix" values="0 0 0 0 0.0901961 0 0 0 0 0.0862745 0 0 0 0 0.0941176 0 0 0 0.04 0"/>
<feBlend mode="normal" in2="BackgroundImageFix" result="effect1_dropShadow_2_109"/>
<feColorMatrix in="SourceAlpha" type="matrix" values="0 0 0 0 0 0 0 0 0 0 0 0 0 0 0 0 0 0 127 0" result="hardAlpha"/>
<feOffset dy="3"/>
<feGaussianBlur stdDeviation="2"/>
<feComposite in2="hardAlpha" operator="out"/>
<feColorMatrix type="matrix" values="0 0 0 0 0.0901961 0 0 0 0 0.0862745 0 0 0 0 0.0941176 0 0 0 0.04 0"/>
<feBlend mode="normal" in2="effect1_dropShadow_2_109" result="effect2_dropShadow_2_109"/>
<feBlend mode="normal" in="SourceGraphic" in2="effect2_dropShadow_2_109" result="shape"/>
</filter>
<clipPath id="clip0_2_109">
<rect x="68.248" y="1" width="330.679" height="165.335" rx="12.4" transform="rotate(24 68.248 1)" fill="white"/>
</clipPath>
<clipPath id="clip1_2_109">
<rect width="328.687" height="66.1376" fill="white" transform="translate(95.6479 -58.1) rotate(24)"/>
</clipPath>
<clipPath id="clip2_2_109">
<rect x="232.411" y="20.8902" width="33.0556" height="33.06" rx="16.5278" transform="rotate(24 232.411 20.8902)" fill="white"/>
</clipPath>
<clipPath id="clip3_2_109">
<rect width="33.06" height="33.06" fill="white" transform="translate(232.409 20.8893) rotate(24)"/>
</clipPath>
<clipPath id="clip4_2_109">
<rect x="343.887" y="70.5217" width="33.0597" height="33.06" rx="16.5298" transform="rotate(24 343.887 70.5217)" fill="white"/>
</clipPath>
<clipPath id="clip5_2_109">
<rect width="33.06" height="33.06" fill="white" transform="translate(343.887 70.5217) rotate(24)"/>
</clipPath>
</defs>
</svg>
