<svg width="220" height="378" viewBox="0 0 220 378" fill="none" xmlns="http://www.w3.org/2000/svg">
<g filter="url(#filter0_dd_2_38)">
<g clip-path="url(#clip0_2_38)">
<rect x="51.8982" y="1" width="165.339" height="351.348" rx="12.4" transform="rotate(8 51.8982 1)" fill="white"/>
<g clip-path="url(#clip1_2_38)">
<g clip-path="url(#clip2_2_38)">
<g clip-path="url(#clip3_2_38)">
<path d="M247.916 -20.5289L215.178 -25.13L210.577 7.60826L243.315 12.2093L247.916 -20.5289Z" fill="#1ED760"/>
</g>
</g>
</g>
<g clip-path="url(#clip4_2_38)">
<rect x="66.8184" y="20.8" width="130.277" height="33.0616" rx="16.53" transform="rotate(8 66.8184 20.8)" fill="#F1F4FF"/>
<g clip-path="url(#clip5_2_38)">
<g clip-path="url(#clip6_2_38)">
<path d="M147.691 32.1659L114.953 27.5648L110.352 60.3031L143.09 64.9041L147.691 32.1659Z" fill="#0057FF"/>
<path d="M135.265 47.976C135.244 48.1306 135.162 48.2704 135.038 48.3644C134.914 48.4585 134.758 48.4993 134.605 48.4778C134.452 48.4562 134.313 48.374 134.22 48.2495C134.127 48.1249 134.087 47.968 134.108 47.8134L134.84 42.6049C134.862 42.4503 134.944 42.3106 135.068 42.2165C135.192 42.1224 135.347 42.0817 135.501 42.1033C135.654 42.1248 135.793 42.2069 135.886 42.3315C135.979 42.4561 136.019 42.6129 135.997 42.7676L135.265 47.976ZM134.557 51.5566C134.47 51.623 132.065 53.1274 128.121 52.5731C124.177 52.0188 122.292 49.9213 122.212 49.8314C122.162 49.7747 122.123 49.7086 122.098 49.6367C122.073 49.5648 122.063 49.4886 122.067 49.4125C122.071 49.3365 122.091 49.262 122.124 49.1933C122.156 49.1247 122.203 49.0633 122.259 49.0125C122.375 48.9102 122.527 48.8581 122.681 48.8678C122.835 48.8774 122.978 48.9481 123.081 49.0641C123.111 49.093 124.812 50.9337 128.278 51.4208C131.744 51.908 133.902 50.5997 133.923 50.588C134.055 50.5056 134.213 50.4781 134.364 50.5113C134.515 50.5444 134.647 50.6356 134.732 50.7655C134.813 50.8939 134.841 51.0497 134.809 51.1987C134.777 51.3479 134.688 51.4785 134.562 51.5621L134.557 51.5566ZM123.247 40.9756C123.278 40.8218 123.367 40.6861 123.497 40.5984C123.626 40.5107 123.784 40.478 123.937 40.5075C124.079 40.5358 124.205 40.6158 124.291 40.7323C124.377 40.8487 124.418 40.9934 124.404 41.1382L123.674 46.3371C123.652 46.4917 123.57 46.6314 123.446 46.7255C123.322 46.8196 123.167 46.8603 123.013 46.8388C122.86 46.8172 122.721 46.7351 122.628 46.6105C122.535 46.4859 122.495 46.3291 122.517 46.1745L123.247 40.9756ZM126.312 40.2271C126.342 40.0732 126.432 39.9376 126.561 39.8499C126.69 39.7622 126.849 39.7295 127.001 39.759C127.143 39.7872 127.269 39.8673 127.355 39.9837C127.442 40.1002 127.482 40.2448 127.469 40.3897L126.385 48.0988C126.363 48.2534 126.282 48.3931 126.158 48.4872C126.034 48.5813 125.878 48.622 125.725 48.6004C125.571 48.5789 125.433 48.4968 125.34 48.3722C125.247 48.2477 125.206 48.0908 125.228 47.9362L126.312 40.2271ZM129.269 40.3479C129.29 40.1932 129.372 40.0535 129.496 39.9594C129.62 39.8654 129.776 39.8246 129.929 39.8462C130.082 39.8677 130.221 39.9498 130.314 40.0744C130.407 40.199 130.447 40.3558 130.425 40.5105L129.247 48.8941C129.225 49.0487 129.144 49.1884 129.02 49.2826C128.896 49.3766 128.74 49.4173 128.587 49.3958C128.433 49.3742 128.295 49.2922 128.202 49.1676C128.109 49.0429 128.069 48.8861 128.09 48.7315L129.269 40.3479ZM132.096 41.0401C132.118 40.8855 132.2 40.7458 132.324 40.6516C132.448 40.5576 132.603 40.5168 132.757 40.5384C132.91 40.5599 133.049 40.642 133.142 40.7666C133.235 40.8912 133.275 41.0481 133.253 41.2027L132.17 48.9118C132.148 49.0664 132.066 49.2061 131.942 49.3002C131.819 49.3943 131.663 49.435 131.509 49.4134C131.356 49.3919 131.218 49.3098 131.124 49.1852C131.031 49.0607 130.991 48.9038 131.013 48.7492L132.096 41.0401ZM136.765 38.4534L123.723 36.6205C123.439 36.5786 123.149 36.5936 122.871 36.6646C122.593 36.7356 122.331 36.8612 122.1 37.0343C121.87 37.2072 121.676 37.4242 121.529 37.6728C121.381 37.9214 121.284 38.1967 121.243 38.4829L119.415 51.492C119.376 51.7786 119.393 52.07 119.466 52.3495C119.539 52.629 119.666 52.8912 119.84 53.121C120.013 53.3508 120.23 53.5437 120.478 53.6887C120.727 53.8337 121.001 53.9278 121.285 53.9659L134.327 55.7988C134.61 55.8406 134.899 55.8257 135.177 55.7549C135.455 55.6842 135.717 55.559 135.947 55.3865C136.177 55.214 136.372 54.9976 136.519 54.7495C136.667 54.5016 136.764 54.2268 136.806 53.9412L138.635 40.9272C138.674 40.6411 138.657 40.3501 138.584 40.0709C138.511 39.7918 138.385 39.5299 138.211 39.3002C138.038 39.0706 137.822 38.8776 137.574 38.7324C137.327 38.5873 137.053 38.4927 136.769 38.4541" fill="white"/>
</g>
</g>
</g>
<rect x="59.3362" y="74.0384" width="130.277" height="12.3914" rx="6.19568" transform="rotate(8 59.3362 74.0384)" fill="#F1F4FF"/>
<rect x="55.886" y="98.5883" width="99.2044" height="12.4013" rx="6.20063" transform="rotate(8 55.886 98.5883)" fill="#F1F4FF"/>
<rect x="51.2791" y="131.367" width="58.9446" height="62.0021" rx="12.4" transform="rotate(8 51.2791 131.367)" fill="#F1F4FF"/>
<rect x="121.929" y="141.297" width="58.9333" height="62.0035" rx="12.4" transform="rotate(8 121.929 141.297)" fill="#F1F4FF"/>
<rect x="40.929" y="205.047" width="58.9333" height="61.9936" rx="12.4" transform="rotate(8 40.929 205.047)" fill="#F1F4FF"/>
<rect x="111.569" y="214.977" width="58.9432" height="61.9936" rx="12.4" transform="rotate(8 111.569 214.977)" fill="#F1F4FF"/>
<rect x="27.4009" y="301.269" width="130.278" height="33.0616" rx="16.5308" transform="rotate(8 27.4009 301.269)" fill="#95C7F3"/>
</g>
<rect x="52.3237" y="1.56472" width="164.339" height="350.348" rx="11.9" transform="rotate(8 52.3237 1.56472)" stroke="#F1F4FF"/>
</g>
<defs>
<filter id="filter0_dd_2_38" x="-1" y="0" width="220.628" height="378.94" filterUnits="userSpaceOnUse" color-interpolation-filters="sRGB">
<feFlood flood-opacity="0" result="BackgroundImageFix"/>
<feColorMatrix in="SourceAlpha" type="matrix" values="0 0 0 0 0 0 0 0 0 0 0 0 0 0 0 0 0 0 127 0" result="hardAlpha"/>
<feOffset dy="1"/>
<feGaussianBlur stdDeviation="1"/>
<feComposite in2="hardAlpha" operator="out"/>
<feColorMatrix type="matrix" values="0 0 0 0 0.0901961 0 0 0 0 0.0862745 0 0 0 0 0.0941176 0 0 0 0.04 0"/>
<feBlend mode="normal" in2="BackgroundImageFix" result="effect1_dropShadow_2_38"/>
<feColorMatrix in="SourceAlpha" type="matrix" values="0 0 0 0 0 0 0 0 0 0 0 0 0 0 0 0 0 0 127 0" result="hardAlpha"/>
<feOffset dy="3"/>
<feGaussianBlur stdDeviation="2"/>
<feComposite in2="hardAlpha" operator="out"/>
<feColorMatrix type="matrix" values="0 0 0 0 0.0901961 0 0 0 0 0.0862745 0 0 0 0 0.0941176 0 0 0 0.04 0"/>
<feBlend mode="normal" in2="effect1_dropShadow_2_38" result="effect2_dropShadow_2_38"/>
<feBlend mode="normal" in="SourceGraphic" in2="effect2_dropShadow_2_38" result="shape"/>
</filter>
<clipPath id="clip0_2_38">
<rect x="51.8982" y="1" width="165.339" height="351.348" rx="12.4" transform="rotate(8 51.8982 1)" fill="white"/>
</clipPath>
<clipPath id="clip1_2_38">
<rect width="163.329" height="66.1344" fill="white" transform="translate(61.9583 -63.36) rotate(8)"/>
</clipPath>
<clipPath id="clip2_2_38">
<rect x="215.178" y="-25.13" width="33.0616" height="33.0616" rx="16.53" transform="rotate(8 215.178 -25.13)" fill="white"/>
</clipPath>
<clipPath id="clip3_2_38">
<rect width="33.06" height="33.06" fill="white" transform="translate(215.178 -25.13) rotate(8)"/>
</clipPath>
<clipPath id="clip4_2_38">
<rect x="66.8184" y="20.8" width="130.277" height="33.0616" rx="16.53" transform="rotate(8 66.8184 20.8)" fill="white"/>
</clipPath>
<clipPath id="clip5_2_38">
<rect width="33.06" height="33.0616" fill="white" transform="translate(114.953 27.5649) rotate(8)"/>
</clipPath>
<clipPath id="clip6_2_38">
<rect width="33.06" height="33.06" fill="white" transform="translate(114.953 27.5648) rotate(8)"/>
</clipPath>
</defs>
</svg>
