<svg width="343" height="159" viewBox="0 0 343 159" fill="none" xmlns="http://www.w3.org/2000/svg">
<rect x="19.3098" y="71.6408" width="71.2672" height="70.2672" rx="35.1336" transform="rotate(-9.99999 19.3098 71.6408)" fill="#F1F4FF"/>
<rect x="129.5" y="67.9908" width="132.273" height="12.3978" rx="6.19892" transform="rotate(-9.99999 129.5 67.9908)" fill="#F1F4FF"/>
<rect x="133.806" y="92.4098" width="99.2044" height="12.3978" rx="6.19892" transform="rotate(-9.99999 133.806 92.4098)" fill="#F1F4FF"/>
<g clip-path="url(#clip0_2_147)">
<rect x="283.99" y="60.7208" width="34.0621" height="33.0719" rx="16.53" transform="rotate(-9.99999 283.99 60.7208)" fill="#F1F4FF"/>
<g clip-path="url(#clip1_2_147)">
<g clip-path="url(#clip2_2_147)">
<path d="M317.039 54.8933L284.481 60.6341L290.222 93.1919L322.78 87.4511L317.039 54.8933Z" fill="#611F69"/>
<path d="M299.019 77.2087C299.195 78.2087 298.522 79.1696 297.522 79.346C296.522 79.5223 295.561 78.8494 295.385 77.8494C295.208 76.8494 295.881 75.8885 296.881 75.7121L298.698 75.3917L299.019 77.2087Z" fill="#E01E5A"/>
<path d="M299.934 77.0472C299.758 76.0472 300.431 75.0863 301.431 74.9099C302.431 74.7336 303.392 75.4065 303.568 76.4065L304.37 80.9559C304.547 81.9559 303.874 82.9168 302.874 83.0932C301.874 83.2695 300.913 82.5966 300.737 81.5966L299.934 77.0472Z" fill="#E01E5A"/>
<path d="M300.465 69.4306C299.465 69.607 298.504 68.9341 298.327 67.9341C298.151 66.9341 298.824 65.9731 299.824 65.7968C300.824 65.6204 301.785 66.2933 301.961 67.2933L302.282 69.1103L300.465 69.4306Z" fill="#36C5F0"/>
<path d="M300.626 70.3459C301.626 70.1696 302.587 70.8424 302.763 71.8425C302.94 72.8425 302.267 73.8034 301.267 73.9798L296.717 74.7819C295.717 74.9583 294.756 74.2854 294.58 73.2854C294.404 72.2854 295.077 71.3244 296.077 71.1481L300.626 70.3459Z" fill="#36C5F0"/>
<path d="M308.242 70.8763C308.066 69.8763 308.739 68.9154 309.739 68.739C310.739 68.5627 311.7 69.2356 311.876 70.2356C312.053 71.2356 311.38 72.1966 310.38 72.3729L308.563 72.6933L308.242 70.8763Z" fill="#2EB67D"/>
<path d="M307.327 71.0381C307.503 72.0381 306.83 72.999 305.83 73.1754C304.83 73.3517 303.869 72.6788 303.693 71.6788L302.891 67.1294C302.715 66.1294 303.387 65.1685 304.387 64.9921C305.388 64.8158 306.348 65.4886 306.525 66.4887L307.327 71.0381Z" fill="#2EB67D"/>
<path d="M306.797 78.6544C307.797 78.478 308.758 79.1509 308.934 80.151C309.11 81.1509 308.437 82.1119 307.437 82.2883C306.437 82.4646 305.476 81.7917 305.3 80.7917L304.98 78.9747L306.797 78.6544Z" fill="#ECB22E"/>
<path d="M306.635 77.7391C305.635 77.9155 304.674 77.2426 304.498 76.2426C304.322 75.2426 304.994 74.2816 305.994 74.1053L310.544 73.3031C311.544 73.1268 312.505 73.7996 312.681 74.7996C312.858 75.7996 312.185 76.7606 311.185 76.937L306.635 77.7391Z" fill="#ECB22E"/>
</g>
</g>
</g>
<defs>
<clipPath id="clip0_2_147">
<rect x="283.99" y="60.7208" width="34.0621" height="33.0719" rx="16.53" transform="rotate(-9.99999 283.99 60.7208)" fill="white"/>
</clipPath>
<clipPath id="clip1_2_147">
<rect width="33.06" height="33.0719" fill="white" transform="translate(284.482 60.6339) rotate(-9.99999)"/>
</clipPath>
<clipPath id="clip2_2_147">
<rect width="33.06" height="33.06" fill="white" transform="translate(284.481 60.6341) rotate(-9.99999)"/>
</clipPath>
</defs>
</svg>
