<svg width="101" height="29" viewBox="0 0 101 29" fill="none" xmlns="http://www.w3.org/2000/svg">
<g clip-path="url(#clip0_2_251)">
<g clip-path="url(#clip1_2_251)">
<mask id="mask0_2_251" style="mask-type:luminance" maskUnits="userSpaceOnUse" x="0" y="0" width="101" height="29">
<path d="M100.53 0.859985H0.530273V28.0183H100.53V0.859985Z" fill="white"/>
</mask>
<g mask="url(#mask0_2_251)">
<path fill-rule="evenodd" clip-rule="evenodd" d="M73.7481 6.27193C73.3432 6.67668 72.9799 7.12088 72.6636 7.59795C72.3472 7.12088 71.9841 6.67668 71.5792 6.27193C70.7819 5.47448 69.8353 4.84193 68.7934 4.4104C67.7517 3.97887 66.635 3.75685 65.5073 3.75696H47.6623V5.93991C46.0893 4.5341 44.0535 3.757 41.9438 3.75696H32.6857C30.4084 3.75696 28.2244 4.66162 26.6139 6.27193C26.2091 6.67668 25.8459 7.12088 25.5296 7.59795C25.2132 7.12088 24.8499 6.67668 24.445 6.27193C22.8348 4.66162 20.6506 3.75696 18.3732 3.75696H0.530273V27.8721H18.3753C19.503 27.8721 20.6197 27.65 21.6616 27.2184C22.7033 26.7865 23.6499 26.1538 24.4472 25.3561C24.8524 24.9518 25.2157 24.5076 25.5316 24.0301C25.8474 24.5076 26.2107 24.9518 26.6159 25.3561C27.4132 26.1538 28.3596 26.7865 29.4015 27.2184C30.4434 27.65 31.5602 27.8721 32.6879 27.8721H41.9459C44.0557 27.8721 46.0913 27.095 47.6645 25.6892V27.8721H62.312V23.2462H65.5094C66.6371 23.2464 67.7537 23.0243 68.7956 22.5928C69.8373 22.1613 70.7839 21.5288 71.5812 20.7313C71.6916 20.6209 71.7985 20.5083 71.9021 20.3932H77.1272V27.8721H91.7747V20.3932H97.6639V3.75696H79.819C78.6914 3.75687 77.5749 3.97892 76.5332 4.41045C75.4916 4.84198 74.5452 5.47452 73.7481 6.27193Z" fill="black" fill-opacity="0.25"/>
<path d="M21.2386 2.32532H4.8252V23.5772H21.2386C23.1364 23.577 24.9567 22.8232 26.2992 21.4817C27.6407 20.1392 28.3945 18.3191 28.3948 16.4212V9.48138C28.3947 7.58377 27.6409 5.76388 26.2992 4.42197C25.6346 3.7573 24.8457 3.23005 23.9774 2.8703C23.1091 2.51055 22.1785 2.32537 21.2386 2.32532Z" fill="white"/>
<path fill-rule="evenodd" clip-rule="evenodd" d="M3.39355 0.893677H21.2386C23.5159 0.893678 25.7001 1.79834 27.3105 3.40867C28.9208 5.01897 29.8254 7.20304 29.8254 9.48036V16.4212C29.8254 18.6985 28.9208 20.8825 27.3105 22.4928C25.7001 24.1032 23.5159 25.0079 21.2386 25.0079H3.39355V0.893677ZM6.25587 3.75593V22.1457H21.2386C21.9904 22.1457 22.7348 21.9976 23.4294 21.7101C24.124 21.4225 24.7551 21.0009 25.2868 20.4692C25.8184 19.9378 26.24 19.3066 26.5276 18.612C26.8154 17.9174 26.9632 17.173 26.9632 16.4212V9.48138C26.9628 7.96318 26.36 6.50716 25.2868 5.43325C24.7551 4.9017 24.124 4.48007 23.4294 4.19244C22.7348 3.90482 21.9904 3.75685 21.2386 3.75694L6.25587 3.75593Z" fill="black"/>
<path fill-rule="evenodd" clip-rule="evenodd" d="M18.0459 18.307V8.86438H20.9082V18.307H18.0459Z" fill="black"/>
<path d="M68.3742 2.32532H51.96V23.5772H63.7452V18.9515H68.3742C70.2719 18.9513 72.0918 18.1975 73.4337 16.8558C74.7756 15.5139 75.5294 13.694 75.5294 11.7964V9.48138C75.5294 7.58377 74.7756 5.76388 73.4337 4.42197C72.7695 3.75724 71.9808 3.22996 71.1127 2.87019C70.2445 2.51044 69.3139 2.32528 68.3742 2.32532Z" fill="white"/>
<path fill-rule="evenodd" clip-rule="evenodd" d="M50.5283 0.893677H68.3733C70.6508 0.893678 72.8348 1.79834 74.4453 3.40867C76.0557 5.01897 76.9604 7.20304 76.9604 9.48036V11.7964C76.9604 14.0737 76.0557 16.2577 74.4453 17.868C72.8348 19.4784 70.6508 20.3831 68.3733 20.3831H65.1749V25.0079H50.5283V0.893677ZM53.3908 3.75593V22.1457H62.3127V17.5208H68.3733C69.8917 17.5205 71.3476 16.9176 72.4217 15.8445C73.4947 14.7705 74.0978 13.3145 74.0979 11.7964V9.48138C74.0978 7.96318 73.4947 6.50716 72.4217 5.43325C71.3476 4.36012 69.8917 3.75721 68.3733 3.75694L53.3908 3.75593Z" fill="black"/>
<path fill-rule="evenodd" clip-rule="evenodd" d="M65.1865 14.6423V8.86096H68.0499V14.6423H65.1865Z" fill="black"/>
<path d="M44.8108 2.32532H35.5527C34.6131 2.32515 33.6826 2.51014 32.8146 2.86973C31.9464 3.22931 31.1576 3.75642 30.4932 4.42095C29.8286 5.08527 29.3016 5.87403 28.9419 6.74214C28.5824 7.61027 28.3973 8.54073 28.3975 9.48037V16.4212C28.3975 17.361 28.5826 18.2916 28.9421 19.1599C29.3016 20.0281 29.8288 20.8171 30.4932 21.4817C31.8353 22.8234 33.655 23.5772 35.5527 23.5772H44.8108C46.7088 23.577 48.529 22.8232 49.8714 21.4817C51.2131 20.1392 51.9669 18.3191 51.9671 16.4212V9.48138C51.9671 7.58377 51.2131 5.76388 49.8714 4.42198C49.2068 3.75732 48.418 3.23005 47.5496 2.8703C46.6815 2.51055 45.7507 2.32537 44.8108 2.32532Z" fill="white"/>
<path fill-rule="evenodd" clip-rule="evenodd" d="M29.479 3.40867C31.0892 1.79834 33.2734 0.893678 35.5507 0.893677H44.8108C47.0883 0.893678 49.2723 1.79834 50.8828 3.40867C52.4932 5.01897 53.3979 7.20304 53.3979 9.48036V16.4212C53.3979 18.6985 52.4932 20.8825 50.8828 22.4928C49.2723 24.1032 47.0883 25.0079 44.8108 25.0079H35.5527C33.2754 25.0079 31.0914 24.1032 29.481 22.4928C27.8705 20.8825 26.9658 18.6985 26.9658 16.4212V9.48138C26.9655 8.35372 27.1873 7.23705 27.6184 6.19509C28.0497 5.15313 28.6819 4.20629 29.479 3.40867ZM35.5507 3.75593C34.0326 3.75618 32.5765 4.3591 31.5025 5.43223C30.4293 6.50617 29.8265 7.96215 29.8261 9.48036V16.4212C29.8261 17.173 29.9741 17.9174 30.2617 18.612C30.5493 19.3066 30.9711 19.9378 31.5025 20.4692C32.5765 21.5424 34.0326 22.1453 35.5507 22.1457H44.8108C46.3292 22.1457 47.7853 21.5426 48.8592 20.4692C49.3907 19.9378 49.8122 19.3066 50.1 18.612C50.3876 17.9174 50.5356 17.173 50.5354 16.4212V9.48138C50.5353 7.96318 49.9322 6.50716 48.8592 5.43325C48.3275 4.9017 47.6964 4.48007 47.0018 4.19244C46.3072 3.90482 45.5626 3.75685 44.8108 3.75694L35.5507 3.75593Z" fill="black"/>
<path fill-rule="evenodd" clip-rule="evenodd" d="M38.7442 8.86438V18.307H35.8818V8.86438H38.7442Z" fill="black"/>
<path d="M99.0991 2.32532H82.6827C81.7429 2.32515 80.8124 2.51014 79.9444 2.86973C79.0762 3.22931 78.2874 3.75642 77.623 4.42095C76.9584 5.08521 76.4311 5.87394 76.0714 6.74207C75.7115 7.61018 75.5264 8.54066 75.5264 9.48037V16.0983H81.4154V23.5772H93.2007V16.0983H99.0899L99.0991 2.32532Z" fill="white"/>
<path fill-rule="evenodd" clip-rule="evenodd" d="M76.6133 3.40867C78.2238 1.79834 80.4079 0.893678 82.6853 0.893677H100.53V17.5289H94.6412V25.0079H79.9936V17.5289H74.1045V9.48138C74.1025 7.20456 75.0051 5.02021 76.6133 3.40867ZM82.6853 3.75593C81.9335 3.75584 81.1891 3.90381 80.4945 4.19144C79.7998 4.47906 79.1687 4.90068 78.6371 5.43223C77.5639 6.50617 76.961 7.96215 76.9606 9.48036V14.6667H82.8497V22.1457H91.7727V14.6667H97.6619V3.75593H82.6853Z" fill="black"/>
</g>
</g>
</g>
<defs>
<clipPath id="clip0_2_251">
<rect width="100" height="28" fill="white" transform="translate(0.530273 0.859985)"/>
</clipPath>
<clipPath id="clip1_2_251">
<rect width="100" height="28" fill="white" transform="translate(0.530273 0.859985)"/>
</clipPath>
</defs>
</svg>
