<svg width="107" height="28" viewBox="0 0 107 28" fill="none" xmlns="http://www.w3.org/2000/svg">
<g clip-path="url(#clip0_2_354)">
<g clip-path="url(#clip1_2_354)">
<mask id="mask0_2_354" style="mask-type:luminance" maskUnits="userSpaceOnUse" x="0" y="1" width="107" height="26">
<path d="M106.84 1.10596H0.839844V26.8631H106.84V1.10596Z" fill="white"/>
</mask>
<g mask="url(#mask0_2_354)">
<path d="M72.7676 22.5575C74.0434 22.5575 74.8775 19.4139 75.4827 16.9054C75.9244 15.0723 76.3823 13.0462 77.0938 11.5668C78.0996 9.45233 79.3918 8.35889 81.4036 8.35889C82.8675 8.35889 84.4785 8.91365 85.6888 11.5427C86.3758 13.0221 86.7765 14.8954 87.1772 16.7044C87.807 19.5586 88.1422 22.6862 89.5407 22.6862C90.9391 22.6862 91.2743 19.5828 91.9041 16.7044C92.3048 14.8954 92.6973 13.0221 93.3925 11.5427C94.6028 8.91365 96.2384 8.35889 97.6777 8.35889C99.7059 8.35889 100.982 9.42821 101.988 11.5668C102.699 13.0703 103.158 15.0723 103.598 16.9054C104.204 19.43 105.038 22.5575 106.314 22.5575V25.9907C104.409 25.9907 102.904 25.0661 101.857 22.9033C101.129 21.3596 100.646 19.5506 100.204 17.6853C99.5341 14.8874 99.0925 11.6312 97.6777 11.6312C96.2793 11.6312 95.944 14.4451 95.3143 17.3074C94.9136 19.1164 94.521 21.3355 93.8259 22.8149C92.6156 25.4439 91.1517 25.9987 89.5407 25.9987C87.9296 25.9987 86.4657 25.4439 85.2554 22.8149C84.5684 21.3355 84.1677 19.1164 83.767 17.3074C83.1373 14.4532 82.802 11.6312 81.4036 11.6312C80.0052 11.6312 79.539 14.9114 78.8766 17.6853C78.4186 19.5586 77.9606 21.3837 77.2247 22.9033C76.1779 25.0821 74.6732 25.9907 72.7676 25.9907" fill="black"/>
<path d="M52.2391 16.7522C52.0756 11.6708 48.2646 8.22168 43.6441 8.22168C38.7946 8.22168 34.7383 11.7995 34.7383 17.1622C34.7383 22.5249 38.8191 26.0464 43.4969 26.0464C46.8662 26.0464 49.6222 24.6716 51.2088 21.8977C51.4786 21.4234 51.773 20.6837 51.8793 20.3139H48.4282C47.2179 22.4686 45.3533 22.9832 43.5133 22.9832C40.9863 22.9832 38.6637 21.1099 38.3285 17.9903H52.231V16.7602L52.2391 16.7522ZM38.4838 15.1682C39.1544 12.6437 41.477 11.3412 43.6278 11.3412C45.7786 11.3412 47.8067 12.5955 48.4364 15.1682H38.4838Z" fill="black"/>
<path d="M71.9969 16.7522C71.8334 11.6708 68.0225 8.22168 63.4019 8.22168C58.5524 8.22168 54.4961 11.7995 54.4961 17.1622C54.4961 22.5249 58.5769 26.0464 63.2547 26.0464C66.624 26.0464 69.38 24.6716 70.9666 21.8977C71.2364 21.4234 71.5308 20.6837 71.6371 20.3139H68.1861C66.9757 22.4686 65.1111 22.9832 63.2711 22.9832C60.7441 22.9832 58.4216 21.1099 58.0863 17.9903H71.9888V16.7602L71.9969 16.7522ZM58.2416 15.1682C58.9123 12.6437 61.2348 11.3412 63.3856 11.3412C65.5364 11.3412 67.5646 12.5955 68.1942 15.1682H58.2416Z" fill="black"/>
<path d="M15.5519 1.10596V10.6414C13.9655 9.04148 11.8964 8.23749 9.34492 8.23749C7.04691 8.23749 5.05967 9.08168 3.36683 10.7459C1.674 12.4344 0.839844 14.573 0.839844 17.1378C0.839844 19.7025 1.674 21.8493 3.36683 23.5296C5.04331 25.218 7.04691 26.0381 9.34492 26.0381C11.8718 26.0381 13.9409 25.2342 15.5519 23.6502V26.0381H19.1666V1.10596H15.5519ZM13.8346 21.2945C12.7061 22.3638 11.3894 22.8944 9.90102 22.8944C8.31449 22.9186 6.99785 22.3799 5.92653 21.3347C4.85522 20.2895 4.34001 18.8905 4.34001 17.1378C4.34001 15.385 4.8634 14.0343 5.92653 12.965C6.98966 11.8957 8.30632 11.3651 9.90102 11.3651C11.4057 11.3651 12.7061 11.8957 13.8346 12.965C14.9632 14.0343 15.5274 15.4333 15.5274 17.1136C15.5274 18.794 14.9632 20.2172 13.8346 21.2865V21.2945Z" fill="black"/>
<path d="M33.0799 8.92087C30.0868 8.92087 28.0178 9.96606 26.8483 11.7992V9.08971H23.25V26.0381H26.8483V19.4774C26.8483 14.9107 28.811 12.4263 33.039 12.4263H33.5787V8.92891C33.4316 8.90479 33.268 8.90479 33.0799 8.90479V8.92087Z" fill="black"/>
</g>
</g>
</g>
<defs>
<clipPath id="clip0_2_354">
<rect width="106" height="27" fill="white" transform="translate(0.839844 0.189941)"/>
</clipPath>
<clipPath id="clip1_2_354">
<rect width="106" height="27" fill="white" transform="translate(0.839844 0.189941)"/>
</clipPath>
</defs>
</svg>
