<svg width="123" height="37" viewBox="0 0 123 37" fill="none" xmlns="http://www.w3.org/2000/svg">
<g clip-path="url(#clip0_2_283)">
<g clip-path="url(#clip1_2_283)">
<mask id="mask0_2_283" style="mask-type:luminance" maskUnits="userSpaceOnUse" x="0" y="1" width="123" height="35">
<path d="M122.78 1.40674H0.780029V35.9734H122.78V1.40674Z" fill="white"/>
</mask>
<g mask="url(#mask0_2_283)">
<path fill-rule="evenodd" clip-rule="evenodd" d="M36.8307 1.48486V28.0364H29.7789V1.48486H36.8307ZM28.2035 11.7931V28.0364H0.780029V17.6986L14.4917 11.7931V17.6986L28.2035 11.7931Z" fill="black"/>
<path d="M48.4194 28.0362V16.1259H51.8182V12.406H48.4194V10.3177C48.4194 8.81663 49.1275 8.06612 50.5437 8.06612C51.0666 8.06612 51.6548 8.15313 52.3084 8.32717V4.70513C51.4369 4.46584 50.5328 4.34619 49.5959 4.34619C47.7658 4.34619 46.3715 4.83022 45.4129 5.79827C44.4542 6.76632 43.9749 8.17489 43.9749 10.024V12.406H41.7527V16.1259H43.9749V28.0362H48.4194ZM59.6643 28.5583C61.8212 28.5583 63.5206 27.7317 64.7624 26.0784H64.8931V28.0362H69.1416V12.406H64.8931V14.4291H64.7624C63.6513 12.7976 62.0608 11.9818 59.9911 11.9818C57.9213 11.9818 56.162 12.7432 54.7132 14.266C53.2644 15.7887 52.5399 17.7684 52.5399 20.2048C52.5399 21.6188 52.7633 22.8805 53.2099 23.99C53.6565 25.0994 54.2448 25.975 54.9746 26.6168C55.7045 27.2585 56.467 27.7425 57.2623 28.0689C58.0575 28.3952 58.8582 28.5583 59.6643 28.5583ZM60.6911 24.7405C59.2924 24.7405 58.2137 24.3 57.455 23.4189C56.6964 22.5379 56.317 21.4774 56.317 20.2374C56.317 19.0192 56.7023 17.9641 57.4728 17.0722C58.2433 16.1803 59.3279 15.7344 60.7267 15.7344C61.9358 15.7344 62.9433 16.1531 63.7494 16.9906C64.5555 17.8282 64.9585 18.9213 64.9585 20.2701C64.9585 21.5535 64.5377 22.6195 63.6961 23.4679C62.8544 24.3163 61.8528 24.7405 60.6911 24.7405ZM79.9251 28.5583C81.9077 28.5583 83.6343 27.7969 85.1049 26.2742C86.5756 24.7514 87.3109 22.7609 87.3109 20.3027C87.3109 18.9322 87.0875 17.6922 86.6409 16.5828C86.1943 15.4733 85.6169 14.5977 84.9089 13.956C84.2008 13.3142 83.4437 12.8248 82.6376 12.4876C81.8314 12.1504 81.0362 11.9818 80.2519 11.9818C78.2039 11.9818 76.4828 12.7432 75.0884 14.266H74.9577V4.54198H70.7092V28.0362H75.023V26.3068H75.1538C76.3085 27.8078 77.8989 28.5583 79.9251 28.5583ZM79.0045 24.8058C77.8622 24.8058 76.8913 24.3816 76.0917 23.5332C75.2921 22.6847 74.8923 21.6079 74.8923 20.3027C74.8923 18.9757 75.2864 17.8934 76.0746 17.0559C76.8628 16.2184 77.828 15.7996 78.9703 15.7996C80.341 15.7996 81.3919 16.2347 82.1229 17.1049C82.854 17.975 83.2195 19.041 83.2195 20.3027C83.2195 21.4992 82.8483 22.5488 82.1058 23.4516C81.3633 24.3544 80.3296 24.8058 79.0045 24.8058ZM92.8891 28.0362V20.4332C92.8891 19.0192 93.2213 17.9261 93.8858 17.1538C94.5503 16.3815 95.5253 15.9954 96.8107 15.9954C97.4643 15.9954 98.1615 16.0607 98.9022 16.1912V12.0797C98.5319 11.9927 98.0525 11.9492 97.4643 11.9492C96.4839 11.9492 95.5906 12.2211 94.7845 12.7649C93.9784 13.3088 93.3466 13.994 92.8891 14.8207H92.791V12.406H88.4772V28.0362H92.8891ZM104.688 28.0362V12.406H100.276V28.0362H104.688ZM122.781 35.7045V12.406H118.467V14.2007H118.336C117.16 12.6562 115.591 11.8839 113.63 11.8839C111.561 11.8839 109.801 12.6616 108.352 14.217C106.904 15.7724 106.179 17.7684 106.179 20.2048C106.179 21.6188 106.408 22.8805 106.865 23.99C107.323 25.0994 107.911 25.975 108.63 26.6168C109.349 27.2585 110.112 27.748 110.918 28.0852C111.724 28.4224 112.519 28.591 113.303 28.591C115.417 28.591 117.116 27.8404 118.402 26.3394H118.532V35.7045H122.781ZM114.048 15.6365C115.214 15.6365 116.184 16.0715 116.961 16.9417C117.738 17.8119 118.126 18.9213 118.126 20.2701C118.126 21.5535 117.721 22.6249 116.91 23.4842C116.099 24.3435 115.134 24.7731 114.014 24.7731C112.666 24.7731 111.627 24.3272 110.896 23.4353C110.165 22.5433 109.799 21.4774 109.799 20.2374C109.799 18.9974 110.165 17.9206 110.896 17.007C111.65 16.0933 112.701 15.6365 114.048 15.6365ZM104.819 4.93355V9.14294H100.178V4.93355H104.819Z" fill="black"/>
</g>
</g>
</g>
<defs>
<clipPath id="clip0_2_283">
<rect width="122" height="36" fill="white" transform="translate(0.780029 0.689941)"/>
</clipPath>
<clipPath id="clip1_2_283">
<rect width="122" height="36" fill="white" transform="translate(0.780029 0.689941)"/>
</clipPath>
</defs>
</svg>
