<svg width="51" height="51" viewBox="0 0 51 51" fill="none" xmlns="http://www.w3.org/2000/svg">
<g clip-path="url(#clip0_2_411)">
<g clip-path="url(#clip1_2_411)">
<path d="M29.2907 47.6023C9.46035 50.0061 0.846503 31.7687 5.89489 19.0954C6.60707 19.2748 9.7376 19.9506 11.4639 20.4255C13.3357 13.9853 14.8962 9.55864 16.0567 6.4968C17.8141 7.48981 19.3541 8.80468 21.8937 9.99714C25.8318 6.75941 26.5099 5.98723 29.5086 3.57935C31.979 6.96588 35.0448 12.1011 36.8672 14.9252L44.6674 11.1235C51.4678 21.713 49.121 45.1985 29.2907 47.6023Z" fill="#FFD231" stroke="black" stroke-width="3.92157"/>
<path d="M26.9736 35.1474C22.5521 35.1474 18.9678 31.5631 18.9678 27.1416C18.9678 22.7201 22.5521 19.1357 26.9736 19.1357C31.395 19.1357 34.9794 22.7201 34.9794 27.1416C34.9794 31.5631 31.395 35.1474 26.9736 35.1474Z" fill="#23C1F2" stroke="black" stroke-width="3.92157" stroke-linejoin="round"/>
<path d="M21.2079 31.9192L14.8921 37.5552" stroke="black" stroke-width="3.92157" stroke-linejoin="round"/>
</g>
</g>
<defs>
<clipPath id="clip0_2_411">
<rect width="50" height="50" fill="white" transform="translate(0.995117 0.72998)"/>
</clipPath>
<clipPath id="clip1_2_411">
<rect width="49.0196" height="50" fill="white" transform="translate(1.48535 0.72998)"/>
</clipPath>
</defs>
</svg>
