<svg width="101" height="31" viewBox="0 0 101 31" fill="none" xmlns="http://www.w3.org/2000/svg">
<g clip-path="url(#clip0_2_269)">
<g clip-path="url(#clip1_2_269)">
<mask id="mask0_2_269" style="mask-type:luminance" maskUnits="userSpaceOnUse" x="0" y="0" width="101" height="31">
<path d="M100.22 0.859985H0.220215V30.6121H100.22V0.859985Z" fill="white"/>
</mask>
<g mask="url(#mask0_2_269)">
<path d="M21.7807 5.94584C21.7807 7.61183 20.4302 8.96237 18.7642 8.96237C17.0982 8.96237 15.7476 7.61183 15.7476 5.94584C15.7476 4.27986 17.0982 2.92932 18.7642 2.92932C20.4302 2.92932 21.7807 4.27986 21.7807 5.94584Z" fill="black" fill-opacity="0.32"/>
<path d="M17.4774 24.5536C16.7563 24.5536 16.1719 23.9689 16.1719 23.2478V11.7297C16.1719 11.0085 16.7563 10.4238 17.4774 10.4238H19.9845C20.7056 10.4238 21.29 11.0085 21.29 11.7297V23.2478C21.29 23.9689 20.7056 24.5536 19.9845 24.5536H17.4774Z" fill="black"/>
<path fill-rule="evenodd" clip-rule="evenodd" d="M4.08966 23.5507C4.08966 24.1046 4.53853 24.5536 5.09224 24.5536H8.14012C8.8611 24.5536 9.44559 23.9689 9.44559 23.2478V17.1683C10.303 17.3004 11.1741 17.244 12.0281 16.9955L12.7127 16.7963C13.1064 16.6816 13.3772 16.3206 13.3772 15.9105V12.2568C13.3772 11.656 12.8121 11.2155 12.2296 11.3624L11.2599 11.6069C10.6586 11.782 10.0417 11.7814 9.44559 11.6099V7.80249C9.44559 7.46334 9.48077 7.18405 9.55114 6.9646C9.63908 6.7252 9.72018 6.57893 9.87848 6.45924C10.0544 6.33954 10.2968 6.24927 10.5782 6.24927C10.9698 6.24927 11.3442 6.33819 11.6278 6.42595C11.6789 6.44177 11.73 6.45729 11.7809 6.47255C12.4662 6.67771 13.1731 6.252 13.3542 5.55973L14.1169 2.64487C14.2549 2.11704 13.9903 1.55887 13.4735 1.38472C12.7078 1.12675 12.051 1.01596 11.2779 0.930005C10.6482 0.859985 10.0348 0.859985 9.31367 0.859985C8.1991 0.859985 7.33489 1.14926 6.54337 1.7278C5.76943 2.28639 5.1626 3.0345 4.72286 3.97215C4.30072 4.90979 4.08966 5.94715 4.08966 7.0843V9.17842C3.25293 9.05879 2.40398 9.11837 1.57133 9.36075L0.886667 9.56005C0.49294 9.67465 0.222168 10.0355 0.222168 10.4457V14.1754C0.222168 14.805 0.838775 15.2496 1.43589 15.0505L2.33948 14.7493C2.91922 14.5806 3.51347 14.5751 4.08966 14.7286V23.5507Z" fill="black"/>
<path d="M31.476 30.6121C30.208 30.6121 28.9489 30.436 27.6985 30.0837C26.9189 29.8608 26.2274 29.5958 25.6239 29.2883C25.0478 28.9951 24.8771 28.2831 25.1696 27.7064L25.8624 26.3404C26.1952 25.6844 27.0198 25.4675 27.6985 25.7504C28.1212 25.9266 28.5614 26.0586 29.0193 26.1468C29.4948 26.2348 29.9966 26.2789 30.525 26.2789C31.3527 26.2789 32.0219 26.1643 32.5326 25.9354C33.0434 25.724 33.4131 25.3805 33.642 24.9048C33.8886 24.4292 34.0119 23.8216 34.0119 23.0817V21.5487C34.0119 21.2366 34.2795 20.9917 34.5901 21.0194C34.9123 21.0481 35.1373 21.3587 35.0023 21.6527C34.8342 22.0192 34.592 22.3547 34.2761 22.6589C33.8006 23.117 33.2106 23.4781 32.5062 23.7423C31.8018 24.0065 31.0534 24.1386 30.2608 24.1386C29.0105 24.1386 27.9011 23.8567 26.9325 23.2931C25.9815 22.7294 25.2243 21.9456 24.6607 20.9415C24.1148 19.9198 23.8418 18.722 23.8418 17.3481C23.8418 15.9213 24.1148 14.6706 24.6607 13.5961C25.2067 12.504 25.9462 11.6497 26.8796 11.0332C27.8306 10.4166 28.9137 10.1084 30.1287 10.1084C30.6571 10.1084 31.159 10.1612 31.6345 10.2669C32.11 10.3726 32.5503 10.5223 32.9552 10.7161C33.3603 10.8923 33.7214 11.1124 34.0383 11.3767C34.3554 11.6409 34.6107 11.9315 34.8043 12.2486C34.9287 12.4351 35.0287 12.6308 35.1043 12.8356C35.193 13.0762 35.0276 13.3228 34.7772 13.3778C34.464 13.4466 34.1743 13.1906 34.2042 12.8712L34.3241 11.5837C34.3867 10.9123 34.9499 10.399 35.624 10.399H38.0953C38.8163 10.399 39.4007 10.9837 39.4007 11.7049V23.1609C39.4007 24.3412 39.2159 25.3893 38.846 26.3053C38.4938 27.2388 37.9744 28.0226 37.2876 28.6568C36.6008 29.3086 35.7641 29.7929 34.778 30.1101C33.8094 30.4448 32.7088 30.6121 31.476 30.6121ZM31.6081 20.3074C32.154 20.3074 32.6118 20.1929 32.9817 19.9639C33.3691 19.7349 33.6598 19.409 33.8535 18.9863C34.0471 18.5459 34.144 18.0174 34.144 17.401C34.144 16.7844 34.0471 16.2559 33.8535 15.8156C33.6598 15.3752 33.3691 15.0405 32.9817 14.8116C32.6118 14.5826 32.154 14.4681 31.6081 14.4681C31.0622 14.4681 30.6042 14.5826 30.2345 14.8116C29.8646 15.0405 29.5828 15.3752 29.3892 15.8156C29.1955 16.2559 29.0985 16.7844 29.0985 17.401C29.0985 18.0174 29.1955 18.5459 29.3892 18.9863C29.5828 19.409 29.8646 19.7349 30.2345 19.9639C30.6042 20.1929 31.0622 20.3074 31.6081 20.3074Z" fill="black"/>
<path d="M47.0741 24.8256C45.9998 24.8256 45.0929 24.6054 44.3534 24.1651C43.6137 23.7246 43.0502 23.0817 42.6627 22.2361C42.2752 21.373 42.0815 20.3337 42.0815 19.1183V11.7049C42.0815 10.9836 42.666 10.399 43.3871 10.399H46.1384C46.8595 10.399 47.4441 10.9836 47.4441 11.7049V18.6692C47.4441 19.0567 47.5056 19.3826 47.6289 19.6467C47.7697 19.911 47.9635 20.1136 48.2101 20.2545C48.4566 20.3954 48.756 20.4659 49.1082 20.4659C49.3724 20.4659 49.6101 20.4307 49.8214 20.3602C50.0503 20.2721 50.244 20.1489 50.4026 19.9902C50.5611 19.8317 50.6844 19.6557 50.7724 19.4619C50.8604 19.2505 50.9045 19.0303 50.9045 18.8012V11.7049C50.9045 10.9836 51.4889 10.399 52.2099 10.399H54.9614C55.6823 10.399 56.2669 10.9836 56.2669 11.7049V23.2291C56.2669 23.9502 55.6823 24.5349 54.9614 24.5349H52.522C51.8568 24.5349 51.298 24.0346 51.2246 23.3733L51.072 22.001C51.0514 21.8152 51.165 21.6408 51.3432 21.5844C51.6413 21.4903 51.9155 21.7649 51.7794 22.0464C51.5857 22.4475 51.3292 22.8189 51.0101 23.1609C50.5347 23.6718 49.9535 24.0769 49.2667 24.3764C48.5799 24.6759 47.849 24.8256 47.0741 24.8256Z" fill="black"/>
<path d="M60.4984 24.5349C59.7773 24.5349 59.1929 23.9502 59.1929 23.229V11.7048C59.1929 10.9836 59.7773 10.3989 60.4984 10.3989H62.9386C63.6255 10.3989 64.195 10.9314 64.2412 11.617L64.4081 14.0935C64.4364 14.5147 63.9762 14.7911 63.618 14.5681C63.4221 14.4462 63.3285 14.2087 63.4038 13.9906C63.6317 13.3295 63.9539 12.7312 64.3704 12.1957C64.8634 11.5439 65.4535 11.0331 66.1403 10.6631C66.8447 10.2932 67.5931 10.1083 68.3857 10.1083C68.7026 10.1083 69.002 10.1347 69.2838 10.1875C69.6752 10.2365 69.9158 10.6734 69.9158 11.0681V14.4628C69.9158 15.4256 68.7067 16.201 67.7781 15.9476C67.4082 15.8419 67.0031 15.7891 66.5629 15.7891C66.2458 15.7891 65.9553 15.8419 65.6911 15.9476C65.4447 16.0357 65.2333 16.1766 65.0572 16.3704C64.8987 16.5642 64.7754 16.7931 64.6874 17.0574C64.5993 17.3215 64.5553 17.6299 64.5553 17.9822V23.229C64.5553 23.9502 63.9708 24.5349 63.2499 24.5349H60.4984Z" fill="black"/>
<path d="M79.184 24.7992C77.5462 24.7992 76.1374 24.4821 74.9574 23.848C73.7775 23.2138 72.8706 22.3507 72.2366 21.2585C71.6027 20.1489 71.2856 18.8806 71.2856 17.4537C71.2856 16.3968 71.4618 15.4193 71.814 14.5209C72.1662 13.6226 72.6592 12.8475 73.2932 12.1958C73.9449 11.5264 74.7021 11.0156 75.565 10.6633C76.4455 10.2933 77.4053 10.1084 78.4443 10.1084C79.4833 10.1084 80.4255 10.2933 81.2708 10.6633C82.1338 11.0156 82.8734 11.5264 83.4898 12.1958C84.1062 12.8475 84.5727 13.6226 84.8898 14.5209C85.2244 15.4193 85.3741 16.3968 85.3389 17.4537C85.3242 18.0709 84.8198 18.5635 84.2027 18.5635H75.2314C74.6521 18.5635 74.1482 18.167 74.012 17.6037C73.8206 16.814 74.419 16.0535 75.2314 16.0535H80.7083C80.8407 16.0535 80.9089 16.212 80.8177 16.308C80.7238 16.4068 80.5576 16.3405 80.5576 16.2042V16.1062C80.5576 15.7716 80.4696 15.4809 80.2934 15.2343C80.135 14.9701 79.9059 14.7675 79.6066 14.6266C79.3073 14.4857 78.9551 14.4152 78.55 14.4152C78.0392 14.4152 77.6078 14.5209 77.2556 14.7323C76.9034 14.9437 76.6305 15.2431 76.4367 15.6306C76.2605 16.0182 76.1725 16.485 76.1725 17.031C76.1725 17.6651 76.3046 18.22 76.5688 18.6956C76.8506 19.1713 77.2556 19.5411 77.784 19.8054C78.3299 20.0695 78.999 20.2016 79.7916 20.2016C80.3199 20.2016 80.7689 20.14 81.1387 20.0168C81.1646 20.0074 81.1905 19.9975 81.2164 19.9875C81.8879 19.7265 82.6917 19.8322 83.1088 20.4198L84.0898 21.8021C84.4932 22.3704 84.3851 23.1667 83.7893 23.5287C83.485 23.7137 83.1826 23.873 82.8822 24.0065C82.2658 24.2883 81.6495 24.4909 81.0331 24.6142C80.4343 24.7376 79.8179 24.7992 79.184 24.7992Z" fill="black"/>
<path d="M92.9504 24.7992C91.4181 24.7992 90.0798 24.57 88.9351 24.1121C88.3146 23.8503 87.7688 23.5538 87.2979 23.2225C86.6975 22.8004 86.753 21.9485 87.3104 21.4712L88.5523 20.4079C89.045 19.9861 89.7658 20.0062 90.3288 20.3282C90.6463 20.5098 90.9829 20.6613 91.3389 20.783C92.0786 21.0119 92.695 21.1263 93.188 21.1263C93.3642 21.1263 93.5139 21.1175 93.6372 21.1C93.7781 21.0648 93.8836 21.0207 93.9541 20.9678C94.0016 20.9299 94.0413 20.8919 94.0735 20.8539C94.124 20.7942 94.1683 20.7268 94.1936 20.6527C94.2101 20.6048 94.2183 20.5513 94.2183 20.4922C94.2183 20.2281 94.0774 20.0343 93.7956 19.9109C93.6372 19.8405 93.373 19.7524 93.0032 19.6467C92.6509 19.5411 92.1843 19.4177 91.6031 19.2768C90.9163 19.1007 90.2823 18.8806 89.7011 18.6163C89.1376 18.352 88.6533 18.0438 88.2483 17.6915C87.8256 17.3039 87.491 16.8636 87.2445 16.3704C87.0155 15.8772 86.9011 15.3223 86.9011 14.7058C86.9011 13.9836 87.0684 13.3406 87.403 12.777C87.7376 12.2133 88.1955 11.7377 88.7766 11.3502C89.3577 10.945 90.0094 10.6367 90.7313 10.4253C91.4534 10.214 92.1931 10.1083 92.9504 10.1083C93.8132 10.1083 94.6145 10.1963 95.3542 10.3725C96.1115 10.531 96.8159 10.7688 97.4675 11.0859C97.6904 11.1856 97.9064 11.2922 98.1154 11.4056C98.7818 11.7667 98.8599 12.6496 98.3544 13.2143L97.4048 14.2747C96.938 14.7962 96.1421 14.8523 95.5337 14.5063C95.5266 14.5023 95.5196 14.4984 95.5127 14.4944C95.1253 14.2654 94.7113 14.0805 94.2711 13.9395C93.8485 13.781 93.4522 13.7017 93.0825 13.7017C92.8887 13.7017 92.7213 13.7194 92.5805 13.7546C92.4573 13.7722 92.3516 13.8162 92.2636 13.8867C92.1755 13.9395 92.105 14.01 92.0522 14.0981C92.0169 14.1685 91.9994 14.2566 91.9994 14.3623C91.9994 14.5032 92.0435 14.6353 92.1315 14.7586C92.2195 14.8819 92.3604 14.9876 92.5541 15.0757C92.7125 15.1462 92.9767 15.243 93.3466 15.3663C93.734 15.4896 94.2975 15.657 95.0372 15.8684C95.8297 16.0973 96.5253 16.3616 97.1241 16.661C97.7405 16.9604 98.2336 17.3127 98.6033 17.7179C98.8499 17.9997 99.0437 18.3169 99.1846 18.6692C99.3254 19.0215 99.3959 19.4001 99.3959 19.8053C99.3959 20.774 99.1141 21.6373 98.5505 22.3946C98.0045 23.1345 97.2473 23.7245 96.2787 24.165C95.3101 24.5878 94.2007 24.7992 92.9504 24.7992Z" fill="black"/>
</g>
</g>
</g>
<defs>
<clipPath id="clip0_2_269">
<rect width="100" height="30" fill="white" transform="translate(0.220215 0.859985)"/>
</clipPath>
<clipPath id="clip1_2_269">
<rect width="100" height="30" fill="white" transform="translate(0.220215 0.859985)"/>
</clipPath>
</defs>
</svg>
