<svg width="51" height="51" viewBox="0 0 51 51" fill="none" xmlns="http://www.w3.org/2000/svg">
<g clip-path="url(#clip0_2_447)">
<g clip-path="url(#clip1_2_447)">
<path d="M5.55664 16.3919L41.6669 16.3918L27.9253 32.5209V42.0058L19.0346 46.753V32.5209L5.55664 16.3919Z" fill="#FC6D26" stroke="black" stroke-width="4"/>
<path d="M37.917 8.15674C37.917 5.13185 35.4648 2.67969 32.4399 2.67969C29.4151 2.67969 26.9629 5.13185 26.9629 8.15674V21.8103C26.9629 24.8352 29.4151 27.2874 32.4399 27.2874C35.4648 27.2874 37.917 24.8352 37.917 21.8103V8.15674Z" fill="white" stroke="black" stroke-width="4"/>
<path d="M48.874 8.15674C48.874 5.13185 46.4219 2.67969 43.397 2.67969C40.3721 2.67969 37.9199 5.13185 37.9199 8.15674V21.8103C37.9199 24.8352 40.3721 27.2874 43.397 27.2874C46.4219 27.2874 48.874 24.8352 48.874 21.8103V8.15674Z" fill="white" stroke="black" stroke-width="4"/>
<path d="M29.9092 21.856C31.806 21.856 33.3438 20.3182 33.3438 18.4214C33.3438 16.5245 31.806 14.9868 29.9092 14.9868C28.0123 14.9868 26.4746 16.5245 26.4746 18.4214C26.4746 20.3182 28.0123 21.856 29.9092 21.856Z" fill="black"/>
<path d="M41.3545 21.856C43.2514 21.856 44.7891 20.3182 44.7891 18.4214C44.7891 16.5245 43.2514 14.9868 41.3545 14.9868C39.4576 14.9868 37.9199 16.5245 37.9199 18.4214C37.9199 20.3182 39.4576 21.856 41.3545 21.856Z" fill="black"/>
</g>
</g>
<defs>
<clipPath id="clip0_2_447">
<rect width="50" height="50" fill="white" transform="translate(0.990234 0.52002)"/>
</clipPath>
<clipPath id="clip1_2_447">
<rect width="50" height="50" fill="white" transform="translate(0.990234 0.52002)"/>
</clipPath>
</defs>
</svg>
