<svg width="121" height="36" viewBox="0 0 121 36" fill="none" xmlns="http://www.w3.org/2000/svg">
<g clip-path="url(#clip0_2_369)">
<g clip-path="url(#clip1_2_369)">
<mask id="mask0_2_369" style="mask-type:luminance" maskUnits="userSpaceOnUse" x="0" y="0" width="121" height="35">
<path d="M120.22 0.189941H0.220215V34.3904H120.22V0.189941Z" fill="white"/>
</mask>
<g mask="url(#mask0_2_369)">
<path fill-rule="evenodd" clip-rule="evenodd" d="M14.6949 0.285194C14.4747 0.332427 14.2291 0.395599 14.1491 0.425438C13.927 0.508405 13.0622 0.93816 13.021 0.985975C13.001 1.00926 12.9355 1.04973 12.8754 1.076C12.8154 1.1022 12.6353 1.2046 12.4752 1.30343C12.315 1.40227 12.1022 1.52861 12.0021 1.58421C11.902 1.63974 11.6974 1.75611 11.5472 1.84272C10.9424 2.19162 10.2828 2.56431 9.92793 2.75776C9.84787 2.80143 9.766 2.85346 9.74599 2.87348C9.69927 2.9202 9.44512 3.06481 8.95786 3.32201C8.74455 3.4346 8.48255 3.58728 8.37564 3.6613C8.26873 3.73532 8.13212 3.81785 8.07208 3.84463C8.01204 3.87141 7.83191 3.97461 7.6718 4.07395C7.51169 4.17337 7.26606 4.31063 7.12596 4.37904C6.98587 4.44745 6.85487 4.52147 6.83486 4.54359C6.79745 4.58486 6.68909 4.64832 6.11282 4.96643C5.92949 5.06767 5.69769 5.2042 5.59762 5.26999C5.49755 5.33578 5.31742 5.43745 5.19734 5.49597C5.07726 5.55455 4.96264 5.61889 4.94263 5.6389C4.90435 5.67733 4.76759 5.75658 4.22058 6.05745C4.03726 6.15825 3.85458 6.26559 3.81456 6.29602C3.77453 6.32644 3.619 6.42032 3.46886 6.5046C3.31872 6.58895 3.08131 6.72344 2.94122 6.8035C2.80112 6.88356 2.56364 7.01819 2.41357 7.10276C1.439 7.65158 0.875849 8.32122 0.431028 9.4599C0.212475 10.0194 0.206216 10.2664 0.229213 17.3927C0.252794 24.7164 0.256578 24.8166 0.529933 25.3645C0.595288 25.4954 0.648708 25.6467 0.648708 25.7006C0.648708 25.7545 0.673452 25.7986 0.703728 25.7986C0.734004 25.7986 0.804672 25.9023 0.860784 26.0291C0.985817 26.3116 1.84154 27.1884 2.14066 27.3406C2.58395 27.5661 3.01501 27.801 3.05038 27.8364C3.08714 27.8731 3.29841 27.9981 3.63261 28.181C3.73268 28.2358 3.94556 28.3621 4.10567 28.4618C4.26578 28.5615 4.45406 28.662 4.52414 28.6849C4.59423 28.7079 4.6515 28.7556 4.6515 28.791C4.6515 28.8263 4.717 28.8553 4.79706 28.8553C4.87712 28.8553 4.94291 28.8798 4.9432 28.9098C4.94349 28.9399 5.01722 28.9999 5.10696 29.0432C5.3541 29.1625 5.96217 29.5105 6.28901 29.7197C6.44913 29.8222 6.71113 29.9752 6.87124 30.0597C7.17902 30.2222 7.44016 30.3714 8.03956 30.727C8.24174 30.8469 8.55547 31.0278 8.73662 31.129C9.35327 31.4732 9.41848 31.5117 9.45487 31.5518C9.47488 31.574 9.60588 31.6493 9.74599 31.7192C9.88609 31.7892 10.1481 31.9405 10.3282 32.0555C10.5083 32.1704 10.6967 32.2669 10.7467 32.2701C10.7967 32.2733 10.8376 32.3025 10.8376 32.335C10.8376 32.3676 10.9523 32.4392 11.0924 32.4942C11.2325 32.5491 11.3471 32.6127 11.3471 32.6356C11.3471 32.6583 11.4535 32.7238 11.5836 32.7809C11.7137 32.8381 11.9986 32.9987 12.2168 33.1377C12.7492 33.4771 13.8071 34.0425 14.1491 34.1704C14.9418 34.4668 16.5564 34.463 17.1137 34.1633C17.1832 34.1259 17.2897 34.0953 17.3503 34.0953C17.4109 34.0953 17.4605 34.0663 17.4605 34.031C17.4605 33.9956 17.5178 33.948 17.5878 33.9251C17.6578 33.9021 17.8626 33.7964 18.0427 33.6901C19.3815 32.8998 19.6664 32.736 20.1408 32.4838C20.3541 32.3704 20.6161 32.217 20.723 32.143C20.8299 32.069 20.9666 31.9865 21.0266 31.9597C21.0866 31.9329 21.2668 31.8279 21.4269 31.7264C21.587 31.6249 21.7753 31.523 21.8453 31.5001C21.9154 31.4771 21.9727 31.4293 21.9727 31.394C21.9727 31.3587 22.0382 31.3297 22.1183 31.3297C22.1983 31.3297 22.2641 31.3052 22.2644 31.2751C22.2647 31.2451 22.3384 31.1851 22.4282 31.1418C22.7046 31.0083 23.3089 30.661 23.5123 30.5187C23.6185 30.4444 23.7414 30.3836 23.7852 30.3836C23.8291 30.3836 23.8649 30.3586 23.8649 30.328C23.8649 30.2974 23.9878 30.2153 24.1379 30.1457C24.4159 30.0166 24.6478 29.8873 25.1022 29.6083C25.4217 29.4121 25.8278 29.183 26.327 28.9176C26.5403 28.8042 26.8023 28.6509 26.9092 28.5769C27.0161 28.5029 27.1527 28.4203 27.2127 28.3935C27.2728 28.3668 27.4529 28.2617 27.613 28.1603C27.7731 28.0588 27.9615 27.9569 28.0315 27.934C28.1015 27.911 28.1589 27.8632 28.1589 27.8278C28.1589 27.7925 28.2244 27.7636 28.3044 27.7636C28.3845 27.7636 28.45 27.7346 28.45 27.6993C28.45 27.6639 28.5073 27.6157 28.5773 27.5921C28.8438 27.5024 29.5341 27.0452 29.7996 26.7827C30.2555 26.3317 30.8188 25.2604 30.9485 24.5977C30.9877 24.3976 31.032 23.0221 31.0471 21.541C31.077 18.5959 31.0558 18.3916 30.6805 18.0078C30.4915 17.8144 30.4242 17.793 30.0083 17.793C29.6701 17.793 29.4723 17.8347 29.2709 17.9488C28.9019 18.1578 28.3743 18.453 28.1952 18.5506C28.1152 18.5943 28.0333 18.6463 28.0133 18.6663C27.9933 18.6863 27.8987 18.7467 27.8032 18.8005C27.7076 18.8543 27.5194 18.9608 27.3847 19.037C27.2501 19.1133 27.0172 19.2447 26.867 19.3291C26.717 19.4134 26.5614 19.5073 26.5213 19.5377C26.4388 19.6003 25.8647 19.923 25.4297 20.1511C25.2696 20.2351 25.1222 20.3226 25.1022 20.3455C25.0822 20.3684 25.0167 20.4087 24.9566 20.435C24.8966 20.4612 24.7164 20.5636 24.5563 20.6624C24.3962 20.7612 24.1833 20.8876 24.0833 20.9432C23.9832 20.9987 23.7786 21.1151 23.6284 21.2017C23.1579 21.4731 22.821 21.6645 22.4822 21.8528C22.302 21.953 22.0672 22.0961 21.9603 22.1709C21.8534 22.2458 21.5914 22.3998 21.378 22.5131C21.1647 22.6266 20.8592 22.7953 20.6991 22.8881C20.539 22.9809 20.3261 23.1023 20.226 23.1578C20.126 23.2134 19.9131 23.3387 19.753 23.4362C19.5929 23.5338 19.3472 23.6696 19.2071 23.738C19.067 23.8064 18.936 23.8804 18.916 23.9025C18.8786 23.9438 18.7702 24.0073 18.194 24.3254C18.0107 24.4266 17.7789 24.565 17.6788 24.6331C17.5787 24.7011 17.3904 24.8027 17.2603 24.8588C17.1302 24.9149 17.0238 24.9855 17.0238 25.0158C17.0238 25.046 16.9829 25.0715 16.9328 25.0724C16.8828 25.0733 16.76 25.138 16.6599 25.2163C16.5598 25.2947 16.4062 25.3594 16.3185 25.3603C16.2308 25.3612 16.1388 25.3946 16.1141 25.4347C16.051 25.5366 15.3037 25.5256 14.9912 25.418C14.8482 25.3689 14.6003 25.2528 14.4402 25.1602C14.2801 25.0674 14.0917 24.9728 14.0217 24.9499C13.9517 24.927 13.8943 24.8793 13.8943 24.8439C13.8943 24.8086 13.8643 24.7797 13.8276 24.7797C13.7908 24.7797 13.5115 24.6323 13.2069 24.4522C12.9022 24.272 12.6211 24.1247 12.5822 24.1247C12.5433 24.1247 12.5113 24.1001 12.511 24.0701C12.5107 24.04 12.4369 23.9793 12.3472 23.9352C11.9591 23.7442 11.3204 23.388 11.1412 23.2626C10.9419 23.1232 10.4442 22.8378 9.92793 22.5671C9.76781 22.4831 9.6259 22.3898 9.61259 22.3598C9.59918 22.3297 9.54373 22.3052 9.48936 22.3052C9.33573 22.3052 8.5193 21.5151 8.40926 21.2598C8.35511 21.1343 8.27354 20.94 8.22791 20.828C8.11124 20.542 8.11124 14.025 8.22791 13.739C8.45083 13.1923 8.52258 13.0766 8.81835 12.7876C9.12642 12.4864 9.50115 12.2307 9.76417 12.1422C9.83419 12.1186 9.89155 12.0703 9.89155 12.035C9.89155 11.9997 9.95704 11.9707 10.0371 11.9707C10.1172 11.9707 10.1829 11.9462 10.1832 11.9161C10.1835 11.8861 10.2572 11.8261 10.347 11.7828C10.6242 11.649 11.228 11.3019 11.4323 11.1589C11.5392 11.0841 11.8012 10.9301 12.0145 10.8167C12.5459 10.5341 12.9075 10.3264 13.343 10.0537C13.5462 9.92648 13.8106 9.7746 13.9307 9.71615C14.0508 9.65771 14.2801 9.52577 14.4402 9.42293C14.9061 9.1236 15.8519 8.94383 15.9685 9.1324C15.9933 9.17243 16.1098 9.20518 16.2275 9.20518C16.3453 9.20518 16.4416 9.23793 16.4416 9.27796C16.4416 9.31799 16.5044 9.35074 16.5811 9.35074C16.6578 9.35074 16.7314 9.37526 16.7448 9.40532C16.7581 9.43538 16.9314 9.54178 17.1298 9.64185C17.8153 9.98769 18.1013 10.4223 17.9945 10.9562C17.946 11.1987 17.5847 11.6068 17.4185 11.6068C17.3615 11.6068 17.3149 11.6319 17.3149 11.6624C17.3149 11.693 17.1921 11.7745 17.042 11.8436C16.8919 11.9126 16.6381 12.0511 16.478 12.1513C16.3178 12.2516 16.1377 12.3557 16.0777 12.3828C16.0176 12.4098 15.8375 12.5174 15.6774 12.622C15.5173 12.7266 15.2882 12.8602 15.1684 12.9191C15.0485 12.9779 14.6219 13.2225 14.2203 13.4627C13.8188 13.7028 13.3928 13.9484 13.2738 14.0084C13.1548 14.0684 13.041 14.1339 13.021 14.1539C12.9671 14.2079 12.666 14.3779 12.2755 14.5748C11.6282 14.9011 11.6382 14.8585 11.6382 17.2792C11.6382 19.1431 11.653 19.4218 11.7606 19.5861C11.9134 19.8193 12.414 20.1458 13.2933 20.586C13.3831 20.631 13.4568 20.6922 13.4571 20.7223C13.4574 20.7523 13.5232 20.7769 13.6032 20.7769C13.6833 20.7769 13.7488 20.8096 13.7488 20.8497C13.7488 20.8897 13.7847 20.9224 13.8285 20.9224C13.8723 20.9224 13.9952 20.9841 14.1015 21.0594C14.2077 21.1347 14.5184 21.3148 14.7919 21.4597C15.1866 21.6686 15.3706 21.723 15.6834 21.723C15.9002 21.723 16.0777 21.6902 16.0777 21.6502C16.0777 21.6102 16.1405 21.5774 16.2172 21.5774C16.2939 21.5774 16.3675 21.5523 16.3809 21.5217C16.4058 21.4646 17.2947 20.9224 17.3634 20.9224C17.3844 20.9224 17.4942 20.8566 17.6073 20.776C17.7203 20.6955 17.9874 20.5368 18.2007 20.4234C18.732 20.1409 19.0936 19.9332 19.5292 19.6604C19.7323 19.5332 19.9966 19.3803 20.1164 19.3207C20.2363 19.261 20.6691 19.0107 21.0782 18.7646C21.4873 18.5183 21.9214 18.2729 22.0429 18.2192C22.1644 18.1653 22.2638 18.1004 22.2638 18.0748C22.2638 18.0492 22.3212 18.0088 22.3912 17.9848C22.5166 17.9421 22.9322 17.7093 23.768 17.2139C24.0015 17.0754 24.3234 16.8926 24.4836 16.8075C25.0166 16.5243 25.5003 16.2453 25.6968 16.1078C25.876 15.9824 26.5147 15.6262 26.9029 15.4352C26.9926 15.3911 27.0663 15.3304 27.0666 15.3003C27.0669 15.2703 27.1015 15.2457 27.1435 15.2457C27.1854 15.2457 27.3901 15.1371 27.5983 15.0044C27.8065 14.8717 28.0833 14.7163 28.2134 14.6591C28.3436 14.602 28.45 14.5342 28.45 14.5087C28.45 14.4831 28.5073 14.4426 28.5773 14.4187C28.6473 14.3948 28.9012 14.2613 29.1414 14.122C29.3815 13.9826 29.6964 13.8034 29.8412 13.7237C30.4336 13.3975 30.8498 12.907 30.9581 12.4074C31.1285 11.6206 31.081 10.5796 30.8337 9.67824C30.6134 8.87571 29.7128 7.62429 29.1467 7.33442C29.0237 7.27139 28.9067 7.19985 28.8866 7.1754C28.8666 7.15102 28.7192 7.06237 28.5591 6.97846C28.1725 6.77584 27.7723 6.54936 27.2855 6.25774C26.4572 5.76146 26.2267 5.63148 26.1029 5.59094C26.0329 5.56802 25.9755 5.52035 25.9755 5.48498C25.9755 5.44968 25.91 5.42071 25.83 5.42071C25.7499 5.42071 25.6844 5.38796 25.6844 5.34794C25.6844 5.30791 25.6485 5.27516 25.6046 5.27516C25.5608 5.27516 25.438 5.21431 25.3317 5.14001C25.2255 5.0657 24.9886 4.92211 24.8053 4.82087C24.2452 4.51171 24.1211 4.43966 24.0833 4.40167C24.0633 4.38166 23.9486 4.31645 23.8286 4.25684C23.7085 4.19724 23.4398 4.04171 23.2316 3.91122C23.0234 3.7808 22.8187 3.67404 22.7768 3.67404C22.7348 3.67404 22.7005 3.649 22.7005 3.61843C22.7005 3.58787 22.5777 3.50577 22.4276 3.43612C22.2775 3.3664 22.0564 3.25076 21.9363 3.17914C20.6161 2.39161 20.0651 2.07721 19.9167 2.02663C19.8467 2.00269 19.7894 1.96222 19.7894 1.9366C19.7894 1.91106 19.683 1.8433 19.5528 1.78617C19.4227 1.72897 19.1459 1.57358 18.9377 1.44091C18.7295 1.30816 18.5389 1.19958 18.5141 1.19958C18.4894 1.19958 18.3323 1.10824 18.165 0.9966C17.0983 0.284976 15.87 0.0331635 14.6949 0.285194ZM39.8034 9.05489C39.7433 9.0963 39.6037 9.13065 39.493 9.13131C39.3824 9.13189 39.235 9.16129 39.1655 9.19666C39.096 9.23203 38.9468 9.3043 38.834 9.35729C38.4375 9.54331 37.9839 10.1819 37.9839 10.5541C37.9839 10.648 37.9554 10.7425 37.9205 10.764C37.8216 10.8252 37.7548 11.461 37.7036 12.8287C37.6661 13.8279 37.6339 14.1021 37.5472 14.1605C37.4866 14.2014 37.17 14.222 36.835 14.207L36.2319 14.1799L36.2528 14.7965L36.2736 15.4133L36.9214 15.3975C37.3916 15.386 37.5858 15.408 37.6298 15.4775C37.6633 15.5301 37.6911 17.7593 37.6917 20.4312L37.6928 25.2891H38.4206H39.1484V20.3844C39.1484 15.979 39.1601 15.4751 39.2635 15.4355C39.3268 15.4112 40.0745 15.3913 40.925 15.3913H42.4713L42.4796 14.7909L42.4878 14.1904L40.9706 14.2149C39.9443 14.2314 39.404 14.2129 39.3008 14.1578C39.1585 14.0816 39.1486 14.0172 39.1522 13.1872C39.1559 12.3253 39.2655 11.4811 39.4248 11.0874C39.5222 10.8464 39.8335 10.5316 40.0845 10.42C40.1944 10.3711 40.8154 10.3188 41.5369 10.2975L42.7975 10.2604L42.8106 9.70327L42.8237 9.14601L42.2414 9.10351C40.8369 9.00082 39.9085 8.98233 39.8034 9.05489ZM88.1281 11.7421V14.2428L87.8552 14.1987C86.8315 14.0335 86.2199 13.9814 85.3261 13.9832C84.2674 13.9855 83.5682 14.0545 83.5009 14.1634C83.4793 14.1983 83.3882 14.2268 83.2983 14.2268C83.006 14.2268 82.3852 14.5958 81.9568 15.0242C81.5347 15.4463 80.9958 16.3798 80.9958 16.6889C80.9958 16.7711 80.9631 16.8585 80.9231 16.8832C80.883 16.908 80.8503 17.0507 80.8503 17.2005C80.8503 17.3503 80.8207 17.5039 80.7846 17.5419C80.5272 17.813 80.5636 21.585 80.8344 22.7055C81.0151 23.453 81.4595 24.2886 81.8735 24.6596C82.2478 24.9949 82.7572 25.2891 82.9634 25.2891C83.0373 25.2891 83.1152 25.3172 83.1365 25.3516C83.2718 25.5705 85.9249 25.5707 86.0602 25.3518C86.0815 25.3173 86.1933 25.2891 86.3086 25.2891C86.424 25.2891 86.5386 25.2564 86.5634 25.2163C86.5881 25.1763 86.6659 25.1436 86.7362 25.1436C86.8065 25.1436 87.1201 25.0134 87.4331 24.8543C87.7462 24.6951 88.0306 24.5824 88.0652 24.6038C88.0998 24.6252 88.1281 24.7881 88.1281 24.9659V25.2891H88.8559H89.5837V17.2653V9.24157H88.8559H88.1281V11.7421ZM47.9909 14.0057C47.9109 14.0416 47.7081 14.0733 47.5403 14.0762C47.3726 14.0789 47.2151 14.114 47.1904 14.1541C47.1656 14.1941 47.051 14.2268 46.9356 14.2268C46.8203 14.2268 46.7057 14.2596 46.6809 14.2996C46.6562 14.3396 46.5858 14.3724 46.5244 14.3724C46.3509 14.3724 45.5953 14.9321 45.3402 15.2496C44.6917 16.0565 44.4353 16.8963 44.3024 18.6488C44.2198 19.737 44.2982 21.5301 44.4605 22.2688C44.5045 22.469 44.5601 22.7294 44.584 22.8476C44.733 23.5827 45.6291 24.7594 46.2448 25.0288C46.4046 25.0987 46.5922 25.1858 46.6617 25.2225C46.7312 25.2591 46.8685 25.2891 46.9667 25.2891C47.065 25.2891 47.1626 25.3171 47.1837 25.3512C47.3224 25.5755 50.624 25.5762 50.7626 25.352C50.784 25.3174 50.8959 25.2891 51.0112 25.2891C51.1266 25.2891 51.2412 25.2564 51.2659 25.2163C51.2907 25.1763 51.3908 25.1436 51.4886 25.1436C51.5863 25.1436 51.6662 25.1108 51.6662 25.0708C51.6662 25.0308 51.7151 24.998 51.7748 24.998C52.0383 24.998 52.773 24.2281 53.0202 23.6928C53.123 23.47 53.2371 23.2309 53.2737 23.1614C53.3102 23.0919 53.3401 22.971 53.3401 22.8928C53.3401 22.8145 53.3685 22.7329 53.4032 22.7115C53.4379 22.69 53.4871 22.5325 53.5125 22.3615C53.5379 22.1904 53.59 21.8376 53.6282 21.5774C53.7218 20.9401 53.7241 18.4458 53.6315 17.9021C53.5906 17.662 53.5367 17.3255 53.5117 17.1545C53.4868 16.9835 53.4379 16.826 53.4032 16.8045C53.3685 16.783 53.3401 16.7014 53.3401 16.6232C53.3401 16.545 53.3109 16.4241 53.2753 16.3546C53.2397 16.2851 53.1334 16.0645 53.0392 15.8643C52.855 15.4731 52.831 15.4407 52.3764 14.974C52.0761 14.6657 51.2855 14.2268 51.0304 14.2268C50.9558 14.2268 50.8637 14.1973 50.8256 14.1611C50.671 14.0142 48.2657 13.8823 47.9909 14.0057ZM73.0994 14.0055C73.0193 14.0415 72.833 14.0733 72.6852 14.0762C72.5375 14.0789 72.3964 14.114 72.3716 14.1541C72.3469 14.1941 72.2462 14.2268 72.148 14.2268C72.0497 14.2268 71.9125 14.2557 71.843 14.2911C71.7735 14.3265 71.6347 14.388 71.5347 14.428C71.4346 14.4679 71.1778 14.5864 70.9639 14.6912C70.3952 14.97 70.31 14.9519 70.2833 14.546L70.261 14.2102L69.5333 14.2052L68.8055 14.2003L68.7886 19.7447L68.7717 25.2891H69.5692H70.3668L70.3669 20.7362C70.3669 18.2321 70.3854 16.1533 70.4081 16.1167C70.4307 16.0801 70.5706 15.9975 70.719 15.933C70.8674 15.8685 71.0457 15.7857 71.1152 15.7491C71.1847 15.7124 71.3056 15.6824 71.3838 15.6824C71.462 15.6824 71.5463 15.6496 71.5711 15.6096C71.5958 15.5696 71.7268 15.5368 71.8622 15.5368C71.9975 15.5368 72.1264 15.5076 72.1486 15.4718C72.2495 15.3084 74.0498 15.1914 74.4767 15.3205C74.9335 15.4585 75.1958 15.5852 75.4052 15.769C75.6287 15.9651 75.9014 16.4307 75.9014 16.6161C75.9014 16.687 75.9311 16.7761 75.9674 16.8141C76.102 16.9549 76.1367 17.7725 76.1655 21.4865L76.195 25.2891H76.9233H77.6517L77.623 21.3409C77.6058 18.9663 77.563 17.2187 77.5158 16.956C77.4726 16.7158 77.4169 16.4047 77.3921 16.2646C77.3489 16.0205 77.2683 15.7913 77.1301 15.5197C77.0947 15.4502 77.0658 15.3573 77.0658 15.3134C77.0658 15.1901 76.3369 14.4553 76.0947 14.3345C75.9761 14.2752 75.8204 14.2268 75.7489 14.2268C75.6774 14.2268 75.6007 14.1976 75.5786 14.1618C75.5565 14.126 75.399 14.0749 75.2286 14.0483C74.6994 13.9656 73.2525 13.9366 73.0994 14.0055ZM96.352 14.0053C96.292 14.0458 96.122 14.0795 95.9742 14.0802C95.8265 14.0808 95.6854 14.114 95.6606 14.1541C95.6359 14.1941 95.5554 14.2268 95.4818 14.2268C95.3092 14.2268 94.5921 14.6041 94.2506 14.8746C93.9093 15.1449 93.2845 16.0608 93.1534 16.483C93.0975 16.6631 93.0246 16.8416 92.9916 16.8796C92.9585 16.9177 92.9315 17.0339 92.9315 17.138C92.9315 17.242 92.9016 17.3583 92.8651 17.3963C92.7514 17.5147 92.6988 18.2805 92.6954 19.8671C92.692 21.4174 92.7516 22.2754 92.8675 22.3471C92.9027 22.3688 92.9315 22.4973 92.9315 22.6327C92.9315 22.7681 92.9642 22.8991 93.0042 22.9238C93.0443 22.9486 93.077 23.0202 93.077 23.0829C93.077 23.3114 93.543 24.1355 93.8699 24.4852C94.2243 24.8643 94.9415 25.2891 95.2271 25.2891C95.3207 25.2891 95.4147 25.3173 95.4361 25.3518C95.4943 25.446 96.3653 25.5325 97.2254 25.5293C98.0286 25.5263 99.6942 25.4016 101.322 25.2227C101.354 25.2192 101.37 24.9658 101.358 24.6595L101.337 24.1026L100.695 24.1183C100.342 24.1269 99.8677 24.1644 99.6403 24.2017C99.0966 24.2907 96.7523 24.2897 96.4664 24.2004C96.3435 24.1619 96.0798 24.0882 95.8806 24.0366C95.604 23.9649 95.4232 23.8481 95.1157 23.5424C94.4578 22.8883 94.163 22.0636 94.1402 20.8133L94.1323 20.3766L97.8986 20.3577L101.665 20.3389L101.676 19.7391C101.697 18.642 101.651 17.4663 101.585 17.3963C101.549 17.3583 101.519 17.2047 101.519 17.0549C101.519 16.9051 101.486 16.7624 101.446 16.7377C101.406 16.7129 101.374 16.6287 101.374 16.5504C101.374 16.4722 101.344 16.3513 101.307 16.2818C101.27 16.2123 101.189 16.0408 101.127 15.9007C100.992 15.5964 100.54 15.0241 100.269 14.8129C99.9895 14.5952 99.2701 14.2268 99.1247 14.2268C99.0568 14.2268 98.9701 14.1974 98.932 14.1615C98.7694 14.0078 96.5474 13.8733 96.352 14.0053ZM109.998 14.0085C109.973 14.0485 109.842 14.0813 109.707 14.0813C109.571 14.0813 109.44 14.114 109.416 14.1541C109.391 14.1941 109.293 14.2268 109.197 14.2268C109.102 14.2268 109.004 14.2596 108.979 14.2996C108.954 14.3396 108.875 14.3724 108.804 14.3724C108.732 14.3724 108.579 14.4185 108.462 14.4749C108.346 14.5312 108.005 14.6947 107.705 14.8381C107.069 15.1419 106.785 15.3055 106.585 15.4823C106.505 15.5523 106.365 15.6096 106.272 15.6096C106.108 15.6096 106.104 15.593 106.104 14.9V14.1904H105.34H104.576V19.7398V25.2891H105.374H106.172L106.174 21.2317C106.175 19.0001 106.176 17.117 106.176 17.047C106.177 16.9701 106.232 16.9196 106.316 16.9196C106.393 16.9196 106.467 16.8951 106.48 16.865C106.518 16.7808 107.626 16.264 108.233 16.0477C108.423 15.98 108.601 15.9028 108.627 15.8763C108.654 15.8497 108.75 15.828 108.841 15.828C108.932 15.828 109.027 15.7952 109.052 15.7552C109.076 15.7151 109.186 15.6824 109.296 15.6824C109.406 15.6824 109.527 15.6518 109.565 15.6145C109.603 15.5772 109.765 15.5362 109.925 15.5235L110.216 15.5005L110.252 14.7179C110.285 14.0172 110.276 13.9354 110.166 13.9356C110.098 13.9356 110.023 13.9685 109.998 14.0085ZM114.947 14.0052C114.867 14.0414 114.68 14.0733 114.532 14.0762C114.385 14.0789 114.244 14.114 114.219 14.1541C114.194 14.1941 114.113 14.2268 114.039 14.2268C113.805 14.2268 112.994 14.6751 112.669 14.9846C112.318 15.3184 112.04 15.8475 111.958 16.3374C111.851 16.9711 111.932 18.325 112.081 18.4174C112.116 18.4389 112.145 18.5185 112.145 18.5941C112.145 18.8921 113.144 19.6852 113.52 19.6852C113.588 19.6852 113.675 19.7124 113.713 19.7457C113.861 19.8749 114.826 20.1085 115.456 20.1676C115.656 20.1863 115.886 20.231 115.966 20.2668C116.046 20.3026 116.25 20.3502 116.42 20.3724C117.123 20.4645 117.315 20.5044 117.353 20.5663C117.375 20.6021 117.456 20.6313 117.532 20.6313C117.901 20.6313 118.621 21.2421 118.622 21.5549C118.622 21.6426 118.655 21.7346 118.695 21.7594C118.797 21.8227 118.783 22.581 118.674 22.895C118.538 23.2846 118.248 23.6779 118.022 23.7794C117.911 23.8288 117.821 23.8938 117.821 23.9241C117.821 23.9544 117.742 23.9791 117.644 23.9791C117.546 23.9791 117.448 24.0076 117.427 24.0425C117.313 24.2263 115.564 24.2749 114.219 24.1317C113.779 24.0849 113.189 24.0288 112.909 24.0071C112.629 23.9855 112.368 23.9376 112.33 23.9007C112.196 23.7703 112.165 23.839 112.125 24.3612C112.102 24.6514 112.061 24.9462 112.034 25.0162C111.992 25.1224 112.025 25.1436 112.232 25.1436C112.368 25.1436 112.511 25.1735 112.549 25.2102C112.587 25.2468 112.814 25.2949 113.054 25.317C113.295 25.3391 113.868 25.3951 114.328 25.4415C115.421 25.5517 116.487 25.5563 117.166 25.4538C118.097 25.3132 118.167 25.2936 118.791 24.9931C119.156 24.8175 119.932 24.0499 119.932 23.8648C119.932 23.8065 119.961 23.7019 119.996 23.6324C120.163 23.3021 120.223 22.9248 120.22 22.2273C120.217 21.5293 120.111 20.8591 119.984 20.7319C119.955 20.7032 119.932 20.6266 119.932 20.5616C119.932 20.3677 119.348 19.866 118.831 19.6161C118.359 19.388 118.008 19.2725 117.567 19.2012C117.447 19.1817 117.283 19.137 117.203 19.1018C117.123 19.0666 116.91 19.0216 116.73 19.0019C116.321 18.957 115.359 18.7655 114.756 18.6089C114.285 18.4863 113.727 18.1358 113.575 17.8657C113.462 17.6652 113.432 17.4798 113.436 16.9949C113.438 16.6149 113.471 16.3684 113.52 16.352C113.564 16.3373 113.6 16.2848 113.6 16.2353C113.6 16.032 114.193 15.5368 114.436 15.5368C114.497 15.5368 114.546 15.5077 114.546 15.472C114.546 15.4364 114.669 15.3828 114.819 15.3529C115.231 15.2708 117.247 15.2906 118.113 15.385C118.533 15.4309 119.098 15.4865 119.368 15.5086L119.859 15.5488V15.0757C119.859 14.8155 119.877 14.5551 119.9 14.4971C119.949 14.3696 119.792 14.3152 119.095 14.2174C117.615 14.0096 115.209 13.8865 114.947 14.0052ZM56.7108 18.266C56.7261 20.7292 56.7666 22.5 56.8132 22.7419C56.9201 23.2957 57.1743 24.0297 57.3847 24.3922C57.5864 24.7398 58.0422 25.1436 58.2329 25.1436C58.3038 25.1436 58.3618 25.1763 58.3618 25.2163C58.3618 25.2564 58.4581 25.2891 58.5759 25.2891C58.6936 25.2891 58.8073 25.3172 58.8285 25.3516C58.8796 25.4342 59.6537 25.5302 60.2904 25.5326C60.8294 25.5348 61.4796 25.4615 61.7824 25.3644C61.8825 25.3323 62.1117 25.2625 62.2918 25.2093C62.472 25.1562 62.8598 24.9885 63.1537 24.8369C63.4476 24.6854 63.7178 24.5613 63.7542 24.5613C63.7905 24.5613 63.8202 24.7251 63.8202 24.9252V25.2891H64.5662H65.3121L65.2953 19.7498L65.2785 14.2104L64.5493 14.2004L63.8201 14.1904L63.8202 18.7822V23.374L63.4745 23.5389C63.2844 23.6297 63.0719 23.7331 63.0024 23.7687C62.9329 23.8044 62.8121 23.8336 62.7338 23.8336C62.6556 23.8336 62.5713 23.8663 62.5466 23.9063C62.5218 23.9464 62.4072 23.9791 62.2918 23.9791C62.1765 23.9791 62.0645 24.0076 62.0429 24.0425C61.9499 24.1929 60.3759 24.2794 59.8174 24.1648C59.2194 24.042 58.6833 23.6276 58.5046 23.15C58.458 23.0256 58.3923 22.8583 58.3586 22.7783C58.2214 22.4527 58.1955 21.8106 58.1689 18.0841L58.141 14.1904H57.4133H56.6856L56.7108 18.266ZM98.4443 15.3117C98.5144 15.3487 98.6897 15.4301 98.8338 15.4926C99.1571 15.6326 99.6407 16.1468 99.8065 16.5266C99.8746 16.6827 99.9604 16.8673 99.9971 16.9368C100.034 17.0063 100.064 17.1763 100.064 17.3146C100.064 17.4529 100.097 17.5863 100.137 17.611C100.178 17.6363 100.209 17.9878 100.209 18.4159V19.1758H97.1447H94.08L94.1236 18.6481C94.1958 17.7737 94.2521 17.3963 94.3213 17.3235C94.3575 17.2856 94.387 17.1986 94.387 17.1303C94.387 16.7281 95.1389 15.7992 95.6722 15.5424C96.2098 15.2836 96.2956 15.2527 96.5704 15.2183C96.9619 15.1692 98.301 15.236 98.4443 15.3117ZM50.1015 15.3185C50.1262 15.3585 50.2254 15.3913 50.3219 15.3913C50.7386 15.3913 51.4451 15.9822 51.7141 16.5557C52.0715 17.3179 52.1988 18.1088 52.206 19.6124C52.2118 20.8468 52.0807 22.1926 51.9464 22.2756C51.9124 22.2966 51.8846 22.4082 51.8846 22.5235C51.8846 22.6389 51.8518 22.7535 51.8118 22.7783C51.7717 22.803 51.739 22.8894 51.739 22.9703C51.739 23.2038 50.9556 23.9322 50.5927 24.0361C50.4227 24.0848 50.1607 24.1597 50.0105 24.2025C49.6904 24.2939 48.1106 24.2563 47.7351 24.1484C47.2952 24.0221 46.9414 23.8247 46.6725 23.5559C46.3855 23.2689 46.0623 22.6593 46.0623 22.4051C46.0623 22.3148 46.0336 22.2233 45.9986 22.2017C45.8786 22.1275 45.8212 21.3212 45.8219 19.7216C45.8228 17.8449 45.8905 17.3519 46.253 16.5818C46.5281 15.9975 47.0115 15.6015 47.7726 15.3371C48.0586 15.2377 50.0418 15.2219 50.1015 15.3185ZM87.3639 15.3527C87.6041 15.3775 87.8745 15.4347 87.965 15.4799L88.1293 15.5621L88.1106 19.4607L88.0917 23.3593L87.8006 23.5178C87.6405 23.605 87.4377 23.6789 87.35 23.6821C87.2623 23.6854 87.1703 23.7208 87.1456 23.7608C87.1209 23.8008 87.0226 23.8336 86.9273 23.8336C86.8319 23.8336 86.7337 23.8663 86.7089 23.9063C86.6842 23.9464 86.5742 23.9791 86.4645 23.9791C86.3547 23.9791 86.2338 24.0087 86.1958 24.0448C86.0392 24.1937 84.5598 24.2732 84.0538 24.1599C83.6814 24.0766 83.3301 23.8582 83.0376 23.5283C82.7251 23.1757 82.4514 22.7125 82.4514 22.5361C82.4514 22.4652 82.422 22.376 82.3861 22.338C82.2643 22.2091 82.2163 21.6185 82.1857 19.8733C82.1656 18.7301 82.181 18.107 82.2305 18.0575C82.2719 18.0161 82.3058 17.8756 82.3058 17.7454C82.3058 17.6152 82.3427 17.4171 82.3877 17.3051C82.4327 17.1932 82.4938 17.0361 82.5235 16.956C82.8165 16.1659 83.3765 15.6352 84.2345 15.3344C84.459 15.2558 86.5422 15.2679 87.3639 15.3527Z" fill="black"/>
</g>
</g>
</g>
<defs>
<clipPath id="clip0_2_369">
<rect width="120" height="35" fill="white" transform="translate(0.220215 0.189941)"/>
</clipPath>
<clipPath id="clip1_2_369">
<rect width="120" height="35" fill="white" transform="translate(0.220215 0.189941)"/>
</clipPath>
</defs>
</svg>
