<svg width="90" height="48" viewBox="0 0 90 48" fill="none" xmlns="http://www.w3.org/2000/svg">
<path fill-rule="evenodd" clip-rule="evenodd" d="M51.8189 3.20655C52.2981 3.02731 52.8313 3.06223 53.2831 3.30244L69.9197 12.1483C70.7907 12.6114 71.1213 13.6929 70.6582 14.5639L69.8116 16.1543L83.4932 14.9576C84.4268 14.8759 85.2553 15.528 85.4096 16.4359L85.4282 16.5814L87.0711 35.3582C87.1153 35.8642 86.9421 36.365 86.5948 36.7355L85.6707 37.7212C85.3708 38.0411 84.9636 38.2396 84.5267 38.2787L65.6767 39.9647L65.6556 39.9664C64.6721 40.0428 63.813 39.3073 63.7367 38.3238L63.0092 28.9482L61.8093 31.2064C61.5973 31.6049 61.2434 31.9066 60.8211 32.054L60.6597 32.102L59.3481 32.4253C58.9221 32.5304 58.4725 32.475 58.0848 32.2697L50.1864 28.0877L50.0166 27.9977L42.7394 43.2107C42.5771 43.55 42.3125 43.8281 41.9847 44.0072L41.8405 44.0779L40.5888 44.6222C40.1196 44.8263 39.5854 44.8193 39.1216 44.603L22.0449 36.6401C21.1508 36.2231 20.764 35.1604 21.181 34.2664L23.8721 28.4932L10.1678 32.1945C9.21533 32.4516 8.23482 31.8881 7.97765 30.9358L7.97228 30.9153L3.29466 12.7423C3.1875 12.3259 3.23409 11.8849 3.42587 11.5002L4.0348 10.2787C4.26309 9.82068 4.67681 9.48262 5.17108 9.35018L23.3711 4.4735C24.3241 4.21817 25.3035 4.78364 25.5587 5.73649L28.8161 17.892L29.1468 17.1837C29.3376 16.7745 29.6751 16.4548 30.0891 16.2855L30.2478 16.2291L31.5409 15.8374C31.9606 15.7103 32.4125 15.7421 32.8104 15.9267L41.246 19.8404L49.5973 4.50356C49.7772 4.1732 50.056 3.90932 50.3927 3.74762L50.5404 3.68469L51.8189 3.20655Z" stroke="black" stroke-width="4.48615"/>
<path fill-rule="evenodd" clip-rule="evenodd" d="M51.8189 3.20655C52.2981 3.02731 52.8313 3.06223 53.2831 3.30244L69.9197 12.1483C70.7907 12.6114 71.1213 13.6929 70.6582 14.5639L69.8116 16.1543L83.4932 14.9576C84.4268 14.8759 85.2553 15.528 85.4096 16.4359L85.4282 16.5814L87.0711 35.3582C87.1153 35.8642 86.9421 36.365 86.5948 36.7355L85.6707 37.7212C85.3708 38.0411 84.9636 38.2396 84.5267 38.2787L65.6767 39.9647L65.6556 39.9664C64.6721 40.0428 63.813 39.3073 63.7367 38.3238L63.0092 28.9482L61.8093 31.2064C61.5973 31.6049 61.2434 31.9066 60.8211 32.054L60.6597 32.102L59.3481 32.4253C58.9221 32.5304 58.4725 32.475 58.0848 32.2697L50.1864 28.0877L50.0166 27.9977L42.7394 43.2107C42.5771 43.55 42.3125 43.8281 41.9847 44.0072L41.8405 44.0779L40.5888 44.6222C40.1196 44.8263 39.5854 44.8193 39.1216 44.603L22.0449 36.6401C21.1508 36.2231 20.764 35.1604 21.181 34.2664L23.8721 28.4932L10.1678 32.1945C9.21533 32.4516 8.23482 31.8881 7.97765 30.9358L7.97228 30.9153L3.29466 12.7423C3.1875 12.3259 3.23409 11.8849 3.42587 11.5002L4.0348 10.2787C4.26309 9.82068 4.67681 9.48262 5.17108 9.35018L23.3711 4.4735C24.3241 4.21817 25.3035 4.78364 25.5587 5.73649L28.8161 17.892L29.1468 17.1837C29.3376 16.7745 29.6751 16.4548 30.0891 16.2855L30.2478 16.2291L31.5409 15.8374C31.9606 15.7103 32.4125 15.7421 32.8104 15.9267L41.246 19.8404L49.5973 4.50356C49.7772 4.1732 50.056 3.90932 50.3927 3.74762L50.5404 3.68469L51.8189 3.20655Z" stroke="black" stroke-width="1.99385"/>
<path fill-rule="evenodd" clip-rule="evenodd" d="M53.1296 3.22999L53.2831 3.30244L69.9197 12.1483C70.7449 12.587 71.085 13.5808 70.7248 14.4247L70.6582 14.5639L69.8116 16.1543L83.4932 14.9576C84.4268 14.8759 85.2553 15.528 85.4096 16.4359L85.4282 16.5814L87.0711 35.3582C87.1103 35.808 86.9779 36.2537 86.704 36.6074L86.5948 36.7355L85.6707 37.7212C85.4082 38.0012 85.0638 38.1881 84.689 38.2566L84.5267 38.2787L65.6767 39.9648L65.6556 39.9664C64.7213 40.0389 63.8992 39.3788 63.754 38.4694L63.7367 38.3238L63.0092 28.9482L61.8093 31.2064C61.5973 31.6049 61.2434 31.9066 60.8211 32.054L60.6597 32.102L59.3481 32.4253C58.9754 32.5172 58.5846 32.4862 58.233 32.3396L58.0848 32.2697L50.1864 28.0877L50.0166 27.9977L42.7394 43.2107C42.5771 43.55 42.3125 43.8281 41.9847 44.0072L41.8405 44.0779L40.5888 44.6222C40.1718 44.8036 39.7033 44.8182 39.2786 44.6674L39.1216 44.603L22.0449 36.6401C21.1979 36.2451 20.8061 35.2705 21.1217 34.4089L21.181 34.2664L23.8721 28.4932L10.1678 32.1945C9.21533 32.4516 8.23483 31.8881 7.97765 30.9358L7.97228 30.9153L3.29466 12.7423C3.1875 12.326 3.23409 11.885 3.42587 11.5002L4.0348 10.2787C4.26309 9.82068 4.67681 9.48262 5.17108 9.35018L23.3711 4.4735C24.3241 4.21818 25.3035 4.78364 25.5587 5.7365L28.8161 17.892L29.1468 17.1837C29.3376 16.7745 29.6751 16.4548 30.0891 16.2855L30.2478 16.2291L31.5409 15.8374C31.9082 15.7263 32.3 15.7367 32.6587 15.8646L32.8104 15.9267L41.246 19.8404L49.5973 4.50357C49.7772 4.17321 50.056 3.90932 50.3927 3.74762L50.5404 3.68469L51.8189 3.20655C52.2449 3.04723 52.7135 3.05711 53.1296 3.22999ZM31.5079 19.9662C31.0107 19.7342 30.4194 19.9494 30.1875 20.4468L23.932 33.8619C23.7001 34.3592 23.9152 34.9504 24.4126 35.1823L37.8276 41.4379C38.325 41.6698 38.9161 41.4546 39.148 40.9572L45.4036 27.5422C45.6356 27.0448 45.4204 26.4537 44.9231 26.2218L31.5079 19.9662ZM82.1716 17.4039L68.5122 18.599L66.7158 21.9765L67.8129 34.516C67.8607 35.0627 68.3427 35.467 68.8893 35.4193L83.6349 34.1292C84.1816 34.0813 84.586 33.5994 84.5381 33.0528L83.248 18.3072C83.2003 17.7605 82.7183 17.3562 82.1716 17.4039ZM53.0658 6.94188L46.1168 20.0113C45.8592 20.4958 46.043 21.0974 46.5276 21.355L59.5969 28.304C60.0815 28.5617 60.6831 28.3778 60.9407 27.8933L67.8898 14.8239C68.1473 14.3394 67.9635 13.7378 67.479 13.4801L54.4096 6.53106C53.9251 6.27343 53.3234 6.45737 53.0658 6.94188ZM23.7114 7.8147C23.5693 7.28465 23.0245 6.9701 22.4945 7.11212L8.19686 10.9431C7.66681 11.0852 7.35224 11.63 7.49428 12.1601L11.3254 26.4576C11.4674 26.9876 12.0122 27.3022 12.5423 27.1602L26.1979 23.5012L27.2873 21.1605L23.7114 7.8147Z" fill="black"/>
<path fill-rule="evenodd" clip-rule="evenodd" d="M70.1914 20.9321L79.6088 20.108L79.8379 22.7347L73.9651 23.2478L74.1352 25.1846L79.29 24.7282L79.51 27.2167L74.3529 27.6668L74.5371 29.7758L80.6365 29.2419L80.8664 31.8692L71.2192 32.7128L70.1914 20.9321Z" fill="black"/>
<path fill-rule="evenodd" clip-rule="evenodd" d="M18.4542 23.7777C20.0963 23.3377 21.2316 22.5903 21.86 21.5356C22.4884 20.4809 22.5812 19.1266 22.1379 17.4727L20.1391 10.0128L11.9688 12.202L12.7961 15.2901L16.9246 14.1839L18.1613 18.7986C18.2945 19.2959 18.2824 19.702 18.1251 20.0169C17.9677 20.3317 17.6751 20.5465 17.2472 20.6611C16.9119 20.751 16.5618 20.7395 16.1968 20.6265C15.8319 20.5136 15.4334 20.2981 15.001 19.98L13.4952 23.1726C14.1506 23.6293 14.9039 23.9078 15.755 24.0081C16.6063 24.1086 17.5059 24.0318 18.4542 23.7777Z" fill="black"/>
<path fill-rule="evenodd" clip-rule="evenodd" d="M32.1442 36.4481C33.8001 37.2202 35.2987 37.3763 36.6402 36.9163C37.9817 36.4563 39.0276 35.4217 39.7778 33.8127L42.5379 27.8938L38.9586 26.2248L36.2488 32.036C35.8808 32.8251 35.4718 33.3332 35.0217 33.56C34.5715 33.7867 34.0791 33.7755 33.5442 33.5261C33.0093 33.2767 32.6842 32.9067 32.5686 32.4161C32.453 31.9255 32.5792 31.2856 32.9472 30.4964L35.657 24.6853L32.0161 22.9874L29.2561 28.9063C28.5058 30.5153 28.3855 31.9815 28.8955 33.3048C29.4053 34.6281 30.4883 35.6759 32.1442 36.4481Z" fill="black"/>
<path fill-rule="evenodd" clip-rule="evenodd" d="M49.3438 19.7587L52.3248 21.3462L55.1083 16.1099L56.7677 23.7078L59.3424 25.0779L64.6604 15.0762L61.6768 13.4907L58.8932 18.727L57.2334 11.1264L54.658 9.75793L49.3438 19.7587Z" fill="black"/>
</svg>
