<svg width="129" height="46" viewBox="0 0 129 46" fill="none" xmlns="http://www.w3.org/2000/svg">
<g clip-path="url(#clip0_2_365)">
<g clip-path="url(#clip1_2_365)">
<path fill-rule="evenodd" clip-rule="evenodd" d="M45.5303 22.6899C45.5303 35.1163 35.4567 45.1899 23.0303 45.1899C10.6039 45.1899 0.530273 35.1163 0.530273 22.6899C0.530273 10.2635 10.6039 0.189941 23.0303 0.189941C35.4567 0.189941 45.5303 10.2635 45.5303 22.6899ZM28.409 25.0536L31.0978 24.3744C33.4275 23.786 35.802 25.2029 36.3903 27.5327C36.9787 29.8624 35.5619 32.2368 33.2322 32.8253C30.9024 33.4136 28.5281 31.9967 27.9397 29.667L27.2606 26.9781L21.1147 28.5304L21.7938 31.2193C22.3821 33.549 20.9654 35.9235 18.6356 36.5118C16.3059 37.1003 13.9316 35.6834 13.3431 33.3537C12.7548 31.0239 14.1717 28.6495 16.5013 28.0611L19.1902 27.382L17.6379 21.2359L14.9491 21.915C12.6194 22.5035 10.245 21.0866 9.65662 18.7568C9.06817 16.4271 10.485 14.0527 12.8147 13.4642C15.1444 12.8759 17.5189 14.2928 18.1072 16.6225L18.7863 19.3114L24.9323 17.7591L24.2531 15.0702C23.6647 12.7405 25.0815 10.366 27.4113 9.77767C29.741 9.18921 32.1153 10.6061 32.7038 12.9358C33.2921 15.2656 31.8752 17.64 29.5456 18.2283L26.8567 18.9075L28.409 25.0536ZM27.7994 11.3141C26.3167 11.6886 25.4152 13.1997 25.7896 14.6821L26.4687 17.371L29.1575 16.6919C30.6402 16.3174 31.5416 14.8062 31.1672 13.3238C30.7928 11.8416 29.2821 10.9396 27.7994 11.3141ZM11.1931 18.3687C11.5675 19.8511 13.0783 20.753 14.561 20.3786L17.2499 19.6994L16.5708 17.0105C16.1964 15.5282 14.6855 14.6263 13.2028 15.0008C11.7201 15.3752 10.8187 16.8865 11.1931 18.3687ZM18.2475 34.9754C19.7303 34.6009 20.6316 33.0897 20.2574 31.6073L19.5782 28.9184L16.8894 29.5976C15.4067 29.9721 14.5053 31.4833 14.8797 32.9656C15.2541 34.4479 16.7648 35.3499 18.2475 34.9754ZM19.1744 20.8478L20.7266 26.9939L26.8726 25.4416L25.3203 19.2956L19.1744 20.8478ZM29.4762 29.2789C29.8506 30.7613 31.3614 31.6632 32.8441 31.2887C34.3269 30.9143 35.2282 29.403 34.8539 27.9208C34.4795 26.4384 32.9686 25.5365 31.4859 25.9109L28.797 26.59L29.4762 29.2789Z" fill="#010101"/>
<path d="M71.7567 30.2913V34.02H57.5303V9.73291H62.0485V30.2913H71.7567ZM85.1107 26.6633C83.9125 26.7194 82.9048 26.8256 82.0874 26.9824C81.27 27.128 80.615 27.3184 80.1222 27.5535C79.6295 27.7887 79.2768 28.063 79.0641 28.3765C78.8514 28.69 78.7449 29.0316 78.7449 29.4011C78.7449 30.129 78.9576 30.6496 79.3832 30.9631C79.8199 31.2766 80.3853 31.4334 81.0796 31.4334C81.9306 31.4334 82.6641 31.2822 83.2799 30.9799C83.907 30.6664 84.5172 30.1961 85.1107 29.569V26.6633ZM75.6041 19.1891C77.586 17.3751 79.9711 16.4681 82.7592 16.4681C83.767 16.4681 84.6683 16.6361 85.4634 16.972C86.2585 17.2967 86.9303 17.7558 87.479 18.3493C88.0276 18.9315 88.442 19.6314 88.7219 20.4488C89.0131 21.2662 89.1586 22.162 89.1586 23.1361V34.02H87.2774C86.8854 34.02 86.5831 33.964 86.3704 33.852C86.1577 33.7288 85.9898 33.4882 85.8665 33.1298L85.497 31.8869C85.0603 32.2789 84.6348 32.6259 84.2205 32.9283C83.8062 33.2194 83.375 33.4657 82.9272 33.6673C82.4793 33.8688 81.9978 34.02 81.4827 34.1208C80.9788 34.2327 80.4189 34.2887 79.8031 34.2887C79.0752 34.2887 78.4034 34.1936 77.7876 34.0032C77.1718 33.8017 76.6398 33.505 76.1919 33.113C75.7441 32.7211 75.3969 32.234 75.1506 31.6518C74.9043 31.0695 74.781 30.392 74.781 29.6194C74.781 29.1827 74.8539 28.7517 74.9994 28.3261C75.1449 27.8894 75.3801 27.4752 75.7048 27.0832C76.0408 26.6913 76.4718 26.3217 76.9981 25.9747C77.5245 25.6276 78.1682 25.3253 78.9297 25.0677C79.7023 24.8101 80.5982 24.603 81.6171 24.4462C82.636 24.2783 83.8006 24.1775 85.1107 24.1439V23.1361C85.1107 21.9828 84.8644 21.1318 84.3717 20.5831C83.8789 20.0233 83.168 19.7433 82.2386 19.7433C81.5667 19.7433 81.0068 19.8217 80.5589 19.9785C80.1222 20.1352 79.7359 20.3144 79.4 20.516C79.0641 20.7063 78.7561 20.8799 78.4762 21.0366C78.2075 21.1934 77.9051 21.2718 77.5692 21.2718C77.278 21.2718 77.0317 21.199 76.8302 21.0534C76.6286 20.8967 76.4663 20.7175 76.3431 20.516L75.6041 19.1891ZM107.124 18.5004C107.124 18.7916 107.074 19.0771 106.973 19.357C106.872 19.637 106.738 19.8665 106.57 20.0457L98.3902 30.8287H106.872V34.02H93.5697V32.29C93.5697 32.0996 93.6145 31.8758 93.7041 31.6182C93.7936 31.3494 93.9279 31.0975 94.1072 30.8623L102.371 19.9617H94.0568V16.7872H107.124V18.5004ZM127.53 16.7872L118.141 38.7565C118.018 39.0477 117.855 39.266 117.654 39.4115C117.463 39.5684 117.167 39.6467 116.764 39.6467H113.673L116.898 32.7267L109.928 16.7872H113.572C113.897 16.7872 114.149 16.8656 114.328 17.0224C114.519 17.1791 114.658 17.3583 114.748 17.5598L118.41 26.4954C118.533 26.7977 118.634 27.1 118.712 27.4023C118.802 27.7047 118.886 28.0127 118.964 28.3261C119.065 28.0127 119.165 27.7047 119.266 27.4023C119.367 27.0889 119.479 26.7809 119.602 26.4786L123.062 17.5598C123.152 17.3359 123.297 17.1511 123.499 17.0056C123.712 16.86 123.947 16.7872 124.204 16.7872H127.53Z" fill="black"/>
</g>
</g>
<defs>
<clipPath id="clip0_2_365">
<rect width="128" height="45" fill="white" transform="translate(0.530273 0.189941)"/>
</clipPath>
<clipPath id="clip1_2_365">
<rect width="128" height="45" fill="white" transform="translate(0.530273 0.189941)"/>
</clipPath>
</defs>
</svg>
