<svg width="141" height="20" viewBox="0 0 141 20" fill="none" xmlns="http://www.w3.org/2000/svg">
<g clip-path="url(#clip0_2_236)">
<g clip-path="url(#clip1_2_236)">
<mask id="mask0_2_236" style="mask-type:luminance" maskUnits="userSpaceOnUse" x="0" y="1" width="141" height="19">
<path d="M140.84 1.00647H0.839844V19.1099H140.84V1.00647Z" fill="white"/>
</mask>
<g mask="url(#mask0_2_236)">
<path d="M28.9821 15.104C31.675 15.104 33.5903 13.008 33.5903 10.0588C33.5903 7.10957 31.6738 5.01356 28.9821 5.01356C26.2906 5.01356 24.374 7.10957 24.374 10.0588C24.374 13.008 26.2906 15.104 28.9821 15.104ZM37.7377 10.0588C37.7377 15.2026 33.9784 19.1099 28.9821 19.1099C23.9859 19.1099 20.2266 15.2026 20.2266 10.0588C20.2266 4.91492 23.9859 1.00647 28.9821 1.00647C33.9784 1.00647 37.7377 4.91369 37.7377 10.0588Z" fill="black"/>
<path d="M43.2736 1.40247V8.42659L49.3375 1.40247H54.8912L47.3726 9.61389L55.6435 18.7143H49.9916L43.2736 11.1711V18.7143H39.1504V1.40247H43.2736Z" fill="black"/>
<path d="M66.4549 11.5916L64.8018 6.96677L63.1564 11.5916H66.4549ZM67.8613 15.5H61.7488L60.6099 18.7143H56.2168L62.8406 1.40247H66.7707L73.3869 18.7143H69.0014L67.8613 15.5Z" fill="black"/>
<path d="M93.0071 11.7154L96.5726 13.2726C95.1654 16.9086 92.4012 19.1094 88.3504 19.1094C82.7955 19.1094 79.8125 15.0283 79.8125 10.3788C79.8125 5.70472 82.8208 1.00842 88.7145 1.00842C92.0613 1.00842 94.4626 2.44358 96.0396 5.06483L92.8135 7.48509C91.9406 5.90321 90.4122 5.01921 88.5439 5.01921C85.4644 5.01921 83.9602 7.48508 83.9602 10.0398C83.9602 12.9076 85.828 15.085 88.6417 15.085C90.7759 15.085 92.2548 13.8237 93.0071 11.7215V11.7154Z" fill="black"/>
<path d="M75.4766 14.3749C75.1974 14.5807 74.5602 14.8791 74.3389 15.1479C74.0887 15.4537 74.0802 15.5659 74.0621 15.9641C74.0223 16.8038 74.3232 17.6903 74.9677 18.2081C75.1141 18.3211 75.267 18.4249 75.4259 18.5188C75.5792 18.6196 75.7413 18.7062 75.9095 18.7777C76.1171 18.8514 76.3343 18.893 76.554 18.901C77.1313 18.9603 77.713 18.845 78.2263 18.5694C78.7268 18.2784 79.1162 17.7568 79.1645 17.1712C79.189 16.8777 79.1295 16.5831 79.121 16.2884C79.1114 15.9469 79.1717 15.6041 79.1536 15.2626C79.1355 14.921 79.0173 14.5573 78.7401 14.3637C78.6017 14.2787 78.45 14.2174 78.2915 14.1825C77.7814 14.0432 77.2033 13.8607 76.6763 13.8817C76.2144 13.9002 75.8298 14.1061 75.4766 14.3749Z" fill="black" fill-opacity="0.32"/>
<path d="M120.756 8.77425C121.945 8.77425 122.793 8.15781 122.793 6.94336C122.793 5.78068 122.042 5.26159 120.901 5.26159H118.33V8.77425H120.756ZM126.923 6.62156C126.923 8.62508 125.783 10.5054 123.697 11.3955L127.844 18.7156H123.065L119.689 12.4324H118.33V18.7205H114.207V1.40247H121.271C125.177 1.40247 126.923 3.87576 126.923 6.62031V6.62156Z" fill="black"/>
<path d="M133.688 5.40956V8.03081H139.581V12.0367H133.688V14.7085H140.842V18.7143H129.565V1.40247H140.649V5.40956H133.688Z" fill="black"/>
<path d="M14.7137 8.98129V18.75H18.8369V1.43811H13.7186L9.83838 10.737L5.957 1.43811H0.839844V18.75H4.96308V8.98129L7.47085 14.7305C7.52649 14.8403 8.24471 16.3543 9.85049 16.3543C11.4562 16.3543 12.2119 14.733 12.2119 14.733" fill="black"/>
<path d="M106.341 11.5916L104.692 6.96677L103.042 11.5916H106.341ZM107.747 15.5H101.636L100.496 18.7143H96.1055L102.727 1.40247H106.657L113.278 18.7143H108.887L107.747 15.5Z" fill="black"/>
</g>
</g>
</g>
<defs>
<clipPath id="clip0_2_236">
<rect width="140" height="19" fill="white" transform="translate(0.839844 0.359985)"/>
</clipPath>
<clipPath id="clip1_2_236">
<rect width="140" height="19" fill="white" transform="translate(0.839844 0.359985)"/>
</clipPath>
</defs>
</svg>
