<svg width="105" height="29" viewBox="0 0 105 29" fill="none" xmlns="http://www.w3.org/2000/svg">
<g clip-path="url(#clip0_2_291)">
<g clip-path="url(#clip1_2_291)">
<mask id="mask0_2_291" style="mask-type:luminance" maskUnits="userSpaceOnUse" x="0" y="0" width="105" height="29">
<path d="M104.47 0.689941H0.470215V28.6899H104.47V0.689941Z" fill="white"/>
</mask>
<g mask="url(#mask0_2_291)">
<path d="M96.0053 24.4985C95.8042 24.4985 95.5942 24.4916 95.3753 24.4776C93.7983 24.3784 92.7774 23.6746 92.1989 23.1011C91.5689 22.4773 91.3164 21.8774 91.3058 21.8518C91.2841 21.796 91.2852 21.7339 91.3087 21.6788C91.3321 21.6237 91.3762 21.58 91.4314 21.557C91.4867 21.534 91.5487 21.5336 91.6042 21.5558C91.6598 21.578 91.7045 21.621 91.7287 21.6758C91.7307 21.6806 91.9653 22.229 92.5354 22.789C93.2943 23.5347 94.2593 23.9488 95.4039 24.0222C96.8217 24.1117 97.7982 23.9075 98.307 23.4128C98.59 23.1381 98.726 22.7667 98.7117 22.3084C98.677 21.21 96.4669 20.9057 94.3303 20.6115C93.5826 20.5063 92.8095 20.4013 92.1079 20.2579C90.4183 19.9158 89.0555 19.1621 88.1644 18.0784C87.3454 17.0821 86.9637 15.8389 87.0894 14.5776C87.2377 13.0927 88.0539 11.7207 89.3883 10.7138C90.8774 9.58996 92.9163 8.99517 95.2828 8.99316H95.2928C97.5885 8.99316 99.4682 9.37515 100.879 10.1285C102.736 11.1199 103.779 12.7468 103.979 14.9645C103.985 15.0251 103.966 15.0854 103.927 15.1322C103.888 15.1789 103.832 15.2082 103.772 15.2137C103.711 15.2192 103.651 15.2004 103.604 15.1614C103.557 15.1224 103.528 15.0664 103.523 15.0058C103.425 13.9232 103.111 12.9857 102.589 12.22C102.121 11.5317 101.472 10.9656 100.664 10.5335C99.3196 9.81651 97.5135 9.45201 95.2928 9.45201H95.283C93.0168 9.45201 91.0735 10.0158 89.6641 11.0795C88.4327 12.0083 87.6807 13.2665 87.545 14.6224C87.4304 15.7612 87.7769 16.8848 88.5186 17.7858C89.3422 18.7876 90.6148 19.4865 92.1992 19.8077C92.8851 19.9465 93.6511 20.052 94.3919 20.1538C95.578 20.3173 96.6985 20.4713 97.5705 20.756C98.6252 21.1002 99.1484 21.6023 99.1701 22.2912C99.1887 22.884 99.0058 23.3712 98.626 23.7394C98.1072 24.2442 97.2257 24.4983 96.0053 24.4985Z" fill="black"/>
<path d="M96.127 25.8031C95.8651 25.8031 95.5915 25.7947 95.3063 25.7779C94.2806 25.7188 93.3499 25.4747 92.5403 25.0526C91.8924 24.7154 91.3144 24.258 90.8371 23.7047C90.0195 22.7583 89.7578 21.849 89.7469 21.812C89.7304 21.7534 89.7379 21.6906 89.7677 21.6375C89.7974 21.5844 89.847 21.5454 89.9055 21.5289C89.9641 21.5124 90.0267 21.5199 90.0797 21.5497C90.1327 21.5795 90.1717 21.6292 90.1882 21.6878C90.1905 21.6958 90.4396 22.551 91.197 23.4211C91.6369 23.9275 92.1685 24.3459 92.7637 24.6543C93.5128 25.0423 94.3771 25.2668 95.3329 25.3219C96.9552 25.418 98.2054 25.2232 99.0494 24.7426C99.8844 24.2671 100.34 23.5172 100.442 22.45C100.535 21.4658 100.048 20.7764 98.9062 20.2805C97.8435 19.8188 96.3664 19.5923 94.9383 19.3735C94.4006 19.2911 93.8447 19.2057 93.3247 19.1096C91.8167 18.8306 90.5965 18.2206 89.7959 17.3476C89.0579 16.5418 88.7077 15.5369 88.8099 14.5182C88.9273 13.3482 89.6117 12.2765 90.7383 11.5004C91.9822 10.643 93.6763 10.21 95.6382 10.2435C99.7927 10.3215 102.142 11.951 102.432 14.9496C102.436 14.9799 102.433 15.0107 102.425 15.0402C102.416 15.0696 102.402 15.097 102.383 15.1209C102.364 15.1448 102.34 15.1646 102.314 15.1791C102.287 15.1937 102.257 15.2027 102.227 15.2057C102.196 15.2086 102.166 15.2055 102.136 15.1964C102.107 15.1873 102.08 15.1725 102.057 15.1527C102.034 15.133 102.014 15.1088 102 15.0815C101.987 15.0543 101.978 15.0245 101.976 14.994C101.831 13.5027 101.128 12.3826 99.8858 11.6673C98.8337 11.0611 97.4019 10.7359 95.6299 10.7012C91.5315 10.6289 89.4579 12.6513 89.2661 14.563C89.177 15.4497 89.4852 16.3281 90.1338 17.0362C90.8666 17.836 91.9988 18.3964 93.4083 18.6574C93.9212 18.7523 94.4736 18.8369 95.0079 18.9186C96.4649 19.142 97.9718 19.3732 99.0889 19.8584C100.42 20.4368 101.012 21.2986 100.898 22.4925C100.783 23.7024 100.237 24.5935 99.2761 25.1403C98.4944 25.5843 97.4592 25.8031 96.127 25.8031Z" fill="black"/>
<path d="M96.1843 27.1192C95.8597 27.1192 95.5223 27.1096 95.172 27.0905C93.8164 27.0162 92.6022 26.693 91.5638 26.1301C90.7334 25.6813 90.0028 25.0683 89.4161 24.3282C88.4107 23.0621 88.1395 21.8475 88.1275 21.7962C88.12 21.7664 88.1186 21.7353 88.1234 21.7049C88.1281 21.6745 88.1389 21.6454 88.1551 21.6193C88.1713 21.5931 88.1926 21.5705 88.2177 21.5528C88.2428 21.5351 88.2712 21.5226 88.3013 21.5161C88.3313 21.5096 88.3623 21.5092 88.3925 21.515C88.4227 21.5207 88.4514 21.5325 88.4769 21.5496C88.5025 21.5667 88.5243 21.5887 88.5412 21.6144C88.5581 21.6402 88.5696 21.669 88.5751 21.6993C88.5777 21.7105 88.8405 22.8751 89.7864 24.0586C90.3347 24.7467 91.0166 25.3163 91.7909 25.7329C92.7671 26.2594 93.9123 26.562 95.1949 26.6322C99.4975 26.8734 101.693 25.5998 102.104 22.6216C102.316 21.0893 101.766 20.0448 100.374 19.3345C99.1077 18.6886 97.3383 18.4168 95.627 18.1524C95.2453 18.0936 94.8507 18.0328 94.4733 17.9694C93.1457 17.746 92.0678 17.2777 91.3602 16.6149C90.6999 15.9978 90.3814 15.2309 90.4636 14.4557C90.5544 13.5997 91.1111 12.8306 92.0306 12.2894C93.0269 11.7032 94.3745 11.4311 95.9277 11.5016C97.3309 11.5693 98.4608 11.8796 99.2861 12.4242C100.182 13.015 100.697 13.8633 100.819 14.945C100.823 14.9749 100.82 15.0052 100.812 15.0342C100.804 15.0632 100.79 15.0902 100.771 15.1138C100.752 15.1373 100.729 15.157 100.703 15.1716C100.676 15.1862 100.647 15.1954 100.617 15.1988C100.588 15.2022 100.557 15.1996 100.528 15.1913C100.499 15.183 100.472 15.169 100.449 15.1503C100.425 15.1315 100.406 15.1083 100.391 15.0819C100.377 15.0555 100.367 15.0266 100.364 14.9966C100.218 13.7021 99.3262 12.1248 95.9062 11.9599C94.4423 11.8933 93.1823 12.144 92.2628 12.6852C91.4716 13.1506 90.9943 13.7967 90.9192 14.5042C90.8525 15.1325 91.1197 15.7629 91.6729 16.2794C92.3161 16.8816 93.3106 17.3084 94.5492 17.5169C94.9234 17.5797 95.3166 17.6402 95.6966 17.6987C97.4434 17.968 99.2503 18.2464 100.582 18.9255C102.15 19.7259 102.797 20.9557 102.558 22.6847C102.315 24.4421 101.462 25.691 100.024 26.3968C99.0393 26.8806 97.7756 27.1192 96.1843 27.1192Z" fill="black"/>
<path d="M96.2883 28.4545C95.8536 28.4545 95.4293 28.4401 95.0186 28.4183C93.3334 28.3286 91.8363 27.9265 90.5688 27.223C89.5565 26.6631 88.6739 25.895 87.979 24.9692C86.786 23.385 86.5048 21.866 86.4934 21.8023C86.488 21.7726 86.4886 21.7422 86.4951 21.7128C86.5015 21.6834 86.5137 21.6555 86.5308 21.6308C86.548 21.606 86.5699 21.5849 86.5953 21.5687C86.6206 21.5524 86.6489 21.5413 86.6785 21.536C86.7081 21.5307 86.7385 21.5313 86.7679 21.5377C86.7972 21.5442 86.8251 21.5564 86.8498 21.5736C86.8745 21.5908 86.8955 21.6127 86.9117 21.6381C86.928 21.6634 86.9391 21.6918 86.9444 21.7214C86.9469 21.736 87.2233 23.2127 88.3573 24.7094C89.0145 25.5802 89.8479 26.3022 90.8028 26.8284C92.0055 27.4938 93.433 27.8746 95.043 27.9604C97.4455 28.088 99.2026 27.8614 100.572 27.2468C101.411 26.8706 102.097 26.3386 102.611 25.6655C103.186 24.913 103.57 23.954 103.752 22.8158C103.974 21.4232 103.78 20.3363 103.162 19.492C102.6 18.7254 101.667 18.1498 100.311 17.7317C99.087 17.3546 97.6795 17.1493 96.3181 16.9508C96.0797 16.916 95.843 16.8812 95.6082 16.8464C92.854 16.4326 91.9975 15.2835 92.1012 14.4251C92.1676 13.8745 92.6006 13.4039 93.3199 13.0996C94.0668 12.7842 95.0653 12.6726 96.2073 12.7776C97.1901 12.8682 97.9481 13.1478 98.4598 13.6092C98.8461 13.9574 99.0918 14.4065 99.1895 14.9439C99.1951 14.9737 99.1948 15.0042 99.1886 15.0339C99.1824 15.0635 99.1705 15.0916 99.1534 15.1166C99.1363 15.1416 99.1144 15.1629 99.089 15.1793C99.0636 15.1958 99.0353 15.2071 99.0055 15.2125C98.9758 15.218 98.9453 15.2174 98.9157 15.211C98.8862 15.2046 98.8582 15.1923 98.8334 15.175C98.8086 15.1577 98.7875 15.1356 98.7712 15.1101C98.755 15.0845 98.7439 15.056 98.7387 15.0262C98.5477 13.9772 97.6821 13.3746 96.1655 13.235C94.5069 13.0818 92.6785 13.4667 92.5573 14.4805C92.5147 14.8358 92.738 15.2095 93.1873 15.533C93.7446 15.9345 94.606 16.2318 95.6787 16.3933C95.9124 16.4283 96.1482 16.463 96.3863 16.4974C97.7648 16.6982 99.1903 16.9061 100.449 17.2938C101.902 17.7418 102.911 18.3721 103.534 19.221C104.23 20.1691 104.45 21.369 104.206 22.8889C103.448 27.6185 99.6098 28.4545 96.2883 28.4545Z" fill="black"/>
<path d="M78.9468 27.9508C78.8856 27.9508 78.827 27.9266 78.7838 27.8836C78.7406 27.8406 78.7163 27.7822 78.7163 27.7214V9.41497C78.7163 9.35412 78.7406 9.29577 78.7838 9.25274C78.827 9.20972 78.8856 9.18555 78.9468 9.18555C79.0079 9.18555 79.0665 9.20972 79.1097 9.25274C79.1529 9.29577 79.1772 9.35412 79.1772 9.41497V27.7214C79.1772 27.7822 79.1529 27.8406 79.1097 27.8836C79.0665 27.9266 79.0079 27.9508 78.9468 27.9508Z" fill="black"/>
<path d="M80.482 27.9508C80.4208 27.9508 80.3622 27.9266 80.319 27.8836C80.2758 27.8406 80.2515 27.7822 80.2515 27.7214V9.41497C80.2515 9.35412 80.2758 9.29577 80.319 9.25274C80.3622 9.20972 80.4208 9.18555 80.482 9.18555C80.5431 9.18555 80.6017 9.20972 80.6449 9.25274C80.6881 9.29577 80.7124 9.35412 80.7124 9.41497V27.7214C80.7124 27.7822 80.6881 27.8406 80.6449 27.8836C80.6017 27.9266 80.5431 27.9508 80.482 27.9508Z" fill="black"/>
<path d="M81.9213 27.9508C81.8602 27.9508 81.8016 27.9266 81.7583 27.8836C81.7151 27.8406 81.6909 27.7822 81.6909 27.7214V9.41497C81.6909 9.35412 81.7151 9.29577 81.7583 9.25274C81.8016 9.20972 81.8602 9.18555 81.9213 9.18555C81.9824 9.18555 82.041 9.20972 82.0842 9.25274C82.1274 9.29577 82.1517 9.35412 82.1517 9.41497V27.7214C82.1517 27.7822 82.1274 27.8406 82.0842 27.8836C82.041 27.9266 81.9824 27.9508 81.9213 27.9508Z" fill="black"/>
<path d="M83.4566 27.9508C83.3954 27.9508 83.3368 27.9266 83.2936 27.8836C83.2504 27.8406 83.2261 27.7822 83.2261 27.7214V9.41497C83.2261 9.35412 83.2504 9.29577 83.2936 9.25274C83.3368 9.20972 83.3954 9.18555 83.4566 9.18555C83.5177 9.18555 83.5763 9.20972 83.6195 9.25274C83.6627 9.29577 83.687 9.35412 83.687 9.41497V27.7214C83.687 27.7822 83.6627 27.8406 83.6195 27.8836C83.5763 27.9266 83.5177 27.9508 83.4566 27.9508Z" fill="black"/>
<path d="M81.3877 7.234C80.7647 7.234 80.1557 7.04899 79.6377 6.70236C79.1197 6.35572 78.716 5.86304 78.4775 5.28662C78.2391 4.71019 78.1768 4.0759 78.2983 3.46397C78.4198 2.85204 78.7198 2.28994 79.1604 1.84877C79.6009 1.40759 80.1622 1.10714 80.7732 0.985421C81.3842 0.8637 82.0176 0.926172 82.5932 1.16494C83.1688 1.4037 83.6607 1.80803 84.0068 2.3268C84.353 2.84557 84.5377 3.45548 84.5377 4.0794C84.5367 4.91575 84.2045 5.71756 83.614 6.30895C83.0235 6.90034 82.2229 7.23302 81.3877 7.234ZM81.3877 1.38366C80.8554 1.38366 80.3349 1.54176 79.8923 1.83797C79.4496 2.13418 79.1046 2.5552 78.9008 3.04778C78.6971 3.54037 78.6438 4.08239 78.7477 4.60532C78.8515 5.12824 79.1079 5.60858 79.4844 5.98559C79.8608 6.36259 80.3404 6.61934 80.8626 6.72335C81.3848 6.82737 81.926 6.77398 82.4178 6.56995C82.9097 6.36592 83.3301 6.02039 83.6259 5.57708C83.9217 5.13377 84.0795 4.61257 84.0795 4.0794C84.0787 3.3647 83.7948 2.67951 83.2902 2.17414C82.7856 1.66878 82.1014 1.38449 81.3877 1.38366Z" fill="black"/>
<path d="M81.3817 6.07322C80.8826 6.07231 80.4018 5.88425 80.0342 5.54608C79.6666 5.20791 79.4387 4.74415 79.3955 4.24614C79.3618 3.85247 79.4454 3.45763 79.6357 3.11154C79.8261 2.76546 80.1146 2.48367 80.4649 2.30182C80.8151 2.11996 81.2114 2.04621 81.6035 2.08988C81.9956 2.13355 82.366 2.29269 82.6678 2.54717C82.9696 2.80165 83.1893 3.14004 83.299 3.51955C83.4088 3.89906 83.4037 4.30265 83.2845 4.67928C83.1652 5.0559 82.9371 5.38865 82.629 5.63544C82.3209 5.88224 81.9466 6.03199 81.5535 6.06577C81.496 6.07064 81.4384 6.07322 81.3817 6.07322ZM79.852 4.20685C79.8779 4.51009 79.9931 4.79881 80.1829 5.0365C80.3728 5.27419 80.6287 5.45016 80.9184 5.54218C81.2081 5.6342 81.5185 5.63812 81.8104 5.55345C82.1023 5.46879 82.3626 5.29933 82.5584 5.06652C82.7541 4.8337 82.8765 4.54799 82.9102 4.2455C82.9438 3.94301 82.8871 3.63733 82.7472 3.36712C82.6073 3.09691 82.3906 2.8743 82.1244 2.72744C81.8582 2.58059 81.5545 2.51608 81.2517 2.54208C80.8459 2.57753 80.4707 2.77268 80.2083 3.08474C79.9459 3.39681 79.8178 3.80033 79.852 4.20685Z" fill="black"/>
<path d="M81.4316 5.01491C81.2079 5.01489 80.9925 4.93066 80.828 4.77895C80.6635 4.62724 80.5619 4.41914 80.5435 4.19594C80.5251 3.97274 80.5912 3.75077 80.7286 3.57407C80.866 3.39738 81.0647 3.27888 81.2853 3.2421C81.5059 3.20532 81.7322 3.25294 81.9194 3.37551C82.1066 3.49808 82.2409 3.68665 82.2957 3.90378C82.3505 4.12091 82.3217 4.35074 82.2152 4.54764C82.1086 4.74455 81.9321 4.89414 81.7205 4.96673C81.6275 4.9986 81.5299 5.01487 81.4316 5.01491ZM81.4316 3.68625C81.3834 3.68637 81.3356 3.69441 81.2901 3.71005C81.1878 3.74553 81.1026 3.81818 81.0513 3.91362C81 4.00906 80.9864 4.12032 81.0132 4.22533C81.04 4.33035 81.1052 4.42146 81.1959 4.4806C81.2866 4.53974 81.3961 4.56259 81.5028 4.54464C81.6096 4.52668 81.7057 4.46922 81.7721 4.38364C81.8385 4.29806 81.8704 4.19062 81.8614 4.08261C81.8524 3.9746 81.8033 3.87391 81.7237 3.8005C81.644 3.72708 81.5398 3.68631 81.4316 3.68625Z" fill="black"/>
<path d="M63.8229 5.66888C63.8229 5.60803 63.7988 5.54967 63.7558 5.50665C63.7129 5.46362 63.6546 5.43945 63.5938 5.43945C63.5331 5.43945 63.4748 5.46362 63.4318 5.50665C63.3889 5.54967 63.3647 5.60803 63.3647 5.66888C63.3647 6.80769 63.3647 8.07784 63.3647 9.39016H63.8229C63.8232 8.07727 63.8229 6.80769 63.8229 5.66888Z" fill="black"/>
<path d="M65.2623 5.28461C65.2623 5.22376 65.2382 5.16541 65.1952 5.12238C65.1523 5.07936 65.094 5.05518 65.0333 5.05518C64.9725 5.05518 64.9142 5.07936 64.8713 5.12238C64.8283 5.16541 64.8042 5.22376 64.8042 5.28461C64.8042 6.44378 64.8042 7.85962 64.8042 9.35892H65.2623C65.2626 7.85962 65.2623 6.44378 65.2623 5.28461Z" fill="black"/>
<path d="M66.7976 9.36104C66.7976 7.67706 66.7976 6.12041 66.7976 4.99651C66.7976 4.93567 66.7734 4.87731 66.7304 4.83429C66.6875 4.79126 66.6292 4.76709 66.5685 4.76709C66.5077 4.76709 66.4494 4.79126 66.4065 4.83429C66.3635 4.87731 66.3394 4.93567 66.3394 4.99651C66.3394 6.12156 66.3394 7.67706 66.3394 9.36104V9.42414H66.7976V9.36104Z" fill="black"/>
<path d="M68.237 4.61224C68.237 4.55139 68.2128 4.49303 68.1699 4.45001C68.1269 4.40698 68.0686 4.38281 68.0079 4.38281C67.9471 4.38281 67.8889 4.40698 67.8459 4.45001C67.8029 4.49303 67.7788 4.55139 67.7788 4.61224V9.39289H68.237V4.61224Z" fill="black"/>
<path d="M75.7622 27.0538C75.7469 27.0277 75.7266 27.0049 75.7025 26.9866C75.6784 26.9684 75.6509 26.9551 75.6216 26.9476C75.5923 26.94 75.5618 26.9383 75.5319 26.9427C75.502 26.947 75.4732 26.9572 75.4472 26.9727C74.7929 27.3584 73.463 27.7857 71.6936 27.8276C69.9138 27.8697 68.2286 27.4889 66.9494 26.755C65.989 26.2041 65.2376 25.4559 64.7158 24.531C64.1213 23.4774 63.8209 22.1848 63.8229 20.6881C63.8249 19.3038 63.8249 16.7661 63.8244 13.9883H63.3662C63.3662 16.7661 63.3662 19.3036 63.3648 20.6876C63.3627 22.2634 63.6832 23.632 64.3169 24.7556C64.8799 25.7536 65.6891 26.5597 66.7223 27.1519C68.334 28.0759 70.1197 28.2887 71.4215 28.2887C71.5186 28.2887 71.6134 28.2887 71.705 28.2853C73.2588 28.2486 74.782 27.8967 75.6803 27.3676C75.7327 27.3368 75.7707 27.2865 75.7861 27.2277C75.8014 27.1688 75.7928 27.1063 75.7622 27.0538Z" fill="black"/>
<path d="M64.8042 19.9746C64.8022 22.2138 65.4121 23.9488 66.6171 25.131C67.2569 25.7587 68.0604 26.2242 69.0054 26.511C69.7522 26.7404 70.5738 26.8551 71.4509 26.8551C71.5235 26.8551 71.5962 26.8543 71.6691 26.8528C73.3091 26.8172 74.8117 26.3481 75.5138 25.9268C75.566 25.8955 75.6036 25.8448 75.6183 25.7858C75.6331 25.7267 75.6239 25.6642 75.5927 25.612C75.5615 25.5598 75.5108 25.5222 75.4519 25.5073C75.393 25.4925 75.3306 25.5018 75.2784 25.533C74.6058 25.9365 73.1465 26.3618 71.6594 26.3934C69.1531 26.4473 67.7076 25.558 66.939 24.8026C65.8253 23.71 65.2618 22.0856 65.2638 19.9743C65.2638 18.8091 65.2638 16.5097 65.2638 13.9883H64.8056C64.8053 16.5103 64.8053 18.8094 64.8042 19.9746Z" fill="black"/>
<path d="M66.3405 19.2602C66.3405 21.4805 66.8986 23.1318 68.0014 24.1725C68.8808 25.0008 70.1188 25.4318 71.6036 25.4318C71.7671 25.4318 71.934 25.4263 72.1036 25.416C73.3587 25.3377 74.8137 24.8711 75.442 24.4851C75.4937 24.4533 75.5307 24.4021 75.5448 24.3429C75.5589 24.2837 75.549 24.2214 75.5171 24.1695C75.4853 24.1177 75.4342 24.0806 75.3751 24.0665C75.316 24.0524 75.2536 24.0624 75.202 24.0942C74.7151 24.3945 73.3832 24.8766 72.0751 24.958C71.911 24.9681 71.753 24.9729 71.6001 24.9729C69.896 24.9729 68.8797 24.3707 68.3153 23.8381C67.3076 22.8892 66.7975 21.3489 66.7975 19.2605C66.7975 18.2832 66.7975 16.2806 66.7975 13.9883H66.3394C66.3405 16.2806 66.3405 18.2829 66.3405 19.2602Z" fill="black"/>
<path d="M67.7788 18.5467C67.7788 20.755 68.2779 22.3182 69.2622 23.1926C69.887 23.747 70.708 24.0263 71.7094 24.0263C71.9559 24.0254 72.2021 24.0098 72.4468 23.9795C73.482 23.8539 74.8141 23.3414 75.2763 23.0438C75.3018 23.0275 75.3238 23.0064 75.3411 22.9817C75.3584 22.9569 75.3706 22.929 75.3771 22.8995C75.3836 22.87 75.3842 22.8394 75.3789 22.8097C75.3736 22.78 75.3624 22.7516 75.3461 22.7261C75.3298 22.7007 75.3086 22.6788 75.2838 22.6616C75.259 22.6443 75.2311 22.6322 75.2016 22.6259C75.1721 22.6195 75.1416 22.6191 75.1119 22.6245C75.0822 22.63 75.0539 22.6413 75.0286 22.6578C74.6738 22.8872 73.4216 23.3991 72.3918 23.5241C71.1862 23.6704 70.2355 23.4432 69.566 22.849C68.6843 22.0664 68.237 20.6193 68.237 18.5473V13.9883H67.7788V18.5467Z" fill="black"/>
<path d="M74.8056 14.2553H60.1387C60.078 14.2553 60.0197 14.2311 59.9768 14.1881C59.9338 14.1451 59.9097 14.0867 59.9097 14.0259C59.9097 13.965 59.9338 13.9067 59.9768 13.8636C60.0197 13.8206 60.078 13.7964 60.1387 13.7964H74.8056C74.8664 13.7964 74.9245 13.8206 74.9675 13.8636C75.0105 13.9067 75.0346 13.965 75.0346 14.0259C75.0346 14.0867 75.0105 14.1451 74.9675 14.1881C74.9245 14.2311 74.8664 14.2553 74.8056 14.2553Z" fill="black"/>
<path d="M74.8056 12.7182H60.1387C60.078 12.7182 60.0197 12.694 59.9768 12.651C59.9338 12.608 59.9097 12.5496 59.9097 12.4888C59.9097 12.4279 59.9338 12.3696 59.9768 12.3265C60.0197 12.2835 60.078 12.2593 60.1387 12.2593H74.8056C74.8664 12.2593 74.9245 12.2835 74.9675 12.3265C75.0105 12.3696 75.0346 12.4279 75.0346 12.4888C75.0346 12.5496 75.0105 12.608 74.9675 12.651C74.9245 12.694 74.8664 12.7182 74.8056 12.7182Z" fill="black"/>
<path d="M74.8056 11.2777H60.1387C60.078 11.2777 60.0197 11.2535 59.9768 11.2105C59.9338 11.1674 59.9097 11.1091 59.9097 11.0482C59.9097 10.9874 59.9338 10.929 59.9768 10.886C60.0197 10.843 60.078 10.8188 60.1387 10.8188H74.8056C74.8664 10.8188 74.9245 10.843 74.9675 10.886C75.0105 10.929 75.0346 10.9874 75.0346 11.0482C75.0346 11.1091 75.0105 11.1674 74.9675 11.2105C74.9245 11.2535 74.8664 11.2777 74.8056 11.2777Z" fill="black"/>
<path d="M74.8056 9.74059H60.1387C60.078 9.74059 60.0197 9.71642 59.9768 9.67339C59.9338 9.63036 59.9097 9.57201 59.9097 9.51116C59.9097 9.45032 59.9338 9.39196 59.9768 9.34893C60.0197 9.30591 60.078 9.28174 60.1387 9.28174H74.8056C74.8664 9.28174 74.9245 9.30591 74.9675 9.34893C75.0105 9.39196 75.0346 9.45032 75.0346 9.51116C75.0346 9.57201 75.0105 9.63036 74.9675 9.67339C74.9245 9.71642 74.8664 9.74059 74.8056 9.74059Z" fill="black"/>
<path d="M53.1349 27.936C53.0741 27.936 53.0158 27.9119 52.9729 27.8689C52.9299 27.8258 52.9058 27.7675 52.9058 27.7066V2.40276C52.9058 2.34192 52.9299 2.28356 52.9729 2.24054C53.0158 2.19751 53.0741 2.17334 53.1349 2.17334C53.1956 2.17334 53.2539 2.19751 53.2968 2.24054C53.3398 2.28356 53.364 2.34192 53.364 2.40276V27.7066C53.364 27.7675 53.3398 27.8258 53.2968 27.8689C53.2539 27.9119 53.1956 27.936 53.1349 27.936Z" fill="black"/>
<path d="M54.67 27.936C54.6092 27.936 54.5509 27.9119 54.508 27.8689C54.465 27.8258 54.4409 27.7675 54.4409 27.7066V2.40276C54.4409 2.34192 54.465 2.28356 54.508 2.24054C54.5509 2.19751 54.6092 2.17334 54.67 2.17334C54.7307 2.17334 54.789 2.19751 54.8319 2.24054C54.8749 2.28356 54.899 2.34192 54.899 2.40276V27.7066C54.899 27.7675 54.8749 27.8258 54.8319 27.8689C54.789 27.9119 54.7307 27.936 54.67 27.936Z" fill="black"/>
<path d="M56.1095 27.936C56.0487 27.936 55.9904 27.9119 55.9475 27.8689C55.9045 27.8258 55.8804 27.7675 55.8804 27.7066V2.40276C55.8804 2.34192 55.9045 2.28356 55.9475 2.24054C55.9904 2.19751 56.0487 2.17334 56.1095 2.17334C56.1702 2.17334 56.2285 2.19751 56.2715 2.24054C56.3144 2.28356 56.3386 2.34192 56.3386 2.40276V27.7066C56.3386 27.7675 56.3144 27.8258 56.2715 27.8689C56.2285 27.9119 56.1702 27.936 56.1095 27.936Z" fill="black"/>
<path d="M57.6446 27.936C57.5838 27.936 57.5256 27.9119 57.4826 27.8689C57.4396 27.8258 57.4155 27.7675 57.4155 27.7066V2.40276C57.4155 2.34192 57.4396 2.28356 57.4826 2.24054C57.5256 2.19751 57.5838 2.17334 57.6446 2.17334C57.7053 2.17334 57.7636 2.19751 57.8066 2.24054C57.8495 2.28356 57.8737 2.34192 57.8737 2.40276V27.7066C57.8737 27.7675 57.8495 27.8258 57.8066 27.8689C57.7636 27.9119 57.7053 27.936 57.6446 27.936Z" fill="black"/>
<path d="M44.3763 25.6993C44.3763 25.2998 44.3646 24.9003 44.3477 24.5011C44.2925 24.508 44.2417 24.5349 44.2048 24.5766C44.168 24.6182 44.1475 24.6719 44.1472 24.7276C44.1438 25.8335 43.3786 26.5344 42.7375 26.9273C41.8497 27.4721 40.6536 27.7707 39.3676 27.7707H39.3547C38.5102 27.7694 37.671 27.6364 36.8673 27.3766C36.0148 27.097 35.2571 26.6829 34.6148 26.1455C33.9142 25.5604 33.3559 24.8231 32.9826 23.9895C32.5616 23.0566 32.3483 21.978 32.3483 20.7841V9.41497C32.3483 9.35412 32.3241 9.29577 32.2812 9.25274C32.2382 9.20972 32.1799 9.18555 32.1192 9.18555C32.0584 9.18555 32.0002 9.20972 31.9572 9.25274C31.9142 9.29577 31.8901 9.35412 31.8901 9.41497V20.783C31.8901 23.1902 32.7306 25.1661 34.3202 26.4965C35.0074 27.0701 35.8161 27.5137 36.7239 27.8114C37.5728 28.0882 38.4601 28.2289 39.353 28.2284H39.3667C40.7358 28.2284 42.0173 27.9052 42.9749 27.3176C43.647 26.9058 44.1255 26.3792 44.3835 25.7833C44.378 25.7556 44.3756 25.7274 44.3763 25.6993Z" fill="black"/>
<path d="M44.1802 22.2851C44.1567 22.3065 44.138 22.3326 44.1251 22.3616C44.1122 22.3906 44.1055 22.422 44.1054 22.4538C44.1031 23.8616 43.3383 24.7357 42.6971 25.2212C41.838 25.8708 40.6906 26.2284 39.4612 26.2284H39.4558C36.6345 26.2258 33.7878 24.3241 33.7878 20.0815V9.41497C33.7878 9.35412 33.7637 9.29577 33.7207 9.25274C33.6777 9.20972 33.6195 9.18555 33.5587 9.18555C33.498 9.18555 33.4397 9.20972 33.3967 9.25274C33.3538 9.29577 33.3296 9.35412 33.3296 9.41497V20.0815C33.3296 22.1868 34.0046 23.9244 35.2817 25.1096C36.3777 26.1254 37.859 26.6869 39.4552 26.6869H39.4612C40.7893 26.6869 42.0362 26.2963 42.9731 25.5868C43.4677 25.214 43.8554 24.7638 44.1257 24.253C44.1815 24.1475 44.2319 24.0399 44.2769 23.9304C44.2474 23.3829 44.2108 22.834 44.1802 22.2851Z" fill="black"/>
<path d="M44.1729 20.103C44.1641 20.1276 44.1595 20.1535 44.1595 20.1796C44.1595 21.549 43.6872 22.7144 42.7964 23.5504C42.0043 24.2935 40.9093 24.7196 39.7913 24.7196H39.7902C37.5668 24.7196 35.3229 23.0669 35.3229 19.3786V9.41497C35.3229 9.35412 35.2988 9.29577 35.2558 9.25274C35.2129 9.20972 35.1546 9.18555 35.0938 9.18555C35.0331 9.18555 34.9748 9.20972 34.9318 9.25274C34.8889 9.29577 34.8647 9.35412 34.8647 9.41497V19.3777C34.8647 21.1999 35.3954 22.7136 36.3993 23.7555C37.2828 24.6732 38.4866 25.177 39.7893 25.1776H39.7913C41.0244 25.1776 42.2337 24.7061 43.1097 23.8842C43.5977 23.4273 43.9808 22.8695 44.2322 22.2496C44.1924 21.534 44.1635 20.8182 44.1729 20.103Z" fill="black"/>
<path d="M44.2544 18.3118C44.2621 18.2486 44.2815 18.1874 44.3117 18.1314C44.2842 17.9905 44.2566 17.8499 44.2289 17.7095C44.1953 17.7299 44.1674 17.7586 44.148 17.793C44.1287 17.8273 44.1185 17.866 44.1184 17.9054C44.1184 19.9782 43.4251 21.2301 42.8435 21.9155C42.1276 22.7595 41.1474 23.2435 40.1557 23.2435C39.256 23.2435 38.4278 22.8507 37.8239 22.138C37.1295 21.3184 36.7623 20.1211 36.7623 18.676V9.41497C36.7623 9.35412 36.7382 9.29577 36.6952 9.25274C36.6523 9.20972 36.594 9.18555 36.5333 9.18555C36.4725 9.18555 36.4142 9.20972 36.3713 9.25274C36.3283 9.29577 36.3042 9.35412 36.3042 9.41497V18.676C36.3042 20.2315 36.7088 21.5312 37.4745 22.4348C38.1672 23.2522 39.1194 23.7024 40.1557 23.7024C41.282 23.7024 42.3893 23.1592 43.1912 22.2126C43.5107 21.836 43.8612 21.3035 44.1296 20.5828C44.1253 19.8245 44.1548 19.0669 44.2544 18.3118Z" fill="black"/>
<path d="M44.3067 27.9609C44.2459 27.9609 44.1876 27.9368 44.1447 27.8937C44.1017 27.8507 44.0776 27.7924 44.0776 27.7315V9.51116C44.0776 9.45031 44.1017 9.39196 44.1447 9.34894C44.1876 9.30591 44.2459 9.28174 44.3067 9.28174C44.3674 9.28174 44.4257 9.30591 44.4686 9.34894C44.5116 9.39196 44.5357 9.45031 44.5357 9.51116V27.7315C44.5357 27.7924 44.5116 27.8507 44.4686 27.8937C44.4257 27.9368 44.3674 27.9609 44.3067 27.9609Z" fill="black"/>
<path d="M45.8418 27.9609C45.7811 27.9609 45.7228 27.9368 45.6799 27.8937C45.6369 27.8507 45.6128 27.7924 45.6128 27.7315V9.51116C45.6128 9.45031 45.6369 9.39196 45.6799 9.34894C45.7228 9.30591 45.7811 9.28174 45.8418 9.28174C45.9026 9.28174 45.9609 9.30591 46.0038 9.34894C46.0468 9.39196 46.0709 9.45031 46.0709 9.51116V27.7315C46.0709 27.7924 46.0468 27.8507 46.0038 27.8937C45.9609 27.9368 45.9026 27.9609 45.8418 27.9609Z" fill="black"/>
<path d="M47.2813 27.9609C47.2205 27.9609 47.1623 27.9368 47.1193 27.8937C47.0763 27.8507 47.0522 27.7924 47.0522 27.7315V9.51116C47.0522 9.45031 47.0763 9.39196 47.1193 9.34894C47.1623 9.30591 47.2205 9.28174 47.2813 9.28174C47.342 9.28174 47.4003 9.30591 47.4433 9.34894C47.4862 9.39196 47.5104 9.45031 47.5104 9.51116V27.7315C47.5104 27.7924 47.4862 27.8507 47.4433 27.8937C47.4003 27.9368 47.342 27.9609 47.2813 27.9609Z" fill="black"/>
<path d="M48.8165 27.9609C48.7557 27.9609 48.6974 27.9368 48.6545 27.8937C48.6115 27.8507 48.5874 27.7924 48.5874 27.7315V9.51116C48.5874 9.45031 48.6115 9.39196 48.6545 9.34894C48.6974 9.30591 48.7557 9.28174 48.8165 9.28174C48.8772 9.28174 48.9355 9.30591 48.9785 9.34894C49.0214 9.39196 49.0456 9.45031 49.0456 9.51116V27.7315C49.0456 27.7924 49.0214 27.8507 48.9785 27.8937C48.9355 27.9368 48.8772 27.9609 48.8165 27.9609Z" fill="black"/>
<path d="M28.4884 13.0071C28.1373 12.1445 27.6064 11.367 26.9312 10.7263C25.7285 9.58728 24.0495 8.87978 22.2014 8.73381C20.527 8.60132 18.8736 8.92997 17.5457 9.6584C16.6265 10.1629 15.924 10.8359 15.4819 11.6188C15.5618 11.6877 15.6376 11.7614 15.7087 11.8393C15.7433 11.8772 15.7788 11.9179 15.8144 11.9618C15.9296 11.7399 16.0658 11.5295 16.221 11.3334C16.613 10.8365 17.1328 10.4083 17.7673 10.061C18.9987 9.38452 20.6023 9.06763 22.167 9.19123C23.9107 9.32888 25.4914 9.9925 26.6179 11.0596C27.2458 11.6558 27.7395 12.3793 28.066 13.1818C28.4317 14.0708 28.6173 15.0863 28.6173 16.1973V27.7643C28.6173 27.8252 28.6414 27.8835 28.6844 27.9265C28.7274 27.9696 28.7856 27.9937 28.8464 27.9937C28.9071 27.9937 28.9654 27.9696 29.0084 27.9265C29.0513 27.8835 29.0755 27.8252 29.0755 27.7643V16.1973C29.074 15.026 28.877 13.9526 28.4884 13.0071Z" fill="black"/>
<path d="M17.7611 11.5904C18.7986 10.8909 20.1299 10.5443 21.5105 10.6137C23.0016 10.6888 24.3675 11.248 25.3566 12.1883C26.4935 13.2695 27.0942 14.8193 27.0942 16.6707V27.7726C27.0942 27.8335 27.1184 27.8918 27.1613 27.9349C27.2043 27.9779 27.2626 28.0021 27.3233 28.0021C27.3841 28.0021 27.4424 27.9779 27.4853 27.9349C27.5283 27.8918 27.5524 27.8335 27.5524 27.7726V16.6707C27.5524 14.6919 26.9021 13.0255 25.6722 11.8557C24.6038 10.8399 23.1341 10.236 21.5334 10.1554C20.0549 10.0805 18.6242 10.4554 17.5054 11.2098C16.973 11.5626 16.5139 12.0155 16.1538 12.5434C16.2389 12.7104 16.312 12.8833 16.3726 13.0607C16.7615 12.3799 17.2941 11.9053 17.7611 11.5904Z" fill="black"/>
<path d="M16.7179 14.6964C16.9733 14.0799 17.3735 13.5342 17.8845 13.1056C18.7304 12.3956 19.8455 12.0202 21.0259 12.0471C22.2518 12.0758 23.387 12.5395 24.2226 13.3505C25.1719 14.2717 25.6736 15.5874 25.6736 17.1536V27.7914C25.6736 27.8523 25.6977 27.9106 25.7407 27.9537C25.7836 27.9967 25.8419 28.0209 25.9026 28.0209C25.9634 28.0209 26.0217 27.9967 26.0646 27.9537C26.1076 27.9106 26.1317 27.8523 26.1317 27.7914V17.1547C26.1317 15.4607 25.5819 14.0317 24.5413 13.0222C23.6229 12.1309 22.3784 11.6221 21.0368 11.5883C19.745 11.5596 18.5214 11.972 17.5896 12.754C17.2145 13.0683 16.892 13.4405 16.6343 13.8567C16.6746 14.1002 16.7007 14.3458 16.7124 14.5923C16.7147 14.6282 16.7162 14.6617 16.7179 14.6964Z" fill="black"/>
<path d="M17.9282 14.5022C18.2538 14.1496 18.649 13.8687 19.0888 13.6772C19.5286 13.4857 20.0033 13.3878 20.4828 13.3897C20.9519 13.3882 21.4165 13.4804 21.8495 13.6609C22.2825 13.8415 22.6752 14.1068 23.0045 14.4414C23.7576 15.2025 24.1557 16.2768 24.1557 17.5512V27.7228C24.1557 27.7836 24.1798 27.842 24.2228 27.885C24.2657 27.928 24.324 27.9522 24.3848 27.9522C24.4455 27.9522 24.5038 27.928 24.5468 27.885C24.5897 27.842 24.6138 27.7836 24.6138 27.7228V17.5512C24.6138 14.5185 22.5357 12.9317 20.4825 12.9317C19.94 12.9294 19.4029 13.04 18.9053 13.2567C18.4077 13.4733 17.9606 13.7912 17.5923 14.1901C17.2244 14.5893 16.9323 15.0521 16.73 15.5561C16.7518 16.1296 16.7693 16.7155 16.7836 17.2768C16.8978 16.1411 17.2873 15.1904 17.9282 14.5022Z" fill="black"/>
<path d="M0.933679 28.0961C0.872921 28.0961 0.814651 28.0719 0.771688 28.0289C0.728726 27.9859 0.70459 27.9275 0.70459 27.8667V15.9939C0.70459 13.724 1.57255 11.8264 3.21426 10.5058C4.65781 9.34463 6.61281 8.70511 8.71842 8.70511C9.74401 8.70265 10.7638 8.85926 11.7416 9.16939C12.7438 9.48887 13.6373 9.95691 14.4007 10.56C16.1143 11.9142 17.0198 13.8293 17.0198 16.0949V27.7474C17.0198 27.8082 16.9956 27.8666 16.9527 27.9096C16.9097 27.9526 16.8514 27.9768 16.7907 27.9768C16.7299 27.9768 16.6717 27.9526 16.6287 27.9096C16.5857 27.8666 16.5616 27.8082 16.5616 27.7474V16.0943C16.5616 13.9721 15.7163 12.1843 14.1169 10.9202C13.397 10.3512 12.5508 9.9093 11.6024 9.60646C10.6696 9.31086 9.69678 9.16159 8.71842 9.16396C6.71675 9.16396 4.8637 9.7662 3.50119 10.8634C1.97145 12.094 1.16277 13.868 1.16277 15.9939V27.8667C1.16277 27.9275 1.13863 27.9859 1.09567 28.0289C1.05271 28.0719 0.994437 28.0961 0.933679 28.0961Z" fill="black"/>
<path d="M2.37313 28.0744C2.31237 28.0744 2.2541 28.0502 2.21114 28.0072C2.16817 27.9642 2.14404 27.9058 2.14404 27.845V16.479C2.14404 14.5148 2.85994 12.8687 4.21586 11.7184C5.41085 10.7052 7.02421 10.146 8.76071 10.146C10.5264 10.146 12.1799 10.7195 13.417 11.7591C14.8167 12.9349 15.5567 14.6034 15.5567 16.5808V27.7687C15.5567 27.8295 15.5325 27.8879 15.4896 27.9309C15.4466 27.9739 15.3883 27.9981 15.3276 27.9981C15.2668 27.9981 15.2085 27.9739 15.1656 27.9309C15.1226 27.8879 15.0985 27.8295 15.0985 27.7687V16.5808C15.0985 14.7434 14.4152 13.1967 13.1226 12.1104C12.5418 11.6229 11.8589 11.2429 11.0926 10.9836C10.3412 10.7309 9.55361 10.603 8.76099 10.6049C7.1336 10.6049 5.62476 11.1247 4.51225 12.0674C3.26285 13.1285 2.6025 14.6524 2.6025 16.4775V27.8435C2.60269 27.8738 2.5969 27.9038 2.58545 27.9318C2.574 27.9599 2.55713 27.9853 2.53581 28.0068C2.51449 28.0283 2.48914 28.0453 2.46122 28.0569C2.43329 28.0685 2.40336 28.0744 2.37313 28.0744Z" fill="black"/>
<path d="M3.81259 28.0536C3.75183 28.0536 3.69357 28.0294 3.6506 27.9864C3.60764 27.9434 3.5835 27.885 3.5835 27.8242V16.9649C3.5835 15.3076 4.14706 13.9141 5.21347 12.9347C6.15847 12.0664 7.43249 11.5869 8.79844 11.5869C10.1818 11.588 11.4705 12.0755 12.4335 12.9617C13.5194 13.9614 14.0944 15.3813 14.0944 17.0684V27.7912C14.0944 27.852 14.0703 27.9104 14.0273 27.9534C13.9843 27.9964 13.9261 28.0206 13.8653 28.0206C13.8046 28.0206 13.7463 27.9964 13.7033 27.9534C13.6604 27.9104 13.6362 27.852 13.6362 27.7912V17.0684C13.6362 15.5132 13.1133 14.2098 12.1245 13.2995C11.2462 12.4917 10.0653 12.0469 8.79844 12.0469C7.54732 12.0469 6.38412 12.4825 5.52303 13.2731C4.55398 14.1622 4.04168 15.4398 4.04168 16.9649V27.8242C4.04168 27.885 4.01755 27.9434 3.97458 27.9864C3.93162 28.0294 3.87335 28.0536 3.81259 28.0536Z" fill="black"/>
<path d="M12.4004 27.945C12.3397 27.945 12.2814 27.9209 12.2385 27.8778C12.1955 27.8348 12.1714 27.7764 12.1714 27.7156V17.458C12.1714 16.1827 11.8071 15.1204 11.1175 14.3854C10.8252 14.0704 10.4709 13.8194 10.077 13.6482C9.68313 13.477 9.2581 13.3893 8.8287 13.3906C8.39963 13.3895 7.97488 13.4763 7.5805 13.6456C7.18612 13.8148 6.83042 14.063 6.53523 14.3748C5.84567 15.0958 5.48113 16.1256 5.48113 17.353V27.7059C5.48113 27.7667 5.45699 27.8251 5.41403 27.8681C5.37107 27.9111 5.3128 27.9353 5.25204 27.9353C5.19128 27.9353 5.13301 27.9111 5.09005 27.8681C5.04709 27.8251 5.02295 27.7667 5.02295 27.7059V17.353C5.02295 16.0052 5.43159 14.8652 6.20448 14.0573C6.54232 13.7007 6.94934 13.4169 7.40059 13.2233C7.85184 13.0297 8.3378 12.9305 8.8287 12.9317C9.32073 12.9302 9.80776 13.0306 10.2591 13.2268C10.7105 13.4229 11.1164 13.7105 11.4514 14.0714C12.2223 14.8927 12.6295 16.0639 12.6295 17.458V27.7156C12.6295 27.7764 12.6054 27.8348 12.5624 27.8778C12.5195 27.9209 12.4612 27.945 12.4004 27.945Z" fill="black"/>
</g>
</g>
</g>
<defs>
<clipPath id="clip0_2_291">
<rect width="104" height="28" fill="white" transform="translate(0.470215 0.689941)"/>
</clipPath>
<clipPath id="clip1_2_291">
<rect width="104" height="28" fill="white" transform="translate(0.470215 0.689941)"/>
</clipPath>
</defs>
</svg>
