<svg width="147" height="22" viewBox="0 0 147 22" fill="none" xmlns="http://www.w3.org/2000/svg">
<g clip-path="url(#clip0_2_202)">
<g clip-path="url(#clip1_2_202)">
<mask id="mask0_2_202" style="mask-type:luminance" maskUnits="userSpaceOnUse" x="0" y="0" width="146" height="22">
<path d="M145.97 0.572388H0.970215V21.1467H145.97V0.572388Z" fill="white"/>
</mask>
<g mask="url(#mask0_2_202)">
<path d="M27.7124 18.4559V7.09931H31.2971V8.74469C31.6102 8.13103 32.0874 7.65546 32.7287 7.31791C33.37 6.9804 34.1372 6.81165 35.0305 6.81165C35.8092 6.81165 36.4505 6.93438 36.9544 7.17985C37.4584 7.42532 37.8669 7.736 38.18 8.11187C38.5389 8.54908 38.7754 9.05538 38.89 9.63069C39.0046 10.206 39.0617 10.9002 39.0617 11.7133V18.4559H35.4773V12.6338C35.4773 11.836 35.332 11.1802 35.042 10.6663C34.7517 10.1446 34.2402 9.88382 33.5074 9.88382C32.7591 9.88382 32.2016 10.1446 31.8354 10.6663C31.4764 11.1802 31.2971 11.8744 31.2971 12.7489V18.4559H27.7124Z" fill="black"/>
<path d="M41.4292 12.7724C41.4292 11.9593 41.5705 11.1922 41.8532 10.4712C42.1432 9.75011 42.5593 9.11725 43.1015 8.57263C43.6434 8.02801 44.2999 7.59459 45.0711 7.27241C45.8425 6.95023 46.7203 6.78918 47.7054 6.78918C48.6901 6.78918 49.5683 6.95023 50.3394 7.27241C51.1181 7.59459 51.7746 8.02801 52.3092 8.57263C52.8511 9.11725 53.2636 9.75011 53.546 10.4712C53.8287 11.1922 53.9697 11.9593 53.9697 12.7724C53.9697 13.5855 53.8287 14.3565 53.546 15.0852C53.2636 15.8062 52.8511 16.4391 52.3092 16.9837C51.7746 17.5283 51.1181 17.9617 50.3394 18.2839C49.5683 18.6061 48.6901 18.7672 47.7054 18.7672C46.7203 18.7672 45.8425 18.6061 45.0711 18.2839C44.2999 17.9617 43.6434 17.5283 43.1015 16.9837C42.5593 16.4391 42.1432 15.8062 41.8532 15.0852C41.5705 14.3641 41.4292 13.5932 41.4292 12.7724ZM45.0139 12.7724C45.0139 13.179 45.075 13.5587 45.1972 13.9115C45.327 14.2567 45.5063 14.5635 45.7355 14.832C45.9723 15.0928 46.2546 15.2999 46.5829 15.4534C46.9111 15.5991 47.2777 15.672 47.6822 15.672C48.0871 15.672 48.4573 15.5991 48.7932 15.4534C49.137 15.2999 49.4233 15.0928 49.6521 14.832C49.8889 14.5635 50.0722 14.2567 50.202 13.9115C50.3394 13.5663 50.408 13.1866 50.408 12.7724C50.408 12.3812 50.3394 12.0092 50.202 11.6563C50.0722 11.3034 49.8889 10.9966 49.6521 10.7358C49.4233 10.475 49.1406 10.2679 48.8047 10.1145C48.4689 9.96106 48.0947 9.88434 47.6822 9.88434C47.2777 9.88434 46.9111 9.96106 46.5829 10.1145C46.2546 10.2679 45.9723 10.475 45.7355 10.7358C45.5063 10.9966 45.327 11.3034 45.1972 11.6563C45.075 12.0092 45.0139 12.3812 45.0139 12.7724Z" fill="black"/>
<path d="M55.771 12.7725C55.771 11.9211 55.9047 11.131 56.1719 10.4022C56.4466 9.67352 56.8248 9.04832 57.3056 8.52673C57.7944 7.99744 58.363 7.57938 59.0119 7.27252C59.6612 6.96571 60.3636 6.81228 61.1192 6.81228C61.9669 6.81228 62.6997 6.99254 63.3183 7.35308C63.9444 7.71361 64.414 8.17002 64.7267 8.72234V1.95667H68.3115V18.4566H64.7267V16.8572C64.4444 17.3789 63.9899 17.8238 63.3642 18.192C62.738 18.5602 61.9897 18.7442 61.1192 18.7442C60.3712 18.7442 59.6688 18.5908 59.0119 18.284C58.363 17.9772 57.7944 17.5591 57.3056 17.0298C56.8248 16.5006 56.4466 15.8715 56.1719 15.1428C55.9047 14.4141 55.771 13.624 55.771 12.7725ZM59.3326 12.7725C59.3326 13.1637 59.3977 13.5396 59.5274 13.9001C59.6648 14.253 59.8481 14.5598 60.0773 14.8206C60.3137 15.0738 60.5964 15.2809 60.9247 15.442C61.2529 15.5954 61.6195 15.6721 62.024 15.6721C62.4286 15.6721 62.7952 15.5954 63.1234 15.442C63.4596 15.2809 63.7419 15.0738 63.9711 14.8206C64.2076 14.5598 64.3909 14.253 64.5206 13.9001C64.658 13.5473 64.7267 13.1714 64.7267 12.7725C64.7267 12.3813 64.658 12.0131 64.5206 11.6679C64.3909 11.3228 64.2076 11.0159 63.9711 10.7474C63.7419 10.4789 63.4632 10.268 63.135 10.1146C62.8067 9.96117 62.4365 9.88446 62.024 9.88446C61.6195 9.88446 61.2529 9.96117 60.9247 10.1146C60.5964 10.268 60.3137 10.4789 60.0773 10.7474C59.8481 11.0159 59.6648 11.3228 59.5274 11.6679C59.3977 12.0131 59.3326 12.3813 59.3326 12.7725Z" fill="black"/>
<path d="M70.894 12.7729C70.894 11.9214 71.0278 11.1313 71.2949 10.4026C71.5697 9.67385 71.9478 9.04865 72.4286 8.52705C72.9174 7.99776 73.4861 7.57971 74.135 7.27286C74.7843 6.96604 75.4867 6.81262 76.2422 6.81262C77.09 6.81262 77.8228 6.99287 78.4413 7.3534C79.0674 7.71394 79.537 8.17035 79.8498 8.72267V7.10027H83.4345V18.4569H79.8498V16.8576C79.5674 17.3792 79.113 17.8241 78.4872 18.1923C77.8611 18.5605 77.1127 18.7446 76.2422 18.7446C75.4943 18.7446 74.7918 18.5912 74.135 18.2843C73.4861 17.9775 72.9174 17.5594 72.4286 17.0301C71.9478 16.5009 71.5697 15.8719 71.2949 15.1432C71.0278 14.4144 70.894 13.6243 70.894 12.7729ZM74.4556 12.7729C74.4556 13.1641 74.5207 13.54 74.6505 13.9005C74.7879 14.2533 74.9712 14.5601 75.2003 14.821C75.4368 15.0741 75.7195 15.2812 76.0477 15.4423C76.376 15.5957 76.7426 15.6724 77.1471 15.6724C77.5516 15.6724 77.9182 15.5957 78.2464 15.4423C78.5827 15.2812 78.865 15.0741 79.0942 14.821C79.3306 14.5601 79.5139 14.2533 79.6437 13.9005C79.7811 13.5476 79.8498 13.1718 79.8498 12.7729C79.8498 12.3816 79.7811 12.0135 79.6437 11.6683C79.5139 11.3231 79.3306 11.0162 79.0942 10.7478C78.865 10.4793 78.5863 10.2683 78.258 10.1149C77.9298 9.9615 77.5596 9.88479 77.1471 9.88479C76.7426 9.88479 76.376 9.9615 76.0477 10.1149C75.7195 10.2683 75.4368 10.4793 75.2003 10.7478C74.9712 11.0162 74.7879 11.3231 74.6505 11.6683C74.5207 12.0135 74.4556 12.3816 74.4556 12.7729Z" fill="black"/>
<path d="M86.7163 18.4561V1.95618H90.3007V18.4561H86.7163Z" fill="black"/>
<path d="M92.0229 7.09973H95.7794L98.5169 14.2336L101.288 7.09973H105.044L99.9253 18.4564H97.062L92.0229 7.09973Z" fill="black"/>
<path d="M106.654 3.3262C106.654 2.68187 106.871 2.14108 107.306 1.70383C107.749 1.26659 108.299 1.04797 108.956 1.04797C109.284 1.04797 109.585 1.1055 109.86 1.22057C110.143 1.33563 110.391 1.49672 110.605 1.70383C110.819 1.90328 110.983 2.14492 111.097 2.42874C111.212 2.71253 111.269 3.01172 111.269 3.3262C111.269 3.64071 111.212 3.93603 111.097 4.21219C110.983 4.48835 110.819 4.73382 110.605 4.94859C110.391 5.1557 110.143 5.32063 109.86 5.44336C109.585 5.55843 109.284 5.61595 108.956 5.61595C108.627 5.61595 108.326 5.55843 108.051 5.44336C107.776 5.32063 107.532 5.1557 107.318 4.94859C107.112 4.73382 106.948 4.48835 106.825 4.21219C106.711 3.93603 106.654 3.64071 106.654 3.3262ZM107.169 18.4569V7.10024H110.753V18.4569H107.169Z" fill="black"/>
<path d="M113.745 12.7724C113.745 11.9363 113.871 11.1577 114.123 10.4366C114.383 9.71559 114.764 9.08656 115.268 8.5496C115.78 8.00498 116.402 7.57543 117.135 7.26092C117.876 6.9464 118.723 6.78918 119.678 6.78918C120.586 6.78918 121.403 6.93107 122.128 7.2149C122.854 7.49872 123.469 7.88991 123.972 8.38851C124.484 8.87945 124.877 9.46629 125.152 10.149C125.427 10.8317 125.564 11.5681 125.564 12.3582C125.564 12.5806 125.557 12.7724 125.542 12.9335C125.526 13.0946 125.496 13.3324 125.45 13.6469H117.353C117.353 13.9921 117.395 14.3181 117.479 14.6249C117.571 14.9317 117.708 15.2002 117.891 15.4304C118.082 15.6605 118.334 15.8408 118.647 15.9712C118.96 16.1016 119.342 16.1667 119.792 16.1667C120.434 16.1667 120.915 16.044 121.235 15.7986C121.556 15.5454 121.777 15.2386 121.9 14.878H125.427C125.335 15.415 125.141 15.9174 124.843 16.3854C124.553 16.8533 124.175 17.2637 123.709 17.6165C123.243 17.9694 122.686 18.2494 122.037 18.4565C121.388 18.6636 120.655 18.7672 119.838 18.7672C118.853 18.7672 117.979 18.6137 117.216 18.3069C116.46 18.0001 115.822 17.5744 115.303 17.0297C114.791 16.4851 114.402 15.8484 114.135 15.1197C113.875 14.3909 113.745 13.6085 113.745 12.7724ZM117.353 11.5758H122.048C122.048 10.8854 121.831 10.3408 121.396 9.94186C120.968 9.5353 120.403 9.33202 119.701 9.33202C119.029 9.33202 118.467 9.52764 118.017 9.91887C117.574 10.3024 117.353 10.8547 117.353 11.5758Z" fill="black"/>
<path d="M126.398 7.10071H130.108L132.193 13.8664L134.185 7.10071H137.495L139.488 13.8664L141.572 7.10071H145.283L141.057 18.4574H138.148L135.846 11.2199L133.533 18.4574H130.624L126.398 7.10071Z" fill="black"/>
<path d="M10.7031 1.34196V6.02124C10.7052 6.06478 10.6955 6.10808 10.6749 6.14655C10.6544 6.185 10.6237 6.2172 10.5862 6.23969C10.5487 6.26217 10.5058 6.27412 10.4621 6.27429C10.4183 6.27443 10.3754 6.26275 10.3378 6.24052L2.0006 0.642481C1.92292 0.597404 1.83448 0.574039 1.7446 0.57485C1.65471 0.575661 1.56671 0.600618 1.48986 0.647089C1.41303 0.693561 1.35019 0.759826 1.30799 0.838898C1.26579 0.91797 1.24579 1.00692 1.25008 1.09637V9.31032C1.24824 9.48851 1.29241 9.66419 1.37836 9.82048C1.46431 9.97677 1.58915 10.1084 1.74089 10.2028L17.7725 20.8375C17.8505 20.8841 17.9397 20.9087 18.0307 20.9087C18.1216 20.9087 18.2109 20.8841 18.2888 20.8375C18.3668 20.7909 18.4306 20.724 18.4734 20.6441C18.5162 20.5641 18.5364 20.4741 18.5318 20.3836V1.19066C18.5339 1.12313 18.5224 1.05586 18.4981 0.992793C18.4737 0.929721 18.4371 0.872113 18.3901 0.823327C18.3432 0.77454 18.287 0.735555 18.2248 0.708646C18.1626 0.681737 18.0956 0.667444 18.0278 0.666601H11.348C11.2611 0.668591 11.1754 0.687657 11.0959 0.722707C11.0164 0.757757 10.9447 0.8081 10.8848 0.870848C10.8248 0.933597 10.7779 1.00751 10.7468 1.08836C10.7156 1.1692 10.7007 1.25539 10.7031 1.34196Z" fill="black"/>
<path d="M1.24969 11.4264V20.467C1.24822 20.5123 1.2558 20.5574 1.27199 20.5998C1.28817 20.6421 1.31264 20.6808 1.34397 20.7136C1.3753 20.7465 1.41287 20.7728 1.45449 20.7911C1.49611 20.8093 1.54096 20.8192 1.58643 20.82H8.73286C8.77824 20.8189 8.82297 20.8088 8.86448 20.7905C8.90596 20.7721 8.94341 20.7458 8.97466 20.713C9.00595 20.6802 9.03044 20.6416 9.04671 20.5994C9.06301 20.5572 9.0708 20.5122 9.06963 20.467V16.1649C9.06932 16.1048 9.05408 16.0457 9.02528 15.9929C8.99647 15.9401 8.95499 15.8952 8.90456 15.8623L1.76911 11.1238C1.71634 11.0924 1.65607 11.0756 1.59458 11.0753C1.5331 11.075 1.47267 11.0912 1.4196 11.1221C1.36653 11.153 1.32276 11.1976 1.29287 11.2511C1.26299 11.3046 1.24807 11.3652 1.24969 11.4264Z" fill="black"/>
</g>
</g>
</g>
<defs>
<clipPath id="clip0_2_202">
<rect width="146" height="21" fill="white" transform="translate(0.470215 0.359985)"/>
</clipPath>
<clipPath id="clip1_2_202">
<rect width="146" height="21" fill="white" transform="translate(0.470215 0.359985)"/>
</clipPath>
</defs>
</svg>
