<svg width="91" height="21" viewBox="0 0 91 21" fill="none" xmlns="http://www.w3.org/2000/svg">
<mask id="mask0_2_201" style="mask-type:luminance" maskUnits="userSpaceOnUse" x="0" y="0" width="91" height="21">
<path d="M90.78 0.859985H0.780029V20.6285H90.78V0.859985Z" fill="white"/>
</mask>
<g mask="url(#mask0_2_201)">
<path fill-rule="evenodd" clip-rule="evenodd" d="M6.98315 0.941822C5.23845 1.19574 3.91711 1.77999 2.87637 2.75769C2.20198 3.39122 1.82128 4.00533 1.53543 4.92067C1.38473 5.40315 1.37378 5.50458 1.37654 6.38983C1.37948 7.33883 1.45365 7.8103 1.69841 8.4357C1.94351 9.06203 2.54425 9.79653 3.14752 10.2075C3.9329 10.7425 5.2728 11.2465 6.7853 11.5759C6.91209 11.6035 7.13252 11.6518 7.27516 11.6831C7.41779 11.7145 7.69009 11.7703 7.88027 11.8071C8.07045 11.8439 8.32979 11.8966 8.45657 11.9242C8.58336 11.9518 8.82973 12.0053 9.00406 12.0431C10.5765 12.384 11.5513 12.8073 11.9908 13.3402C12.3077 13.7245 12.4184 14.1125 12.3935 14.7527C12.3741 15.2516 12.351 15.3489 12.1611 15.7324C12.0451 15.9665 11.8514 16.2538 11.7306 16.3706C11.0511 17.0281 9.89606 17.3971 8.51766 17.3972C6.66117 17.3972 5.3208 16.7624 4.73741 15.6066C4.64492 15.4234 4.5054 15.0342 4.42736 14.7417C4.34933 14.4492 4.25142 14.1884 4.20987 14.162C4.16832 14.1356 3.40489 14.1137 2.5133 14.1131C1.15294 14.1124 0.880981 14.126 0.82168 14.1974C0.740076 14.2958 0.782838 14.9041 0.911065 15.468C1.4019 17.6273 2.77177 19.2021 4.88351 20.0348C6.60106 20.712 9.05904 20.8197 11.0914 20.3068C13.3783 19.7297 15.1072 18.2571 15.7199 16.3645C16.2204 14.8184 16.0909 12.9841 15.3953 11.7684C14.8549 10.8238 14.0616 10.2014 12.6942 9.64922C11.767 9.2748 10.9245 9.06174 8.80235 8.66513C7.0523 8.33808 6.22306 8.08353 5.64486 7.69596C5.17281 7.37952 4.96217 7.00636 4.9261 6.42245C4.86149 5.37635 5.61022 4.56469 6.97185 4.20485C7.64134 4.02792 8.95427 4.02527 9.61488 4.19948C10.8742 4.53166 11.5385 5.1679 11.8323 6.32333C11.8941 6.56595 11.9881 6.79688 12.0413 6.83647C12.1132 6.88995 12.5421 6.90851 13.7078 6.90851C15.4644 6.90851 15.4586 6.90983 15.4586 6.51132C15.4586 6.19862 15.2627 5.33065 15.0864 4.86264C14.7636 4.00556 14.273 3.28651 13.5743 2.64618C12.622 1.77365 11.3299 1.18808 9.83111 0.949775C9.13978 0.839875 7.71107 0.835898 6.98315 0.941822ZM58.7676 0.928797C56.4565 1.29469 54.4228 2.38984 52.9606 4.05581C50.82 6.49484 50.0174 9.75308 50.759 12.9935C51.2347 15.0718 52.3982 17.005 53.9267 18.2572C55.2368 19.3305 56.5833 19.9519 58.169 20.2155C58.801 20.3206 59.1372 20.3363 60.7439 20.3363C62.347 20.3363 62.6038 20.3243 62.6824 20.2458C62.7601 20.168 62.7729 19.9403 62.7729 18.6362C62.7729 17.3322 62.7601 17.1045 62.6824 17.0267C62.6039 16.9483 62.3483 16.936 60.7662 16.9355C59.0313 16.9348 58.9128 16.9279 58.3829 16.796C57.7474 16.6378 57.4777 16.5275 56.8963 16.1879C55.4788 15.3601 54.4346 13.7978 54.0453 11.9223C53.9378 11.4044 53.923 9.86913 54.0215 9.45944C54.2808 8.38188 54.6203 7.57108 55.1243 6.8254C55.4473 6.34753 56.2017 5.61234 56.7177 5.27256C57.9542 4.4583 59.2625 4.1403 60.8656 4.26438C64.0064 4.50746 65.9579 5.98977 66.4891 8.53592C66.5636 8.89317 66.5764 9.77797 66.5764 14.5836C66.5765 19.6242 66.5859 20.2223 66.667 20.3034C66.745 20.3813 66.9779 20.394 68.3363 20.394C69.8381 20.394 69.9179 20.3886 69.9746 20.2825C70.0146 20.2078 70.0343 18.3169 70.0343 14.5577C70.0343 8.70248 70.0284 8.53633 69.7822 7.47731C69.3771 5.73464 68.3846 4.16081 66.9533 2.9915C66.0034 2.21551 64.7688 1.60803 63.4516 1.26853C62.837 1.11016 62.5627 1.05864 61.5804 0.917098C61.08 0.844945 59.249 0.85261 58.7676 0.928797ZM82.2519 0.920728C81.2276 1.12243 80.5547 1.328 79.9919 1.61114C79.6173 1.79959 78.9222 2.28092 78.5283 2.62468C78.3346 2.79371 78.1496 2.93203 78.1173 2.93203C78.0216 2.93203 77.9889 2.71038 77.9881 2.05726C77.9874 1.57541 77.9676 1.42223 77.8967 1.35128C77.8186 1.27325 77.5807 1.26075 76.1719 1.26075C74.7631 1.26075 74.5252 1.27325 74.4471 1.35128C74.3655 1.43289 74.3566 2.35359 74.3566 10.6256C74.3566 18.8977 74.3655 19.8184 74.4471 19.9C74.5803 20.0331 77.7602 20.0365 77.893 19.9036C77.969 19.8277 77.9828 19.0813 78.0026 13.9533L78.0254 8.08992L78.1785 7.60007C78.7554 5.75452 80.0419 4.63073 81.996 4.26524C82.4681 4.17689 82.9945 4.18318 83.5486 4.28368C84.1602 4.39462 84.2793 4.43352 84.8078 4.69482C85.8665 5.21839 86.5621 6.06008 86.9311 7.26414L87.0606 7.68651L87.0911 13.783C87.1178 19.1171 87.1325 19.8864 87.2081 19.9342C87.2572 19.9653 88.0069 19.9892 88.9473 19.9897C90.3737 19.9904 90.6124 19.9782 90.6906 19.9C90.7717 19.8188 90.781 19.1983 90.7799 13.9209C90.7785 7.17319 90.7656 6.9266 90.3491 5.66946C89.509 3.13419 87.557 1.45306 84.8972 0.974095C84.2029 0.849095 82.7633 0.820048 82.2519 0.920728ZM18.6653 1.57777C18.5884 1.65465 18.5911 1.70577 18.69 2.03882C18.8786 2.67419 19.0118 3.1044 19.2611 3.88292C19.3931 4.29498 19.6007 4.94332 19.7225 5.32368C19.8443 5.70404 20.1039 6.52094 20.2994 7.13903C20.4949 7.75711 20.7022 8.40545 20.7602 8.57978C20.8871 8.96181 21.6146 11.2394 22.0304 12.5563C22.3845 13.6773 22.7748 14.8981 23.2375 16.331C23.4216 16.9016 23.7188 17.8352 23.8978 18.4057C24.321 19.7547 24.443 20.1066 24.5425 20.2643L24.6244 20.394H26.66C28.5265 20.394 28.703 20.3856 28.7844 20.2931C28.8332 20.2376 29.151 19.3365 29.4907 18.2905C29.8303 17.2445 30.2068 16.0904 30.3273 15.7259C30.4478 15.3614 30.7978 14.2852 31.1049 13.3343C31.412 12.3834 31.7622 11.3071 31.883 10.9426C32.0039 10.5781 32.3399 9.54076 32.6298 8.63741C33.2612 6.66992 33.2408 6.72248 33.3678 6.74593C33.472 6.76518 33.5787 7.06163 34.3588 9.50185C34.5564 10.1199 34.7912 10.8461 34.8806 11.1155C34.97 11.3849 35.2808 12.3445 35.5712 13.2478C37.6014 19.5628 37.8161 20.2099 37.9135 20.3073C37.9873 20.3811 38.2956 20.394 39.9881 20.394C41.2142 20.394 42.0177 20.3717 42.0846 20.3359C42.1939 20.2773 42.2114 20.2267 43.3913 16.5327C43.6293 15.7879 43.8967 14.958 43.9856 14.6886C44.0745 14.4192 44.2292 13.9394 44.3291 13.6224C44.4292 13.3055 44.7322 12.3589 45.0026 11.5189C45.273 10.679 45.6444 9.52491 45.8281 8.95438C46.0118 8.38384 46.3105 7.45023 46.4921 6.87969C46.6737 6.30915 46.8816 5.66081 46.9541 5.43894C47.3894 4.10855 48.0763 1.95727 48.1092 1.82189C48.1887 1.49346 48.1761 1.49127 46.2222 1.49127C45.1829 1.49127 44.3955 1.51455 44.3347 1.54705C44.2115 1.61304 44.2237 1.57702 43.4166 4.25988C43.069 5.41548 42.6899 6.67222 42.5741 7.05258C42.4584 7.43294 42.2377 8.15908 42.0837 8.66623C41.9297 9.17337 41.7086 9.89951 41.5923 10.2799C41.4761 10.6602 41.2936 11.2697 41.1867 11.6342C41.08 11.9987 40.7774 12.9971 40.5144 13.8529C40.1048 15.186 40.0204 15.409 39.9252 15.409C39.8298 15.409 39.7087 15.0858 39.0716 13.1326C38.6633 11.8806 37.9686 9.75399 37.5279 8.40689C36.3544 4.82005 35.6559 2.67817 35.4841 2.1399C35.3888 1.84091 35.2866 1.63264 35.2087 1.578C35.105 1.50539 34.8005 1.49127 33.3399 1.49127C31.7139 1.49127 31.5877 1.49859 31.4875 1.59875C31.4269 1.65937 31.1213 2.49502 30.7868 3.51495C30.4606 4.50977 29.9417 6.08872 29.6339 7.02377C29.3261 7.95881 28.6143 10.1243 28.0522 11.8359C26.8329 15.5487 26.872 15.4378 26.7822 15.4378C26.6681 15.4378 26.6092 15.3241 26.4684 14.8327C26.3248 14.3317 25.8992 12.9101 25.045 10.0782C24.7438 9.07972 24.3935 7.91271 24.2666 7.48481C24.0119 6.62606 23.9411 6.38937 23.1892 3.88292C22.9039 2.93203 22.6381 2.04205 22.5985 1.90512C22.4769 1.4847 22.5098 1.49127 20.5213 1.49127C19.0249 1.49127 18.7384 1.50464 18.6653 1.57777Z" fill="black"/>
</g>
</svg>
